<svg width="62" height="39" viewBox="0 0 62 39" fill="none" xmlns="http://www.w3.org/2000/svg">
<path d="M39.283 26.8179L41.8089 29.6274C41.5892 29.6274 41.3853 29.6274 41.1656 29.6274C37.6514 29.6274 34.7961 30.9615 34.7961 33.8495C34.7961 36.1725 37.6514 38.0716 41.1656 38.0716C44.6798 38.0716 47.5351 36.1725 47.5351 33.8495C47.5351 31.5266 44.6328 28.6543 43.1581 26.8336H39.283V26.8179ZM44.2092 33.7553C44.2092 34.9639 42.8443 35.937 41.1813 35.937C39.5184 35.937 38.1378 34.9639 38.1378 33.7553C38.1378 32.5468 39.5027 31.5736 41.1813 31.5736C42.86 31.5736 44.2092 32.5468 44.2092 33.7553Z" fill="#171823"/>
<path d="M30.7955 34.3832C30.7955 36.6905 27.0147 36.6905 27.0147 34.3832V29.8472H23.7515V34.6814C23.7515 39.4058 33.9803 39.4529 33.9803 34.6814V29.8472H30.7955V34.3832Z" fill="#171823"/>
<path d="M50.0452 38.0246V29.8472" stroke="#171823" stroke-width="2.81" stroke-miterlimit="10"/>
<path d="M12.597 27.1001L13.7266 28.4813L7.43555 38.0399H11.2164L12.2362 36.3448H19.4215L20.4883 38.0399H24.4261L16.88 27.1158H12.597V27.1001ZM13.5854 34.116L15.7504 30.5374L18.0095 34.116H13.5854Z" fill="#171823"/>
<path d="M50.359 0.746652C47.8332 0.71526 45.4956 1.56282 43.6287 3.00682C41.8402 1.6413 39.6282 0.809435 37.2122 0.778043C34.6863 0.746652 32.333 1.59422 30.4818 3.02252C28.6933 1.657 26.4813 0.825131 24.0496 0.793739C21.5394 0.746653 19.2176 1.59422 17.3506 3.00682C15.5778 1.6413 13.3658 0.840826 10.9654 0.793739C5.00385 0.715261 0.0933723 5.51812 -0.000758147 11.4668C-0.0792002 17.4311 4.70577 22.3438 10.6674 22.4223C13.1775 22.4537 15.5151 21.6218 17.3663 20.1935C19.1391 21.559 21.3669 22.3752 23.7672 22.4066C26.293 22.438 28.6306 21.6061 30.4975 20.1621C32.286 21.5276 34.4981 22.3752 36.9141 22.3909C39.4399 22.438 41.7775 21.5747 43.6444 20.1464C45.4172 21.5119 47.6449 22.3438 50.0609 22.3752C56.0225 22.4537 60.933 17.6665 61.0271 11.7022C61.1056 5.73785 56.3049 0.825131 50.359 0.730957M50.0923 21.1352C47.5979 21.1039 45.3387 20.115 43.6444 18.5298C41.7932 20.2092 39.534 21.198 36.9454 21.1509C34.451 21.1195 32.1919 20.1307 30.5132 18.5455C28.709 20.2249 26.2616 21.198 23.7829 21.1666C21.3982 21.1352 19.092 20.1935 17.3663 18.5926C17.0996 18.8437 16.7701 19.1105 16.4093 19.3616C14.7934 20.5388 12.8167 21.2137 10.6674 21.1823C6.76095 21.1352 3.40363 18.7181 1.97598 15.3122C1.59946 15.2808 1.27001 15.218 0.987619 15.1238C0.579721 13.978 0.360084 12.7381 0.375772 11.4511C0.454214 5.87911 4.9254 1.35878 10.432 1.17043C10.5732 1.39017 10.7458 1.67269 10.887 2.018H10.9341C13.3971 2.06508 15.7504 3.03821 17.5075 4.76473L17.4291 3.41491C19.1234 2.06508 21.2414 1.24891 23.5475 1.17043C23.626 1.296 23.8456 1.59421 24.0339 2.018C26.4499 2.04939 28.913 3.11669 30.6073 4.74903L30.5289 3.46199C32.2232 2.08078 34.3568 1.23322 36.6787 1.17043C36.8356 1.39017 36.9925 1.67269 37.1337 2.0023H37.1808C39.6125 2.03369 42.0285 3.14808 43.7699 4.79612L43.6758 3.4306C45.3858 2.06508 47.5194 1.21752 49.8256 1.12335C49.9041 1.24891 50.2649 1.97091 50.3277 1.97091C55.4735 2.20634 59.5681 5.29838 59.7878 11.6865C59.9447 16.9602 55.348 21.198 50.0766 21.1352" fill="#171823"/>
<path d="M14.1033 15.1398C13.6797 13.994 13.4601 12.7541 13.4915 11.467C13.5228 9.0813 14.3543 6.89961 15.7349 5.1574C16.2683 5.1574 16.8017 5.12601 17.1155 5.12601C15.4682 3.52506 13.2718 2.59901 10.9499 2.56762C5.96102 2.50484 1.85065 6.50722 1.78789 11.4827C1.74083 15.8304 4.76869 19.5032 8.84768 20.4292C8.98887 20.2566 9.14576 20.0682 9.30264 19.8642C9.75761 19.9427 10.244 19.9897 10.7303 20.0054C12.6286 20.0368 14.37 19.4247 15.8761 18.3103L17.1312 18.3417C16.284 17.4785 15.5937 16.4582 15.1074 15.3125C14.7308 15.2811 14.4171 15.2183 14.1347 15.1398M10.7303 19.5817C6.33754 19.5189 2.82333 15.9089 2.8704 11.5141C2.93315 7.13505 6.55718 3.60353 10.9499 3.65062C12.5815 3.66632 14.0876 4.18427 15.3427 5.04753C13.9778 6.83683 13.1463 9.04991 13.1306 11.467C13.0992 13.9783 13.9307 16.317 15.3427 18.1691C14.37 18.8126 12.7227 19.6131 10.7303 19.5817Z" fill="#171823"/>
<path d="M18.7941 9.03542C18.9666 8.59595 19.2804 8.34482 19.2804 8.34482C18.9823 7.29321 18.1352 6.19452 17.3664 5.39404C15.8603 6.99499 14.919 9.1139 14.8563 11.4839C14.8092 13.0849 15.4211 15.6119 16.6448 17.0245C16.8801 17.2913 17.0527 17.5895 17.3821 17.872L17.4135 16.7263C18.5744 15.3451 19.1706 13.5558 19.202 11.7351C19.202 10.7933 19.0765 9.88299 18.7941 9.03542ZM17.3664 16.1455C16.4565 14.8271 15.9231 13.2262 15.9388 11.5153C15.9545 9.86729 16.4722 8.36051 17.3507 7.10486C18.2607 8.4233 18.7941 10.0242 18.7627 11.7508C18.747 13.3831 18.2293 14.9056 17.3507 16.1612" fill="#171823"/>
<path d="M31.8936 9.01917C32.0661 8.564 32.3799 8.32856 32.3799 8.32856C32.1289 7.43391 31.219 6.13118 30.4973 5.40918C28.9912 6.99444 28.0656 9.12904 28.0342 11.4834C28.0028 13.9476 28.9598 16.1921 30.5443 17.8558L30.5757 16.7885C31.5484 15.2189 32.2858 13.7122 32.3014 11.7345C32.3014 10.7928 32.1759 9.88243 31.8936 9.03487M30.4973 16.0979C29.603 14.7952 29.0853 13.1942 29.1167 11.4991C29.1481 9.88243 29.6501 8.37565 30.4973 7.1357C31.3758 8.43843 31.8935 10.0394 31.8778 11.7188C31.8465 13.3355 31.3445 14.8422 30.4973 16.0979Z" fill="#171823"/>
<path d="M40.397 15.1085C39.9734 13.9627 39.7695 12.7228 39.7852 11.4357C39.8166 9.05001 40.6637 6.86832 42.0286 5.12611H43.3778C41.6992 3.54085 39.5499 2.58342 37.1809 2.55203C34.7335 2.52064 32.4901 3.46238 30.8428 5.03194C32.5528 6.82124 33.5098 9.25405 33.4628 11.734C33.4314 14.104 32.4901 16.474 30.8742 18.1849C32.0194 19.2678 33.4627 20.0526 35.063 20.4136C35.2042 20.2253 35.3611 20.0369 35.5179 19.8486C35.9729 19.9271 36.4592 19.9742 36.9456 19.9898C39.0007 20.0212 40.7265 19.2678 42.1855 18.279L43.3308 18.2476C42.515 17.4001 41.8404 16.3956 41.3697 15.2812C40.9932 15.2498 40.6794 15.187 40.397 15.1085ZM36.9613 19.5504C35.314 19.519 33.7922 19.0167 32.5214 18.1378C33.8706 16.3642 34.6864 14.1511 34.7178 11.7497C34.7649 9.23836 33.9177 6.9311 32.5058 5.06333C33.8393 4.13729 35.4395 3.60364 37.1809 3.61933C38.8125 3.65072 40.3499 4.16868 41.605 5.04763C40.2558 6.82124 39.44 9.03432 39.4087 11.4357C39.3773 13.9313 40.2088 16.27 41.6207 18.1221C40.648 18.7656 38.9851 19.5818 36.9613 19.5504Z" fill="#171823"/>
<path d="M58.6898 8.29724C57.9681 5.73886 54.3441 2.52126 50.3279 2.52126C47.8805 2.48987 45.6527 3.4473 43.9897 5.00116C45.6998 6.79046 46.6568 9.23898 46.6411 11.7189C46.6097 14.0261 45.6684 16.506 44.0211 18.1698C45.1821 19.2371 46.6097 20.0219 48.2099 20.3829C48.3511 20.2102 48.508 20.0219 48.6649 19.8178C49.1198 19.912 49.6062 19.9591 50.0925 19.9591C54.7206 20.0219 58.5329 16.302 58.6114 11.6875C58.6114 10.7301 58.4701 9.83541 58.1878 8.98785C58.3603 8.54837 58.6898 8.29724 58.6898 8.29724ZM50.1082 19.5353C48.461 19.5196 46.9392 19.0016 45.6841 18.1227C47.049 16.3491 47.8491 14.136 47.8805 11.7346C47.9118 9.22328 47.0804 6.90033 45.6684 5.04825C46.9862 4.12221 48.5865 3.58856 50.3279 3.60425C54.7049 3.66704 58.2348 7.29272 58.1878 11.6875C58.125 16.0666 54.501 19.5981 50.1082 19.5353Z" fill="#171823"/>
<path d="M45.0406 9.00361C45.2289 8.54844 45.527 8.31301 45.527 8.31301C45.2446 7.2771 44.3974 6.16271 43.613 5.37793C42.1226 6.96319 41.197 9.09779 41.1499 11.4521C41.1185 13.9477 42.0912 16.2079 43.7071 17.8716V16.7729C44.8838 15.1877 45.4015 13.7908 45.4485 11.7033C45.4485 10.7615 45.323 9.85118 45.0249 9.00361M43.6287 16.0823C42.7188 14.7796 42.2167 13.1786 42.2324 11.4678C42.2481 9.85118 42.7658 8.3444 43.613 7.10445C44.5229 8.40718 45.0406 10.0081 45.0249 11.7033C44.9936 13.3356 44.4915 14.8424 43.6287 16.0823Z" fill="#171823"/>
<path d="M27.2501 15.1393C26.8422 13.9935 26.6226 12.7535 26.6382 11.4665C26.6696 9.09647 27.5168 6.89908 28.8817 5.15687L30.1838 5.12548C28.4738 3.54023 26.4343 2.61418 24.034 2.58279C21.6023 2.5514 19.3902 3.49314 17.7429 5.047C19.453 6.86769 20.4256 9.15925 20.3943 11.7647C20.3629 14.1818 19.3902 16.5048 17.7429 18.247C18.8882 19.33 20.3786 20.0991 21.9317 20.4444C22.0729 20.256 22.2141 20.0677 22.3867 19.8637C22.8416 19.9578 23.328 20.0049 23.8143 20.0049C25.5087 20.0363 27.7207 19.4556 29.0072 18.2784H30.2152C29.3837 17.4308 28.7091 16.4106 28.2541 15.2962C27.8776 15.2648 27.5482 15.2021 27.2658 15.1236M23.8143 19.5654C22.1827 19.5497 20.6766 19.0475 19.4216 18.1685C20.7865 16.3792 21.6179 14.1661 21.6493 11.7647C21.6807 9.23773 20.8335 6.91478 19.4216 5.047C20.7394 4.13666 22.3396 3.6187 24.034 3.6344C25.6812 3.66579 27.203 4.18374 28.4738 5.0627C27.1246 6.8363 26.3088 9.04938 26.2774 11.4508C26.246 13.9464 27.0618 16.2694 28.4738 18.1214C27.5011 18.765 25.8381 19.5968 23.8143 19.5654Z" fill="#171823"/>
</svg>
