<svg width="57" height="58" viewBox="0 0 57 58" fill="none" xmlns="http://www.w3.org/2000/svg">
<path d="M28.4998 0.973633C12.794 0.973633 -0.000244141 13.7532 -0.000244141 29.4867C-0.000244141 45.2202 12.7735 57.9999 28.4998 57.9999C44.2261 57.9999 56.9998 45.2202 56.9998 29.4867C56.9998 13.7532 44.2261 0.973633 28.4998 0.973633ZM28.4998 57.1998C13.2246 57.1998 0.799396 44.7689 0.799396 29.4867C0.799396 14.2045 13.2246 1.77364 28.4998 1.77364C43.775 1.77364 56.2002 14.2045 56.2002 29.4867C56.2002 44.7689 43.775 57.1998 28.4998 57.1998Z" fill="#171823"/>
<path d="M12.261 18.2857C12.261 18.2857 12.3225 18.3268 12.343 18.3473C12.343 18.3473 12.3635 18.3473 12.3635 18.3268C12.9171 17.6293 13.4707 16.9319 14.0243 16.2344C14.2293 15.9883 14.4344 15.7216 14.6394 15.4755C14.8444 15.2293 14.8854 14.8806 14.7624 14.5934C14.5984 14.2857 14.3113 14.0806 13.9423 14.0806C13.6552 14.0806 13.4297 14.2447 13.2451 14.4703C12.9991 14.778 12.7531 15.0857 12.507 15.3934C11.9944 16.0293 11.5023 16.6447 11.0103 17.2806C11.2768 17.4857 11.5228 17.6909 11.7894 17.9165C11.9534 18.0396 12.0969 18.1627 12.2405 18.2857" fill="#171823"/>
<path d="M28.4998 2.24463C13.4707 2.24463 1.2915 14.4294 1.2915 29.4654C1.2915 44.5015 13.4707 56.6862 28.4998 56.6862C43.529 56.6862 55.7081 44.5015 55.7081 29.4654C55.7081 14.4294 43.529 2.24463 28.4998 2.24463ZM24.112 3.94721L26.6545 3.66003L28.4998 9.05496L30.3451 3.66003L32.8876 3.94721L33.1746 11.5986L31.1858 11.3114L31.0012 6.20364L29.2174 11.3114H27.8027L25.9984 6.20364L25.8138 11.3114L23.825 11.5986L24.112 3.94721ZM6.93 16.5627C6.72496 16.3986 6.51993 16.2345 6.31489 16.0704L6.25338 16.0089C6.29439 15.9678 6.31489 15.9268 6.3559 15.8858C6.88899 15.2294 7.40159 14.573 7.93468 13.896C8.54979 13.137 9.16489 12.3576 9.78 11.5781C9.90302 11.4345 10.0055 11.2909 10.1286 11.1268C10.3336 10.8601 10.6207 10.6755 10.9282 10.5524C11.5843 10.3062 12.343 10.4704 12.8555 10.9627C13.1016 11.2088 13.2861 11.5165 13.3681 11.8447C13.4501 12.1934 13.4297 12.5217 13.3271 12.8704C13.3681 12.8294 13.4091 12.7883 13.4707 12.7473C14.0653 12.337 14.8444 12.214 15.521 12.5217C16.1976 12.8294 16.6282 13.4447 16.7307 14.1627C16.7512 14.4294 16.7307 14.7165 16.6692 14.9832C16.5052 15.496 16.1566 15.8858 15.8286 16.2755C15.193 17.0755 14.5573 17.855 13.9217 18.6551C13.3886 19.3115 12.8555 19.9679 12.343 20.6243C12.3019 20.6858 12.2609 20.7269 12.2199 20.7679C12.2199 20.7679 12.1789 20.7269 12.1584 20.7269C11.9739 20.5628 11.7689 20.4192 11.5638 20.2551C10.7847 19.6397 10.026 19.0243 9.24691 18.4089C8.46777 17.7935 7.68864 17.1576 6.9095 16.5422M28.4793 46.4707C19.0886 46.4707 11.4818 38.8604 11.4818 29.4449C11.4818 20.0294 19.0886 12.4396 28.4793 12.4396C37.87 12.4396 45.4768 20.0499 45.4768 29.4449C45.4768 38.8399 37.87 46.4707 28.4793 46.4707ZM44.6772 20.6653L43.693 18.9833L47.0556 14.573L42.0117 16.8909L40.5969 15.5781L45.1897 9.52675L46.6045 10.8396L43.939 14.3268L48.1833 12.3781L49.434 13.9371L46.6045 17.6499L50.5822 15.8243L51.5664 17.5063L44.6567 20.6858L44.6772 20.6653Z" fill="#171823"/>
<path d="M12.1995 13.4251C12.261 13.138 12.1995 12.8508 11.9945 12.6457C11.7484 12.379 11.3794 12.2969 11.0308 12.4405C10.7848 12.5431 10.6412 12.7482 10.4977 12.9533C9.8826 13.6918 9.3085 14.4508 8.69339 15.1893C8.69339 15.1893 8.54986 15.3534 8.57036 15.3534C8.69339 15.4559 8.81641 15.538 8.93943 15.6406C9.26749 15.9072 9.57505 16.1534 9.8826 16.42C10.2107 16.0303 10.5182 15.6406 10.8258 15.2303C11.1538 14.8405 11.4614 14.4508 11.7689 14.061C11.9125 13.8559 12.097 13.6918 12.179 13.4457" fill="#171823"/>
<path d="M12.3633 29.466H28.5201V13.3223C19.7036 13.5479 12.6093 20.6659 12.3633 29.466Z" fill="#171823"/>
<path d="M28.4995 45.6301C37.3161 45.4044 44.4103 38.2864 44.6564 29.4658H28.4995V45.6301Z" fill="#171823"/>
</svg>
