<svg width="58" height="41" viewBox="0 0 58 41" fill="none" xmlns="http://www.w3.org/2000/svg">
<path d="M45.3153 29.9427C45.3964 30.0239 45.5181 30.1186 45.748 30.0916C46.0726 30.051 46.0861 29.5639 46.0861 29.5639C46.0861 29.5639 46.1672 28.441 46.1672 27.3181C46.1672 25.8975 45.0583 24.6528 45.0583 24.6528C45.0583 24.6528 33.5368 11.9624 29.4934 11.9624C25.45 11.9624 13.9419 24.6528 13.9419 24.6528C13.9419 24.6528 12.833 25.8975 12.833 27.3181C12.833 28.441 12.9141 29.5639 12.9141 29.5639C12.9141 29.5639 12.9141 30.051 13.2522 30.0916C13.4686 30.1186 13.5903 30.0239 13.685 29.9427C14.9697 28.8198 25.2471 19.9988 29.5069 19.9988C33.7666 19.9988 44.0442 28.8198 45.3424 29.9427" fill="#171823"/>
<path d="M13.2252 18.4025C13.4416 18.4295 13.5632 18.3348 13.6579 18.2536C14.9426 17.1307 25.2201 8.30965 29.4798 8.30965C33.7396 8.30965 44.0171 17.1442 45.3018 18.2536C45.3965 18.3348 45.5181 18.4295 45.7345 18.4025C46.0591 18.3754 46.0726 17.8748 46.0726 17.8748C46.0726 17.8748 46.1537 16.7519 46.1537 15.629C46.1537 14.2084 45.0449 12.9637 45.0449 12.9637C45.0449 12.9637 33.5232 0.259766 29.4934 0.259766C25.4635 0.259766 13.9419 12.9637 13.9419 12.9637C13.9419 12.9637 12.833 14.2084 12.833 15.629C12.833 16.7654 12.9141 17.8748 12.9141 17.8748C12.9141 17.8748 12.9141 18.3754 13.2522 18.4025" fill="#171823"/>
<path d="M38.0265 35.2195C36.6201 35.1789 35.2002 35.2195 35.1867 35.2195C33.4693 35.2195 32.0764 36.3965 32.0764 37.8577C32.0764 39.3188 33.4693 40.5364 35.1867 40.5364C35.2002 40.5364 36.6201 40.5635 38.0265 40.5364C39.744 40.5364 41.1368 39.3323 41.1368 37.8577C41.1368 36.41 39.771 35.2465 38.0265 35.2195ZM37.0664 39.8059C37.0664 39.8059 36.5525 39.8194 36.1604 39.8059C35.1867 39.8059 34.1184 39.0618 34.1184 37.8577C34.1184 36.6535 35.1597 35.95 36.1604 35.95C36.1604 35.95 36.6607 35.923 37.0664 35.95C38.0671 35.95 39.1219 36.6671 39.1219 37.8577C39.1219 39.0482 38.0536 39.8059 37.0664 39.8059Z" fill="#171823"/>
<path d="M54.9709 35.2867H50.5488C50.4812 35.2867 50.3054 35.3003 50.3054 35.4761V40.279C50.3054 40.4143 50.4001 40.482 50.4948 40.482H52.3339V36.4638C52.3339 36.2879 52.4691 36.1932 52.6044 36.1932H54.6463C55.2143 36.1932 56.0392 36.6938 56.0392 37.8032V40.2655C56.0392 40.2655 56.0392 40.4684 56.2555 40.4684H58V37.9249C58 36.4367 56.6748 35.2732 54.9844 35.2732" fill="#171823"/>
<path d="M21.9341 35.2871H14.3476C14.2259 35.2871 14.1448 35.3818 14.1448 35.49V36.3153H15.9704C16.6465 36.3153 17.1063 36.8971 17.1063 37.4518V40.2929C17.1063 40.3876 17.1875 40.4959 17.3092 40.4959H19.1483V36.5994C19.1483 36.4506 19.27 36.3289 19.4187 36.3289H22.1369V35.5036C22.1369 35.3953 22.0558 35.3006 21.9341 35.3006" fill="#171823"/>
<path d="M12.8601 35.2871H11.2238C11.1156 35.2871 11.021 35.3818 11.021 35.4765V40.2794C11.021 40.4012 11.1292 40.4823 11.2238 40.4823H13.0629V35.49C13.0629 35.3818 12.9683 35.3006 12.8601 35.3006" fill="#171823"/>
<path d="M29.737 38.5743C30.643 38.3579 31.238 37.7085 31.238 36.9508C31.238 36.1391 30.4537 35.2732 29.1825 35.2732H24.2872C23.6922 35.2732 23.2324 35.7332 23.2324 36.3285V40.2655C23.2324 40.3737 23.3135 40.4684 23.4217 40.4684H25.2609V38.6284H27.0054C28.547 38.6284 29.1825 39.7514 29.2231 40.4684H31.2516C31.1975 39.1155 29.7505 38.5743 29.7505 38.5743M28.4658 37.7085H25.2744V36.6667C25.2744 36.3826 25.4772 36.1797 25.7612 36.1797H28.4658C28.8715 36.1797 29.2231 36.5179 29.2231 36.9373C29.2231 37.3567 28.885 37.7085 28.4523 37.7085" fill="#171823"/>
<path d="M5.07086 35.9362C5.17905 35.9362 5.5847 35.9091 5.96335 35.9362C6.69359 35.9362 7.39681 36.3285 7.76193 36.9238C7.76193 36.9509 7.82954 37.0185 7.9242 37.0185H9.91209C9.49287 35.9362 8.23524 35.165 6.92351 35.165C6.20679 35.165 4.92209 35.1244 4.08367 35.165C3.11001 35.2191 2.50148 35.4356 1.89294 35.9632C1.29793 36.4773 0.973389 37.1538 0.973389 37.8709C0.973389 39.3591 2.29863 40.5226 4.0431 40.5767C5.24665 40.6173 5.36835 40.6173 6.95054 40.5767C8.41103 40.5361 9.45229 39.8732 9.89855 38.7232H7.91066C7.84305 38.7232 7.77544 38.7638 7.74839 38.8179C7.38327 39.4402 6.70713 39.8055 5.97688 39.8191C5.71994 39.8191 5.36836 39.8191 5.05733 39.8191C4.02958 39.8055 3.00184 39.0885 3.00184 37.8573C3.00184 36.6262 4.0431 35.9226 5.05733 35.9226" fill="#171823"/>
<path d="M44.1526 39.278V38.2904H48.3042V37.3704H44.139V36.4775C44.139 36.4775 44.1391 36.2069 44.4501 36.2069H49.2237V35.4763C49.2237 35.2598 48.9938 35.2734 48.9938 35.2734H42.3134C42.3134 35.2734 42.1106 35.2734 42.1106 35.4763V39.4133C42.1106 39.941 42.5163 40.4686 43.1789 40.4686H49.0209C49.1696 40.4686 49.2237 40.3198 49.2237 40.2792V39.5486H44.423C44.2607 39.5486 44.1526 39.4404 44.1526 39.278Z" fill="#171823"/>
<path d="M45.2071 33.4063C45.0042 33.2981 44.7743 33.2305 44.5039 33.2305C44.2334 33.2305 43.99 33.2981 43.8007 33.4063C43.6114 33.5146 43.5032 33.6634 43.5032 33.8393C43.5032 34.0152 43.5978 34.1505 43.8007 34.2722C43.99 34.394 44.2334 34.4481 44.5039 34.4481C44.7743 34.4481 45.0178 34.394 45.1936 34.2857C45.3694 34.1775 45.5587 34.0016 45.7615 34.0016C45.9644 34.0016 46.1402 34.164 46.316 34.2722C46.4918 34.3804 46.7487 34.4481 47.0192 34.4481C47.3032 34.4481 47.5466 34.3804 47.7359 34.2722C47.9252 34.1505 48.0199 34.0016 48.0199 33.8393C48.0199 33.6769 47.9252 33.5281 47.7224 33.4063C47.533 33.2846 47.2896 33.2305 47.0192 33.2305C46.7487 33.2305 46.4918 33.2981 46.316 33.4063C46.1267 33.5146 45.9779 33.6769 45.7615 33.6769C45.5452 33.6769 45.4099 33.5146 45.2071 33.4063Z" fill="#171823"/>
</svg>
