<svg width="61" height="64" viewBox="0 0 61 64" fill="none" xmlns="http://www.w3.org/2000/svg">
<path fill-rule="evenodd" clip-rule="evenodd" d="M28.9598 3.97365C28.703 4.39795 28.6897 4.46085 28.8219 4.6288C29.1131 4.99892 28.8057 5.11299 28.0663 4.90917C27.4325 4.73446 27.0554 4.65902 26.8337 4.6626C26.6739 4.66518 26.0904 4.76077 26.0375 4.79304C26.03 4.79756 26.0444 4.86052 26.0694 4.93297L26.1147 5.0647L26.2777 5.05809C26.4872 5.0496 26.541 5.06231 26.5328 5.11845C26.5247 5.17355 26.4412 5.19111 26.2862 5.17032C26.1643 5.15399 25.9335 5.19179 25.6744 5.27056C25.609 5.29043 25.4999 5.31251 25.432 5.31959C25.3189 5.33141 25.3052 5.33802 25.2668 5.3993L25.225 5.46609L25.2749 5.55024C25.3491 5.6752 25.4711 5.70057 25.6595 5.63025C25.7331 5.60281 25.8245 5.57206 25.8626 5.56191C25.9645 5.53482 26.3477 5.56019 26.4869 5.60324C26.5523 5.62346 26.6926 5.66143 26.7987 5.6876C27.0303 5.74469 27.4632 5.93005 27.4792 5.97891C27.4963 6.03145 27.4794 6.04434 27.3159 6.10317C27.2322 6.13331 27.0996 6.19931 27.0211 6.24983C26.9427 6.30037 26.7904 6.38817 26.6827 6.44493C26.575 6.50171 26.3754 6.62503 26.2392 6.71897C26.0708 6.83502 25.9026 6.92978 25.714 7.01465C25.5614 7.08334 25.3528 7.19522 25.2505 7.2633C24.8307 7.54263 24.5244 7.63422 23.9601 7.64919C23.3669 7.66491 23.3576 7.67 23.2232 8.0533C23.1787 8.18024 23.1052 8.31351 22.9998 8.45821C22.9646 8.50662 22.8839 8.63424 22.8207 8.74182C22.7574 8.84939 22.6713 8.98036 22.6293 9.03288C22.5438 9.13987 22.5483 9.10511 22.5528 9.62198L22.5553 9.91537L22.6364 9.99734C22.7694 10.1318 22.9257 10.2032 23.0527 10.1877C23.2187 10.1675 23.7583 10.0098 24.0228 9.9043C24.3509 9.77335 24.4606 9.77816 24.4226 9.92174C24.4056 9.98582 24.008 10.1529 23.6021 10.2666C23.3171 10.3463 23.2195 10.5545 23.3989 10.6996L23.4889 10.7724L23.8285 10.7812C24.2445 10.7919 24.393 10.7613 24.7012 10.6011C24.9422 10.4759 25.3063 10.3911 25.4167 10.4346C25.4494 10.4475 25.5893 10.4599 25.7275 10.4623C25.976 10.4665 25.98 10.4673 26.0953 10.5351C26.1914 10.5916 26.2395 10.6061 26.3692 10.6176C26.4558 10.6253 26.6263 10.6614 26.7483 10.6978C27.0377 10.7842 27.1601 10.7962 27.3589 10.7576C27.5573 10.719 27.8846 10.7342 28.0348 10.7888C28.2545 10.8686 28.2538 11.1483 28.0326 11.7833C27.982 11.9285 27.8886 12.1969 27.8252 12.3798C27.5101 13.2879 27.367 13.5626 26.9238 14.1108C26.8151 14.2453 26.6294 14.4873 26.511 14.6487C26.2654 14.9837 26.0317 15.2272 25.6347 15.5619C25.3642 15.79 25.0303 16.1242 25.0303 16.167C25.0303 16.412 24.8076 16.7724 24.5387 16.9628C24.4548 17.0221 24.3238 17.1226 24.2475 17.186C24.0792 17.326 23.74 17.536 23.4032 17.7087C23.1401 17.8437 23.0442 17.9307 22.7817 18.2727C22.6373 18.4609 22.3006 18.636 22.1567 18.5979C22.0137 18.56 21.7854 18.4484 21.572 18.3122C21.463 18.2426 21.2445 18.1292 21.0865 18.0601C20.3497 17.7384 20.1419 17.6077 19.3579 16.9724L18.9869 16.6718L18.7411 16.5857C18.5172 16.5073 18.0545 16.4046 18.0193 16.4255C18.0113 16.4302 17.8895 16.4574 17.7485 16.486C17.3406 16.5687 16.7883 16.8955 16.7055 17.1034C16.5372 17.5259 16.4563 17.7548 16.391 17.9933C16.3498 18.1439 16.2823 18.3331 16.2409 18.4138C16.0847 18.719 16.0157 18.9716 16.0012 19.2915C15.9892 19.5584 15.9837 19.5887 15.9193 19.7438C15.8436 19.9261 15.7325 20.2875 15.6362 20.6648C15.5891 20.8497 15.5434 20.9678 15.4449 21.1598C15.2844 21.4724 15.1927 21.778 15.139 22.1789C15.0981 22.4846 15.0155 22.7244 14.8109 23.1317C14.7334 23.286 14.7141 23.5237 14.7075 24.4069C14.7044 24.831 14.6984 24.9155 14.6617 25.06C14.6225 25.2141 14.6213 25.239 14.6449 25.4084C14.6617 25.5291 14.6655 25.6655 14.6563 25.8118L14.6423 26.0329L14.7389 26.2517C14.8202 26.4358 14.8484 26.4797 14.9166 26.5285L14.9976 26.5864L15.1375 26.544C15.4691 26.4434 16.074 25.6993 16.2241 25.2075L16.2847 25.0088L16.1392 24.4349C15.7418 22.8684 15.7371 22.7978 15.9775 22.042C16.0895 21.6901 16.2159 21.4564 16.353 21.3476C16.3968 21.3129 16.4628 21.2379 16.4997 21.1811C16.5661 21.0786 16.5675 21.0777 16.6909 21.0636C16.8342 21.0472 16.8697 21.0263 17.1229 20.809C17.4666 20.5142 17.5867 20.2777 17.6392 19.7927C17.734 18.9167 18.1236 18.932 18.7451 19.8361C19.09 20.3378 19.6901 20.9012 20.0426 21.0541C20.3156 21.1725 20.337 21.3441 20.0711 21.2825C19.9919 21.2642 19.7978 21.2365 19.6398 21.221C19.4817 21.2055 19.3346 21.1883 19.3128 21.1827C19.291 21.1772 19.0413 21.1272 18.7579 21.0716L18.2426 20.9706L17.6964 20.9684L17.1502 20.9663L16.985 21.0641C16.0038 21.6449 15.76 22.5712 16.2079 24.0175C16.2878 24.2756 16.3738 24.605 16.4095 24.7901C16.4438 24.9676 16.5376 25.3725 16.6178 25.6898C16.6981 26.0072 16.7777 26.3724 16.7948 26.5015C16.8128 26.638 16.855 26.8263 16.8954 26.9514C16.9389 27.0859 16.99 27.3204 17.0318 27.5773C17.1254 28.1521 17.1504 28.2086 17.3979 28.407C17.7821 28.715 18.0189 29.0351 18.1948 29.4843C18.4498 30.1351 19.1983 30.8991 19.6177 30.9367C19.8648 30.9588 19.9612 30.9092 20.0454 30.7165C20.0759 30.6466 20.13 30.5399 20.1655 30.4794C20.327 30.2045 20.3811 29.4033 20.2567 29.13C20.2254 29.0613 20.1955 28.9593 20.1903 28.9033C20.1773 28.7635 20.0847 28.6159 19.8735 28.3984L19.7011 28.2208L19.3939 28.0894C19.225 28.0172 19.0605 27.9529 19.0285 27.9466C18.9613 27.9333 18.9367 27.81 18.949 27.5481L18.9553 27.4139L18.7678 27.1979C18.4658 26.8501 18.3608 26.5696 18.0942 25.399C18.0052 25.0084 17.9878 24.9555 17.8676 24.7096C17.7385 24.4454 17.7371 24.4407 17.6892 24.1155L17.6409 23.7877L17.7139 23.6008C17.8495 23.2534 18.0983 23.1806 18.3641 23.4103C18.5698 23.588 18.9281 23.7938 19.2137 23.8984C19.4925 24.0004 20.4037 24.4337 20.7931 24.6495L21.0646 24.7999L21.0706 24.946L21.0766 25.0921L21.3365 25.2421C21.5454 25.3627 21.6612 25.4136 21.9266 25.5018L22.2568 25.6116H22.8905C23.239 25.6116 23.5241 25.6151 23.5241 25.6193C23.5241 25.6236 23.4974 25.6918 23.4647 25.7709C23.3913 25.9486 23.3911 25.9369 23.4727 26.097C23.6274 26.4001 23.9241 26.8064 24.1255 26.9908C24.231 27.0875 24.4873 27.3491 24.695 27.5722C25.1655 28.0775 25.4538 28.3339 26.1181 28.8378C26.6728 29.2587 26.7097 29.2808 27.8147 29.8557C28.8352 30.3867 30.0909 31.3671 30.5676 32.005L30.8907 32.4374L30.9043 32.6147C30.9149 32.7534 30.9351 32.8361 30.9971 32.9945L31.0763 33.1969L31.2867 33.3468C31.5836 33.5582 31.8303 33.6554 32.0076 33.6306L32.133 33.6131L32.3669 33.3823L32.6009 33.1513L32.6338 32.9575C32.6646 32.7759 32.6764 32.7473 32.8192 32.5067C32.9992 32.2035 33.0262 32.0857 33.0972 31.2935C33.1269 30.9617 33.1644 30.8695 33.2967 30.8034C33.502 30.7007 33.6008 30.764 33.4657 30.9116C33.4291 30.9516 33.3831 31.0275 33.3636 31.0802C33.344 31.133 33.2937 31.2589 33.2518 31.3602C33.1901 31.509 33.1755 31.5686 33.1755 31.672C33.1755 31.9254 33.1325 32.3517 33.0938 32.4825C33.0517 32.6247 33.039 32.6479 32.6704 33.2592C32.1165 34.1776 32.0402 34.3826 31.9281 35.2536L31.874 35.6734L31.9198 36.0946C32.0105 36.9306 32.0283 36.9788 32.9019 38.7553C33.1563 39.2726 33.4491 39.7324 33.7788 40.1325C34.1205 40.5471 34.1637 40.642 34.0963 40.831C33.9823 41.1505 33.2863 42.0486 32.5006 42.89C31.9105 43.522 31.9022 43.5287 31.5194 43.6743C31.2241 43.7866 31.0644 43.9247 30.9323 44.1819C30.8513 44.3395 30.6359 44.6176 30.4013 44.8673C30.3304 44.9427 30.1466 45.1365 29.9927 45.2979C29.4865 45.8288 29.1477 46.601 29.1861 47.1364L29.1987 47.3124L29.3074 47.4249L29.4161 47.5374L29.8144 47.5367C30.3702 47.5359 30.4306 47.5258 30.6493 47.3977C30.7478 47.34 30.9192 47.2533 31.0303 47.2049C31.2139 47.1248 31.235 47.1102 31.2623 47.0435C31.2875 46.9823 31.302 46.9702 31.3502 46.9702C31.5178 46.9702 31.8701 46.7261 31.895 46.5927C31.9014 46.5583 31.9291 46.3791 31.9565 46.1945L32.0063 45.859L31.9637 45.7492C31.9135 45.6196 31.9194 45.609 32.0264 45.6358C32.1402 45.6643 32.424 45.4825 32.5869 45.2767C32.9624 44.8024 33.1247 44.503 33.1497 44.238C33.1639 44.0883 33.2023 44.0504 33.5124 43.8802C33.7942 43.7255 33.8019 43.7183 33.9073 43.5111C33.999 43.3307 34.0193 43.3068 34.3577 42.98C35.0107 42.3496 35.2899 42.1361 35.84 41.847C36.091 41.7151 36.2547 41.5844 36.2766 41.4983C36.2839 41.4695 36.3205 41.4048 36.3579 41.3545L36.426 41.263L36.3843 41.168C36.3555 41.1023 36.3375 41.0039 36.3259 40.8482C36.2907 40.3752 36.1737 40.1002 35.8255 39.6713C35.4662 39.2288 35.4235 38.9017 35.6328 38.1936C35.8012 37.6237 35.8334 37.5752 36.1879 37.3575C36.7007 37.0424 37.5523 36.2865 38.1057 35.6552C38.2472 35.4938 38.4265 35.2914 38.5043 35.2053C38.7903 34.8888 39.3428 33.8388 39.4939 33.3247C39.5722 33.0581 39.5911 32.9366 39.6362 32.4084C39.685 31.8372 40.0408 31.9428 40.0937 32.5442C40.1032 32.6516 40.1208 32.8062 40.1329 32.8878C40.1504 33.0059 40.1484 33.0967 40.1234 33.3336C40.0475 34.053 40.1113 34.9664 40.2515 35.1676C40.4018 35.3832 40.5908 35.256 40.5201 34.987C40.4631 34.7703 40.4761 34.4343 40.5492 34.2367C40.5933 34.1174 40.6203 33.9889 40.6476 33.7684C40.7546 32.9036 40.8374 32.8015 40.978 33.3608L41.0482 33.6406L41.0268 33.9144C40.9893 34.395 40.9312 34.6907 40.8346 34.8924C40.7883 34.9892 40.6599 35.2575 40.5494 35.4887C40.1527 36.3182 40.0788 36.763 40.2544 37.2639L40.3178 37.4449L40.4576 37.4441L40.5974 37.4433L40.6631 37.3552L40.7288 37.267L40.6883 37.1457C40.666 37.0789 40.6424 36.9759 40.636 36.9168L40.6242 36.8092L40.8148 36.5549C40.9196 36.4151 41.0483 36.2214 41.1009 36.1246C41.1536 36.0278 41.2724 35.8296 41.365 35.6842C41.7236 35.1213 41.8164 34.9376 41.8786 34.6675C42.0052 34.1179 42.0596 33.7262 42.0689 33.2974L42.0777 32.8955L42.0043 32.6324C41.9191 32.3268 41.9268 32.3433 41.7638 32.1209C41.4838 31.739 41.652 31.5966 41.9395 31.9721C42.2338 32.3565 42.3378 32.6745 42.4021 33.3863C42.437 33.7722 42.5191 34.0903 42.6555 34.3679C42.6915 34.4412 42.7515 34.5693 42.7888 34.6526C42.8552 34.8009 42.9318 34.8631 43.048 34.8631C43.141 34.8631 43.1559 34.6648 43.0809 34.4272L43.0177 34.2274L43.0191 33.7775C43.0203 33.3872 43.0273 33.2875 43.0722 33.0245C43.1837 32.3712 43.1289 32.1288 42.7195 31.4624C42.5768 31.2301 42.5844 31.2026 42.805 31.1543C43.1274 31.0838 43.753 30.7584 44.0416 30.5111C44.6034 30.03 45.2912 28.835 45.3418 28.2521C45.3535 28.1176 45.3717 27.9196 45.3821 27.812C45.4458 27.1581 45.3866 26.3037 45.2257 25.5529C44.8038 23.5848 44.874 22.851 45.5905 21.7435C46.0171 21.084 46.053 20.7513 45.716 20.5829C45.5598 20.5048 45.5618 20.5034 45.5618 20.6888C45.5618 20.8436 45.559 20.8541 45.5029 20.9071C45.4705 20.9377 45.3839 21.0526 45.3104 21.1624C45.2279 21.2857 45.1491 21.3798 45.104 21.4086C44.9152 21.5296 44.4953 22.0984 44.3522 22.4274L44.2696 22.6172L44.185 22.6297C44.1055 22.6415 44.0537 22.6265 43.9627 22.5655C43.8965 22.5212 43.832 22.0921 43.8465 21.7927C43.8782 21.1359 43.9252 21.0253 44.5953 20.0318C44.8726 19.6206 44.9913 19.4231 45.1476 19.1131L45.3465 18.7183L45.3745 18.434C45.4019 18.154 45.3701 17.9053 45.3067 17.9053C45.2466 17.9053 45.119 18.0906 45.0305 18.3066C44.8669 18.7054 44.678 18.9862 44.4484 19.172C44.0818 19.4684 43.7528 19.7928 43.3677 20.2377C42.9901 20.6739 42.9631 20.6991 42.9095 20.6656C42.82 20.6096 42.8399 19.7441 42.938 19.4273C42.9657 19.3378 43.0152 19.1766 43.048 19.069C43.2653 18.3555 43.7568 17.6368 44.3856 17.1131C44.6521 16.8911 44.7217 16.8227 44.7531 16.7513L44.7919 16.6633L44.7281 16.6107L44.6644 16.5581L44.4847 16.6472C44.1485 16.8138 43.9219 16.9861 43.2074 17.6188C42.3221 18.4028 41.8506 19.463 41.8058 20.7707L41.7924 21.1619L41.8847 21.5531C42.0704 22.3402 42.1128 22.4916 42.3582 23.2449C42.5427 23.8109 42.5644 23.8953 42.6471 24.3696C42.6696 24.4987 42.7104 24.7275 42.7376 24.8781C43.01 26.3823 42.9997 27.1787 42.6961 28.0977L42.6081 28.3639L42.281 28.7725C41.9978 29.1261 41.9065 29.2239 41.6026 29.4993L41.2514 29.8174L40.8113 30.0611L40.3713 30.3047L40.0384 30.3246C39.8554 30.3356 39.6734 30.3446 39.6341 30.3447L39.5625 30.3449L39.5168 30.1737C39.4149 29.793 39.0611 29.2004 38.6124 28.6592C38.5439 28.5766 38.3946 28.3846 38.2808 28.2326C37.8308 27.6318 36.6933 26.6631 35.5141 25.8762C34.9436 25.4956 33.5254 24.354 33.3193 24.1097C32.6802 23.3516 32.5327 23.1495 32.0538 22.3752L31.5825 21.6131L31.4553 21.1626L31.3282 20.712L31.3588 20.4301C31.3839 20.199 31.3967 20.1412 31.4294 20.1088L31.4694 20.0693L31.6397 20.1812C31.7333 20.2427 31.9307 20.3496 32.0783 20.4188L32.3466 20.5446L32.5579 20.5331L32.7692 20.5216L33.017 20.634C33.3165 20.7698 33.7091 21.0004 33.9018 21.1539C34.3306 21.4953 34.4919 21.571 34.8118 21.5811C34.8546 21.5825 34.9809 21.3627 34.9531 21.3352C34.9345 21.3169 34.7572 21.3163 34.7192 21.3344C34.6521 21.3666 34.5259 21.2339 34.3413 20.9369C34.0324 20.44 33.6794 20.1694 33.2052 20.0661C33.0931 20.0417 33.0759 20.0344 33.0872 20.0163C33.1582 19.9029 33.679 20.0611 34.0567 20.3106C34.5078 20.6086 34.6166 20.6416 34.7097 20.5091L34.7661 20.4288L34.6892 20.3184C34.4212 19.9335 33.8735 19.5856 33.0269 19.2625C32.8089 19.1793 32.6063 19.0916 32.5768 19.0676L32.523 19.0239L32.5669 18.9951C32.6073 18.9684 32.6236 18.9726 32.7792 19.0496C32.9279 19.1232 32.9863 19.1393 33.2747 19.1862C33.6324 19.2444 34.1373 19.4176 34.5697 19.6305C34.9984 19.8416 35.7012 19.867 36.0987 19.6859C36.5015 19.5023 36.7867 19.2766 36.8099 19.1228L36.8225 19.0397H36.7223C36.6316 19.0397 36.6134 19.0477 36.5289 19.1249C36.3128 19.3224 35.5238 19.4763 35.2514 19.3741C35.1589 19.3394 34.8977 19.115 34.7562 18.9487C34.6628 18.839 34.5413 18.7273 34.4101 18.6305L34.2079 18.4814L33.9259 18.4251C33.4736 18.3349 32.9374 18.1336 32.9378 18.0543C32.9379 18.0386 33.1561 18.0312 33.7057 18.0281C34.1562 18.0255 34.5368 18.0145 34.6266 18.0013L34.7796 17.9789L34.8762 18.0587C35.0959 18.2402 35.5424 18.2918 35.7239 18.1565C35.8481 18.0639 35.8469 18.0602 35.6751 18.0141C35.5129 17.9705 35.3033 17.839 35.1276 17.6707C35.0201 17.5677 34.9331 17.5091 34.7411 17.41L34.4934 17.2823L34.1466 17.239C33.6951 17.1827 33.6747 17.1755 33.7878 17.1121C33.9801 17.0043 34.3879 17.0555 34.7444 17.2321C34.8388 17.2789 35.035 17.3673 35.1804 17.4286L35.4447 17.54L35.7099 17.5492L35.9752 17.5585L36.1293 17.4843C36.2836 17.4101 36.2909 17.4025 36.3589 17.2455L36.3863 17.1823L36.2687 17.1237C36.1659 17.0725 36.1229 17.0636 35.9267 17.0532C35.5797 17.0347 35.374 16.9622 35.1672 16.7851C34.9319 16.5837 34.7157 16.4824 34.4042 16.4279C33.9387 16.3463 33.5924 16.171 33.6373 16.0396C33.657 15.9818 34.1323 16.1183 34.2717 16.2219C34.3988 16.3163 34.6868 16.3607 34.7083 16.2891C34.7568 16.1268 34.7549 16.1219 34.5956 15.9987C34.466 15.8985 34.3861 15.8043 34.4104 15.7803C34.4415 15.7496 34.6966 15.8195 34.8736 15.9072C35.0566 15.9978 35.0905 16.0076 35.2885 16.0279C35.4071 16.0401 35.5113 16.0603 35.5201 16.073C35.5289 16.0857 35.5713 16.1593 35.6142 16.2365C35.7077 16.4048 36.1313 16.6891 36.2527 16.6651C36.3169 16.6525 36.5248 16.5353 36.5248 16.5117C36.5248 16.4323 36.4319 16.3584 36.3391 16.364L36.2425 16.3699L36.0068 16.0178C35.6695 15.5142 35.3594 15.2363 34.9227 15.0462L34.6385 14.9225L34.3777 14.6165C34.131 14.3271 34.1081 14.306 33.954 14.2254C33.7489 14.118 33.7017 13.978 33.8696 13.9745C33.9375 13.9731 34.5556 14.139 34.907 14.253L35.1621 14.3357L35.2633 14.4787C35.4079 14.6831 35.6121 14.7926 35.8906 14.815C35.9941 14.8233 36.1368 14.8473 36.2077 14.8683C36.4358 14.9358 36.7325 14.8652 36.8812 14.708L36.9305 14.6558L36.8886 14.6229C36.8655 14.6048 36.8056 14.5561 36.7555 14.5147C36.6564 14.4327 36.4262 14.3625 36.168 14.3354C35.9193 14.3093 35.5997 13.97 35.514 13.6411C35.4823 13.5195 35.4676 13.4963 35.3627 13.4013C35.1269 13.1879 35.0799 13.1538 34.6817 12.9078C34.2794 12.6593 33.8097 12.2783 33.8097 12.2006C33.8097 12.1583 33.8178 12.1636 34.14 12.4164C34.3495 12.5807 34.551 12.7167 34.7682 12.8407C35.1474 13.057 35.3378 13.1946 35.651 13.479C35.9225 13.7255 36.475 14.0296 36.5381 13.9672C36.5412 13.9642 36.5796 13.9069 36.6235 13.84L36.7032 13.7183L36.6123 13.6798C36.5624 13.6587 36.517 13.6414 36.5116 13.6414C36.427 13.6414 36.1693 13.3318 36.1282 13.181C36.0782 12.9975 35.8855 12.7627 35.562 12.4916C35.4337 12.384 35.4167 12.3608 35.3638 12.2205C35.3235 12.1137 35.224 11.9453 35.0359 11.666L34.7659 11.2649L34.4384 10.985C34.1506 10.7389 34.0885 10.6714 34.0874 10.6031C34.0868 10.569 34.2613 10.6157 34.4042 10.688C34.486 10.7293 34.6822 10.8173 34.8402 10.8836L35.1276 11.0041L35.4249 11.0228L35.7221 11.0415L35.9227 11.1364C36.086 11.2136 36.1683 11.239 36.3652 11.273L36.6072 11.3147L36.8247 11.2507L37.0422 11.1867L37.0305 11.1183C36.9994 10.9357 37.023 10.955 36.759 10.8965C36.5025 10.8397 36.4498 10.8182 35.7419 10.4806C35.0569 10.1539 34.9786 10.1088 34.8722 9.97993C34.7699 9.85593 34.7524 9.80454 34.8297 9.85448C35.0112 9.97183 35.4038 9.99245 36.2275 9.92787L36.4752 9.90844L36.6636 9.98124C36.7922 10.0309 36.9096 10.0958 37.0337 10.1857C37.191 10.2996 37.347 10.374 37.43 10.3748C37.502 10.3755 37.4827 10.1587 37.4042 10.0843C36.9269 9.63223 36.483 9.35944 36.1779 9.33073C35.9041 9.30495 35.5988 9.28222 35.3457 9.26876L35.0883 9.25507L34.7843 8.94506C34.5508 8.70683 34.4291 8.60023 34.259 8.48458C33.8738 8.22276 33.8413 8.19142 33.9105 8.14875C33.9475 8.12596 33.9851 8.13981 34.2641 8.27911C34.8146 8.55382 35.4562 8.73204 35.8948 8.73204H36.1436L36.349 8.95726C36.5213 9.14615 36.5858 9.20138 36.7486 9.29955C36.9803 9.43926 36.9524 9.4366 37.0594 9.32898L37.1466 9.24138L36.8918 8.87034L36.6371 8.4993L36.2688 8.23702C35.8144 7.91339 35.8761 7.94431 35.5339 7.86911L35.2465 7.80595L34.9732 7.52729C34.6146 7.1616 34.3633 7.00589 33.9803 6.9122C33.6304 6.82663 33.644 6.84249 33.8064 6.709C33.9455 6.59462 34.295 6.46153 34.9393 6.27758C35.0296 6.2518 35.0598 6.23101 35.1154 6.15659L35.1824 6.06671L35.1417 5.9839C35.1156 5.93092 35.0843 5.89743 35.0548 5.89094C34.5297 5.77528 34.6062 5.78152 33.9286 5.79899C33.5852 5.80785 33.1794 5.81567 33.0268 5.8164L32.7493 5.81773L32.6007 5.6523C32.1842 5.18843 31.4799 4.91801 30.6883 4.91801H30.444L30.3872 4.84178C30.2323 4.63387 29.2635 3.683 29.1739 3.65093C29.1655 3.64789 29.0691 3.79312 28.9598 3.97365ZM27.7238 3.82539C27.6706 3.90717 27.6595 3.94226 27.6639 4.01377C27.669 4.09502 27.6625 4.10857 27.5777 4.19355C27.4557 4.31582 27.4331 4.51037 27.5347 4.56463C27.5663 4.58149 27.6894 4.65908 27.8083 4.73708L28.0245 4.87889H28.3136H28.6026L28.5887 4.70237C28.5684 4.44644 28.5664 4.44256 28.2819 4.10345C28.0704 3.85119 28.0063 3.78717 27.9381 3.76018C27.8125 3.71046 27.795 3.71578 27.7238 3.82539ZM26.5067 7.24578C26.474 7.25272 26.3135 7.32042 26.15 7.39623C25.9865 7.47204 25.7858 7.56272 25.7041 7.59773C25.353 7.74816 25.1096 7.88386 25.1096 7.92916C25.1096 7.95935 25.4266 7.90874 25.7041 7.83423C26.0195 7.74952 26.1296 7.69873 26.3555 7.53367C26.414 7.49091 26.5046 7.44481 26.5568 7.4312C26.6758 7.40026 26.6952 7.38838 26.6944 7.34708C26.6928 7.26704 26.6121 7.22346 26.5067 7.24578ZM27.5645 7.32955C27.2761 7.46019 27.2605 7.66442 27.5274 7.81471C28.1562 8.16879 28.4401 8.0995 28.2658 7.63444C28.1585 7.34815 27.8345 7.20727 27.5645 7.32955ZM31.5544 7.84421C31.4382 7.98375 31.3721 8.11643 31.3721 8.20989C31.3721 8.32065 31.4183 8.47777 31.4509 8.47767C31.4926 8.47754 31.8279 8.32574 31.9977 8.23013C32.0748 8.18673 32.1941 8.13249 32.2627 8.10961C32.3828 8.06959 32.4403 8.02605 32.4416 7.97412C32.4427 7.93315 32.2734 7.94557 32.1148 7.9981C31.8192 8.09603 31.7497 8.0666 31.7806 7.85659C31.8074 7.67354 31.7014 7.66775 31.5544 7.84421ZM23.4437 8.70213C23.3127 8.77243 23.1539 9.09549 23.1794 9.2397C23.2197 9.46811 23.7073 9.26636 23.7883 8.98774C23.845 8.7923 23.6213 8.6068 23.4437 8.70213ZM28.2705 9.47198C27.5349 9.94072 27.4436 10.0759 27.9435 9.95636C28.2122 9.89209 28.3646 9.76058 28.4239 9.54177C28.4385 9.48792 28.4705 9.43302 28.5031 9.40593C28.5609 9.35797 28.5747 9.31827 28.5331 9.31963C28.5195 9.32008 28.4013 9.38864 28.2705 9.47198ZM29.5385 9.64422C29.3088 9.79441 29.0589 10.1208 29.1515 10.1498C29.3172 10.2017 29.7094 9.9283 29.7378 9.7411C29.7623 9.58028 29.6901 9.54519 29.5385 9.64422ZM30.074 10.2349C30.0195 10.2655 29.8946 10.3411 29.7965 10.4029C29.6984 10.4647 29.5379 10.5526 29.4398 10.5982C29.1469 10.7343 29.1397 10.7857 29.4136 10.7857C29.7502 10.7857 30.1203 10.5915 30.2457 10.3491C30.3281 10.1897 30.2486 10.1368 30.074 10.2349ZM29.1348 12.458C28.9615 12.6179 28.6373 13.1665 28.1456 14.1318C27.8935 14.6268 27.6364 15.1042 27.5675 15.2054C27.4391 15.3937 27.3364 15.5913 27.3564 15.6111C27.5045 15.7573 28.2285 14.9522 28.6718 14.1485C28.7701 13.9702 28.9005 13.7447 28.9614 13.6474C29.3824 12.9758 29.5081 12.1133 29.1348 12.458ZM32.4125 13.9075C32.2007 14.0217 32.2222 14.1451 32.4507 14.1264C32.6498 14.1101 32.7617 14.0185 32.694 13.9272C32.6562 13.8761 32.492 13.8646 32.4125 13.9075ZM17.7393 17.2204C17.5465 17.2498 17.4531 17.351 17.5398 17.4366C17.6265 17.5222 17.9888 17.447 18.0364 17.3335C18.0807 17.228 17.969 17.1855 17.7393 17.2204ZM26.2986 17.3581C25.9344 17.4059 25.2647 17.6162 25.1791 17.7095C25.052 17.8481 25.198 17.8943 25.5201 17.8174C25.908 17.7247 26.0275 17.7078 26.3779 17.6961C26.7789 17.6828 27.0248 17.7056 27.2699 17.7787C27.7176 17.9123 27.8565 17.843 27.6116 17.6082C27.3388 17.3466 26.9496 17.2725 26.2986 17.3581ZM16.908 18.486C16.7925 18.5926 16.6671 18.8429 16.6242 19.0529C16.4272 20.0155 16.7442 19.8418 17.0142 18.8392C17.105 18.5017 17.0586 18.3471 16.908 18.486ZM28.7107 19.1925C28.3289 19.2236 28.3184 19.7345 28.6991 19.7587C28.9491 19.7745 28.9892 19.7257 28.955 19.4474C28.9249 19.2036 28.8996 19.1771 28.7107 19.1925ZM21.9156 19.7673C21.7747 19.9741 21.7161 20.11 21.618 20.4577C21.5066 20.8524 21.3706 21.1582 21.2132 21.3672C21.1605 21.4372 21.1203 21.5076 21.1237 21.5237C21.1756 21.7689 21.6581 21.304 21.7931 20.8786C21.8324 20.7551 21.9109 20.5263 21.9676 20.3701C22.1751 19.7988 22.1435 19.4329 21.9156 19.7673ZM30.6156 21.2134C30.2811 21.3343 30.839 22.7899 31.562 23.6827C31.9914 24.2127 33.0883 25.1762 32.8872 24.8465C32.8781 24.8316 32.7474 24.6624 32.5967 24.4705C32.3194 24.1174 31.8532 23.4514 31.458 22.844C31.2112 22.4646 31.0981 22.1941 31.0074 21.7662C30.9024 21.2707 30.8116 21.1426 30.6156 21.2134ZM19.402 23.2134C19.402 23.2175 19.4664 23.2587 19.5452 23.3049C19.6239 23.351 19.7644 23.4434 19.8573 23.51C20.2636 23.8015 20.5901 23.9143 20.6071 23.7692C20.615 23.7014 20.5454 23.6547 20.2244 23.5125C20.0936 23.4546 19.9465 23.387 19.8975 23.3624C19.8485 23.3377 19.746 23.3021 19.6696 23.2834C19.5933 23.2646 19.5057 23.2394 19.475 23.2275C19.4149 23.2041 19.402 23.2016 19.402 23.2134ZM16.9867 24.4283C16.9403 24.7362 16.9675 25.0806 17.0619 25.3787C17.112 25.5369 17.333 26.0028 17.3579 26.0028C17.4312 26.0028 17.3364 25.3975 17.2011 25.0018C17.1287 24.7898 17.103 24.6851 17.1027 24.6009C17.1017 24.3213 17.0209 24.201 16.9867 24.4283ZM43.7685 25.1419C43.7343 25.1792 43.7713 25.7484 43.8466 26.345C43.8507 26.3773 43.8454 26.5974 43.8349 26.834C43.7923 27.7928 43.5966 28.2713 42.8348 29.2789C42.2327 30.0754 42.3897 30.3759 43.0468 29.6846C44.0761 28.6019 44.4009 27.3583 44.0545 25.8267C43.9331 25.2902 43.8391 25.0649 43.7685 25.1419ZM25.3295 26.4601C25.1416 26.6835 25.4764 27.219 26.1203 27.7247C26.1802 27.7718 26.3095 27.8817 26.4076 27.9689C26.7274 28.2532 26.9505 28.4147 27.7751 28.9594C28.8282 29.655 28.8507 29.6683 28.7639 29.546C28.7217 29.4865 27.9479 28.7924 27.4042 28.3262C27.0982 28.0639 26.8902 27.8661 26.7014 27.6579C26.5539 27.4952 26.3383 27.2573 26.2222 27.1291C25.6775 26.5273 25.4293 26.3414 25.3295 26.4601ZM32.6107 27.5816C32.4915 27.6102 32.3654 27.9967 32.3142 28.4903C32.294 28.6848 32.4594 28.7751 32.4938 28.5884C32.5152 28.4724 32.609 28.3078 32.7192 28.1927C32.8525 28.0535 32.8814 27.9848 32.8659 27.844C32.8437 27.6428 32.7513 27.5478 32.6107 27.5816ZM28.362 30.6817C28.0706 30.7338 27.9384 30.9219 27.9822 31.2218C28.1225 32.1805 28.6928 33.8312 29.2267 34.8239C29.8487 35.9803 30.1933 36.5319 30.7383 37.2436C31.029 37.6232 30.889 37.782 30.2622 37.7834C29.0354 37.7861 27.7351 37.556 26.8635 37.182C26.3964 36.9815 26.0323 36.9375 25.7834 37.0512C25.6423 37.1156 25.0892 37.0556 24.7461 36.9387C24.6571 36.9084 24.5175 36.8777 24.4357 36.8705C24.0945 36.8406 23.2465 36.8094 22.8404 36.8118L22.4044 36.8145L22.226 36.8833C22.1279 36.9211 22.0102 36.9619 21.9644 36.974C21.7591 37.0282 21.7391 37.2173 21.9098 37.4886C22.1637 37.8921 22.3458 38.1137 22.4636 38.1628C22.5235 38.1877 22.6461 38.2598 22.7361 38.3231C23.4914 38.8537 24.305 38.9286 25.4479 38.5725C25.625 38.5174 25.7044 38.5393 25.7618 38.6594C25.8115 38.7634 25.8567 38.7741 26.2816 38.7831C26.6017 38.7899 26.6841 38.7978 26.7789 38.8308C26.8901 38.8695 26.8953 38.8696 27.0206 38.8353L27.1486 38.8003L27.7987 38.8854C28.7996 39.0164 29.4166 39.1581 30.3415 39.4691C30.7167 39.5953 31.1395 39.7829 31.3126 39.8998L31.4414 39.9868L31.7486 39.9994C31.9614 40.0082 32.0832 40.0049 32.145 39.9887C32.194 39.9759 32.2677 39.9568 32.3087 39.9463C32.3917 39.9251 32.451 39.8256 32.6508 39.3718L32.7454 39.157L32.7229 38.9902C32.7019 38.8343 32.6844 38.7922 32.4539 38.3425C31.7614 36.9915 31.5298 35.5923 31.8064 34.4315L31.8458 34.2665L31.7949 34.1002C31.7363 33.9086 31.754 33.9258 31.23 33.5513C31.0629 33.4319 30.9193 33.3277 30.9108 33.3197C30.9024 33.3118 30.8826 33.2223 30.8669 33.1209C30.7554 32.4028 30.3513 31.8637 29.3998 31.1637C28.9171 30.8086 28.8174 30.7543 28.4912 30.6685C28.4788 30.6653 28.4207 30.6712 28.362 30.6817ZM38.3755 31.7136C38.2236 31.7742 38.2122 31.9547 38.349 32.1336C38.4348 32.2457 38.4657 32.3339 38.4664 32.4689C38.4675 32.6535 38.5892 32.6506 38.648 32.4646C38.7841 32.0341 38.6309 31.6118 38.3755 31.7136ZM33.0622 33.9594C33.0191 33.9658 32.8943 34.1075 32.7611 34.3016C32.6124 34.5182 32.4945 35.1864 32.569 35.39C32.61 35.502 32.635 35.4832 32.6895 35.2995C32.7176 35.2047 32.7682 35.0611 32.802 34.9804C33.0941 34.2831 33.181 33.942 33.0622 33.9594ZM23.2513 37.3974C23.0456 37.4419 23.0076 37.482 23.0836 37.5746C23.224 37.7457 23.4845 37.6556 23.4845 37.4359C23.4845 37.3617 23.4458 37.3553 23.2513 37.3974ZM33.3208 37.6907C33.2447 37.8865 33.3526 38.3017 33.5619 38.6192C33.707 38.8393 33.7329 38.8469 33.679 38.6535C33.6602 38.5858 33.6385 38.4424 33.6308 38.3348C33.6011 37.9195 33.3969 37.4952 33.3208 37.6907ZM27.4283 37.7855C27.4283 37.8595 27.462 37.8783 27.7658 37.9738C28.2775 38.1345 28.6572 38.2222 28.9047 38.2367C29.0246 38.2438 29.2242 38.2665 29.3482 38.2873C29.7083 38.3476 29.8179 38.3319 29.7531 38.2295C29.7308 38.1942 29.4092 38.1138 29.2813 38.1116C29.2377 38.1108 29.0682 38.0928 28.9047 38.0715C28.7412 38.0503 28.496 38.0189 28.3597 38.0019C28.1657 37.9776 28.0438 37.9478 27.797 37.8644C27.4577 37.7495 27.4283 37.7433 27.4283 37.7855ZM34.2556 41.6671C34.0538 41.798 32.6015 43.3244 32.601 43.4061C32.6002 43.5645 32.7748 43.433 33.4892 42.7368C34.0266 42.2132 34.3844 41.7905 34.3844 41.6793C34.3844 41.6207 34.3345 41.6159 34.2556 41.6671ZM30.3316 46.126C30.1576 46.231 29.9821 46.4954 30.0196 46.596C30.0643 46.716 30.2791 46.6281 30.3875 46.4454C30.5431 46.183 30.5139 46.016 30.3316 46.126ZM55.3717 49.6813C53.9298 49.7809 53.1857 50.3555 53.9045 50.8144C55.0107 51.5207 57.938 51.1618 57.6916 50.3501C57.5653 49.9339 56.4345 49.6079 55.3717 49.6813ZM3.39288 49.8111C3.32865 49.9159 2.59623 51.1974 2.59623 51.205C2.59623 51.2088 2.80805 51.2147 3.06691 51.2181C3.69445 51.2263 3.82965 51.2867 3.99464 51.632C4.17013 51.9992 4.16454 51.8494 4.15784 56.0065L4.15195 59.6543L4.10586 59.767C3.96764 60.1048 3.72144 60.2095 3.02728 60.2257L2.57642 60.2362V60.8107V61.3853H5.38067H8.18493V60.8083V60.2313H7.87228C7.08503 60.2313 6.68113 60.0527 6.47629 59.6143L6.43103 59.5174L6.42502 58.1189C6.41747 56.3595 6.41817 56.355 6.72422 56.2214C7.19248 56.017 7.81703 56.3965 7.93056 56.9545L7.95258 57.0627H8.43539H8.9182V55.2926V53.5225H8.43434H7.9505L7.9374 53.6741C7.86197 54.5472 6.90962 54.9681 6.46571 54.3246L6.42112 54.2599L6.42152 53.1529C6.42209 51.5269 6.47617 51.3633 7.0527 51.2427C7.16515 51.2192 10.4675 51.2151 29.9303 51.2148L52.6765 51.2145V50.481V49.7476H28.0542H3.43182L3.39288 49.8111ZM39.5767 52.4387C39.5386 52.4429 39.4093 52.456 39.2894 52.4677C37.5894 52.6342 36.5985 53.6297 36.7321 55.037L36.7461 55.185L37.7998 55.185L38.8534 55.185L38.888 54.9747C38.9953 54.3244 39.1561 53.9242 39.3792 53.752C40.0168 53.2602 40.9419 53.4544 41.1746 54.1288C41.2085 54.2272 41.2117 54.3061 41.2117 55.0495V55.8626L41.1573 55.9438C41.0707 56.073 41.05 56.078 40.4983 56.1029C38.1481 56.209 37.5965 56.3419 37.0164 56.9415C36.3472 57.6331 36.3795 59.8236 37.0697 60.5594C37.7963 61.3339 38.0937 61.3845 41.9202 61.385L44.3133 61.3853V60.9198V60.4544L44.1815 60.4321C43.9113 60.3864 43.6585 60.2064 43.5454 59.9792L43.4908 59.8694L43.4795 57.1214C43.468 54.3147 43.4676 54.3022 43.391 53.9761C43.1222 52.8323 41.5947 52.2166 39.5767 52.4387ZM13.6844 52.5958C11.8762 52.7065 11.1482 53.207 10.8748 54.5277C10.8255 54.7656 10.7964 58.6607 10.8402 59.1653C10.9975 60.9807 12.0133 61.6004 14.7249 61.5352C16.9191 61.4825 17.989 60.5581 17.8273 58.8547L17.8131 58.7057H16.687H15.5608L15.5527 59.2875C15.5453 59.821 15.541 59.8802 15.5012 59.9995C15.1842 60.9495 13.4864 60.8288 13.1442 59.8318L13.09 59.6738L13.0843 58.6274L13.0785 57.581L13.1337 57.4734C13.1735 57.396 13.2112 57.3536 13.2683 57.3222L13.3475 57.2785L15.5834 57.2781L17.8192 57.2778L17.8108 55.8451C17.8007 54.1248 17.7873 54.0182 17.5288 53.6089C17.0352 52.8274 15.6905 52.473 13.6844 52.5958ZM24.8222 52.6107C24.2772 52.6998 23.4609 53.0178 22.9413 53.3433L22.844 53.4042L22.7459 53.3515C22.5591 53.2512 22.3548 53.0034 22.3548 52.8772C22.3548 52.8382 22.3442 52.8379 20.918 52.8379H19.4812V53.3157V53.7935L19.5952 53.8075C19.9021 53.8452 20.1716 54.023 20.2765 54.2571C20.3131 54.3388 20.3141 54.4245 20.309 57.1253L20.3037 59.9094L20.2384 60.0401C20.1249 60.2678 19.9357 60.3813 19.6348 60.4022L19.4812 60.4129V60.8991V61.3853H21.4432H23.4052V60.9181V60.4509L23.2955 60.4374C23.0369 60.4055 22.7475 60.1968 22.6359 59.9617L22.5828 59.8499L22.5774 57.3689L22.5721 54.888L22.7855 54.6791C23.4393 54.0392 23.9605 53.8221 24.2043 54.0884C24.3479 54.2453 24.3443 54.2024 24.3518 55.8256L24.3586 57.2778H25.488H26.6174L26.6106 55.4148C26.603 53.3388 26.6113 53.4646 26.4637 53.1866C26.2213 52.73 25.5447 52.4926 24.8222 52.6107ZM33.4629 52.6107C32.9238 52.6989 32.2135 52.9712 31.6297 53.3136C31.4855 53.3982 31.4793 53.3999 31.4216 53.3713C31.2272 53.2749 31.0258 53.0534 31.0022 52.9102L30.9903 52.8379H29.5561H28.1219V53.3147V53.7916L28.2614 53.812C28.5359 53.8522 28.7988 54.0242 28.9039 54.2324L28.9543 54.3321L28.954 57.0714C28.9538 59.3581 28.9492 59.8278 28.926 59.9137C28.8464 60.2089 28.6209 60.3782 28.2755 60.4022L28.1219 60.4129V60.8991V61.3853H30.0839H32.0459V60.9198V60.4544L31.921 60.4333C31.6482 60.3871 31.4039 60.2124 31.2883 59.9808L31.2234 59.8507L31.2182 57.3679L31.2129 54.8851L31.4263 54.6774C32.0825 54.0387 32.602 53.823 32.8449 54.0884C32.9886 54.2453 32.985 54.2024 32.9925 55.8256L32.9992 57.2778H34.1179H35.2366V55.4238C35.2366 53.3851 35.2412 53.469 35.1139 53.2095C34.8829 52.739 34.1979 52.4906 33.4629 52.6107ZM50.7145 52.6221C50.2029 52.7149 49.4304 53.0185 48.9309 53.323L48.802 53.4015L48.7058 53.3502C48.5041 53.2426 48.3171 53.0223 48.3167 52.8917L48.3165 52.8379H46.8797H45.4429V53.3144V53.7909L45.5885 53.8141C45.8739 53.8596 46.1218 54.0294 46.2264 54.251L46.2748 54.3537L46.275 57.0568C46.2752 59.8646 46.275 59.8735 46.192 60.0488C46.0915 60.2612 45.83 60.4064 45.5469 60.4071L45.4429 60.4073V60.8963V61.3853H47.4049H49.3669V60.9198V60.4544L49.2392 60.4328C48.9698 60.3872 48.7107 60.2035 48.5989 59.9789L48.5444 59.8694L48.5392 57.3783L48.5339 54.8872L48.7076 54.7116C49.4396 53.9715 50.0321 53.7751 50.2363 54.205L50.2884 54.3146L50.2939 55.7962L50.2995 57.2778H51.4285H52.5576L52.5572 55.4442C52.5569 53.4257 52.559 53.4641 52.4347 53.2137C52.1911 52.7228 51.4892 52.4814 50.7145 52.6221ZM53.8457 53.3136V53.7893L53.9993 53.8125C54.2772 53.8545 54.5199 54.015 54.6301 54.2297L54.6786 54.3241L54.6734 57.1261L54.6682 59.9281L54.6126 60.0399C54.5062 60.2537 54.2998 60.3773 54.005 60.4037L53.8557 60.4171L53.8504 60.9012L53.8451 61.3853H55.8074H57.7697V60.9203V60.4554L57.6504 60.433C57.3634 60.3792 57.1411 60.2195 57.022 59.9816L56.9473 59.8323V57.093V54.3537L57.0004 54.2419C57.1032 54.0253 57.3179 53.878 57.6146 53.8203L57.7697 53.7901V53.314V52.8379H55.8077H53.8457V53.3136ZM14.1109 53.563C13.6788 53.6155 13.3865 53.798 13.2305 54.1129C13.0934 54.3897 13.0899 54.4191 13.0899 55.2941V56.0779L13.1455 56.15C13.2643 56.3036 13.2348 56.2999 14.3228 56.2998L15.2897 56.2997L15.3625 56.2558C15.5563 56.1389 15.5623 56.1061 15.5524 55.2142C15.5372 53.8432 15.1793 53.4332 14.1109 53.563ZM40.1809 57.0038C39.5166 57.0587 39.1374 57.2824 38.9661 57.7203L38.9135 57.8548L38.907 58.6573C38.8944 60.2249 39.0472 60.4058 40.3853 60.4068C41.3343 60.4075 41.2247 60.613 41.2174 58.847L41.2117 57.4636L41.1645 57.3463C41.0401 57.0369 40.7986 56.9528 40.1809 57.0038Z" fill="#171823"/>
</svg>
