<svg width="59" height="35" viewBox="0 0 59 35" fill="none" xmlns="http://www.w3.org/2000/svg">
<path d="M8.74496 8.02045C7.63676 9.71968 7.26334 11.5394 7.87767 13.5158C8.37155 15.1066 9.39543 16.3358 10.6241 17.3963C12.2744 18.8304 14.1776 19.8307 16.1892 20.6261C20.1161 22.1686 24.1996 22.8194 28.3795 22.964C30.4152 23.0363 32.4509 22.964 34.4626 22.735C36.5585 22.506 38.6304 22.1445 40.654 21.5781C43.2921 20.843 45.8096 19.8427 48.0862 18.2881C49.4835 17.324 50.7363 16.2153 51.6036 14.733C52.4709 13.2989 52.8082 11.7563 52.4347 10.0812C52.1456 8.70738 51.4229 7.57457 50.4954 6.56226C49.074 5.03176 47.3514 3.9592 45.4844 3.06741C43.2559 2.0069 40.919 1.31998 38.4979 0.837929C36.8235 0.500494 35.1251 0.271514 33.4025 0.163053C33.005 0.138951 32.6316 0.102804 32.2461 0.0666504H28.4999C28.4999 0.0666504 28.3795 0.102796 28.3072 0.114847C27.6688 0.151001 27.0303 0.187155 26.3919 0.247412C24.3682 0.42818 22.3687 0.753566 20.4173 1.24767C17.707 1.92254 15.1051 2.87458 12.7201 4.33278C11.1541 5.30893 9.75681 6.46586 8.73293 8.03252M34.836 15.9261C34.5348 17.782 33.6434 19.3125 32.2341 20.5537C31.7161 21.0117 31.0657 21.1925 30.4031 21.2407C29.9334 21.2768 29.4515 21.2889 29.1624 21.3009C27.4278 21.2768 25.9101 21.1081 24.3803 20.9032C22.8023 20.6863 21.2243 20.4212 19.6945 19.9873C19.1645 19.8427 18.6465 19.662 18.1406 19.4812C17.719 19.3125 17.707 19.0594 18.0563 18.7822C21.3809 16.1309 25.1512 14.4438 29.2588 13.4917C30.3309 13.2386 31.415 13.0458 32.5232 13.1302C33.3543 13.1904 34.1132 13.4315 34.571 14.2148C34.8962 14.745 34.9323 15.3476 34.836 15.9261ZM45.2916 7.28533C45.4723 6.93584 45.653 6.57432 45.8337 6.22483C46.0746 5.77894 46.3155 5.67047 46.7612 5.89944C48.8933 6.9479 50.2183 8.62303 50.6038 11.0092C50.6279 11.1779 50.6038 11.3587 50.6038 11.5274C50.6158 12.7445 50.1701 13.781 49.4474 14.721C48.4717 15.9984 47.2069 16.9143 45.8096 17.6855C43.4366 18.9991 40.895 19.8668 38.2208 20.3248C38.1124 20.3368 37.8956 20.3127 37.8835 20.2525C37.8353 20.1199 37.8594 19.9391 37.9197 19.8307C38.2569 19.3366 38.6304 18.8666 38.9917 18.3845C40.2927 16.6612 41.4009 14.8053 42.4248 12.9133C43.4246 11.0574 44.34 9.16532 45.2796 7.28533M27.3797 2.98305C28.1988 2.11536 29.2227 1.75382 30.4031 1.71766C33.3664 1.62125 36.2814 1.98279 39.1604 2.70586C39.9313 2.89868 40.7143 3.13972 41.4731 3.38074C41.7141 3.4651 41.9429 3.58561 42.1598 3.71817C42.4248 3.89894 42.4368 4.13996 42.22 4.38099C42.0754 4.53765 41.9068 4.68227 41.7261 4.79073C38.7147 6.65867 35.5346 8.20124 32.1739 9.33405C30.897 9.74379 29.5961 10.0812 28.247 10.1415C27.6688 10.1656 27.0906 10.1053 26.5485 9.86429C25.6812 9.4666 25.4042 8.74354 25.4283 7.65893C25.5728 6.03201 26.0908 4.35688 27.3917 2.99509M20.8991 2.86254C21.3448 2.74202 21.8386 2.74202 22.3084 2.72997C22.7059 2.72997 22.8023 2.92279 22.5614 3.23612C21.9109 4.10381 21.2243 4.94739 20.5859 5.81508C18.2731 8.96045 16.2615 12.2746 14.9365 15.9622C14.816 16.3117 14.6474 16.625 14.4546 16.9263C14.1896 17.3481 13.9005 17.4204 13.4307 17.2758C12.8646 17.0709 12.4189 16.6974 11.9853 16.2997C11.0337 15.3838 10.1904 14.3835 9.7568 13.1181C9.58816 12.624 9.52794 12.0938 9.40748 11.5756C9.43157 11.5756 9.45566 11.5635 9.47975 11.5515C9.4918 10.262 10.0459 9.17738 10.865 8.20123C11.7925 7.08047 12.961 6.23687 14.2137 5.51379C16.3097 4.29662 18.5743 3.4892 20.9111 2.85048" fill="#171823"/>
<path d="M44.7013 26.314C44.5447 26.2899 44.376 26.2778 44.2074 26.2778H37.9557C37.8714 26.2778 37.775 26.2899 37.6666 26.3019V34.5811C37.6666 34.6775 37.6545 34.798 37.6545 34.8945H44.7495C44.8458 34.8583 44.9301 34.8222 45.0265 34.786C45.5686 34.6052 45.8818 34.2196 45.9781 33.6652C46.0263 33.4483 46.0384 33.2314 46.0384 33.0265C46.0384 31.9781 46.0384 30.9417 46.0384 29.8932C46.0384 29.2786 46.0625 28.6519 46.0384 28.0373C46.0022 26.9647 45.6047 26.4706 44.7133 26.3019M43.5208 32.0022C43.4967 32.6288 43.3281 32.7855 42.7137 32.7976H40.2323V28.3265C41.1237 28.3265 42.0151 28.3265 42.8944 28.3265C43.2678 28.3265 43.4244 28.5194 43.4847 28.8929C43.5087 29.0135 43.5329 29.134 43.5329 29.2545C43.5329 30.1222 43.5329 31.0019 43.5329 31.8816C43.5329 31.9299 43.5329 31.966 43.5329 32.0022" fill="#171823"/>
<path d="M55.4582 26.5672V26.266C55.3378 26.266 55.2655 26.2539 55.1932 26.2539C53.2177 26.2539 51.2302 26.266 49.2426 26.278C49.1583 26.278 49.074 26.2901 49.0017 26.3021C47.9658 26.3624 47.231 27.0613 47.219 28.0977C47.1949 30.3634 47.219 32.629 47.219 34.8946H49.6642V33.0146H52.9648V34.8946H55.4703C55.4703 34.7982 55.4703 34.7018 55.4703 34.5934C55.4703 31.918 55.4703 29.2426 55.4703 26.5672M52.9648 30.8334H49.6642C49.6642 30.2067 49.6522 29.58 49.6763 28.9654C49.6763 28.6401 49.9052 28.4111 50.2304 28.399C50.8809 28.3508 51.5434 28.3629 52.1938 28.3508C52.4468 28.3508 52.6997 28.3508 52.9527 28.3508V30.8334H52.9648Z" fill="#171823"/>
<path d="M26.7534 26.2539C26.0789 26.2539 25.3802 26.2539 24.7056 26.2539C24.4647 26.2539 24.4045 26.3262 24.4165 26.5552C24.4165 28.4231 24.4165 30.3152 24.4165 32.1831C24.4165 32.6652 24.272 32.7977 23.7902 32.8098H21.1401V26.278H18.5864V26.6275C18.5864 28.2906 18.5864 29.9416 18.5864 31.6047C18.5864 32.7134 18.5864 33.81 18.5864 34.9067H25.7416C25.7416 34.9067 25.7898 34.8705 25.8139 34.8585C26.5125 34.738 26.8618 34.2921 26.9582 33.6293C26.9943 33.4244 27.0184 33.2075 27.0184 33.0026C27.0184 30.8695 27.0184 28.7124 27.0184 26.5793V26.278C26.91 26.278 26.8136 26.266 26.7293 26.266" fill="#171823"/>
<path d="M36.5465 29.7849C36.5465 29.1101 36.5465 28.4472 36.4983 27.7844C36.4501 27.0734 36.0647 26.5793 35.4383 26.4226C35.101 26.3383 34.7517 26.278 34.4144 26.278C32.3907 26.2539 30.367 26.2539 28.3313 26.2539C28.259 26.2539 28.2109 26.2539 28.1145 26.266V28.7244C28.1145 30.7852 28.1145 32.8339 28.1145 34.8946H30.6682C30.6682 32.7375 30.6682 30.5923 30.6682 28.4352C30.6682 28.4111 30.6682 28.399 30.6923 28.3508C30.7405 28.3508 30.7766 28.3267 30.8248 28.3267C31.668 28.3267 32.5232 28.3267 33.3785 28.3267C33.776 28.3267 33.9446 28.4954 33.9446 28.8931C33.9446 30.8454 33.9446 32.8098 33.9446 34.7621C33.9446 34.8103 33.9446 34.8464 33.9205 34.8826H36.5826C36.5826 34.8826 36.5585 34.7862 36.5585 34.738C36.5585 33.0749 36.5706 31.4118 36.5585 29.7608" fill="#171823"/>
<path d="M5.86601 26.2541C5.69737 26.2541 5.72147 26.3746 5.72147 26.4831V29.3272H2.43298V26.242H2.11979C1.4091 26.242 0.710452 26.242 -0.000244141 26.23V34.8948H2.45707V31.5084H5.7576V34.8948H8.31129C8.31129 34.8948 8.31129 34.8466 8.31129 34.8225V26.459C8.31129 26.459 8.29924 26.3384 8.28719 26.2541C7.46808 26.2541 6.67307 26.2541 5.86601 26.2541Z" fill="#171823"/>
<path d="M15.8278 26.2658C15.7435 26.2658 15.6351 26.3501 15.5869 26.4345C14.9485 27.3142 14.3342 28.206 13.6957 29.0737C13.6596 29.146 13.5994 29.2063 13.5271 29.2907C13.4548 29.1942 13.4187 29.134 13.3826 29.0737C12.8164 28.206 12.2382 27.3384 11.672 26.4586C11.5877 26.3381 11.5155 26.2658 11.3589 26.2658C10.5759 26.2658 9.79293 26.2658 9.00996 26.2417H8.69678C8.79314 26.3743 8.82927 26.4466 8.87746 26.5189C9.80497 27.9048 10.7084 29.3148 11.672 30.6886C12.0816 31.255 12.2743 31.8335 12.2262 32.5445C12.1659 33.3278 12.2021 34.1112 12.2021 34.8824H14.7558C14.7558 33.834 14.7558 32.7735 14.7678 31.713C14.7678 31.5804 14.816 31.4358 14.8883 31.3153C15.9965 29.7124 17.1167 28.0976 18.2249 26.4948C18.2731 26.4345 18.3092 26.3622 18.3574 26.2899C18.3092 26.2658 18.2972 26.2537 18.2611 26.2537C17.454 26.2537 16.6469 26.2417 15.8399 26.2537" fill="#171823"/>
<path d="M56.6269 26.5791C56.6389 29.2425 56.6269 31.9178 56.6269 34.5812C56.6269 34.6776 56.6028 34.7981 56.6028 34.8945H58.9999V26.2899C58.3133 26.2658 57.6146 26.2779 56.928 26.2417C56.675 26.2417 56.6148 26.3261 56.6148 26.5791" fill="#171823"/>
</svg>
