<svg width="69" height="35" viewBox="0 0 69 35" fill="none" xmlns="http://www.w3.org/2000/svg">
<path d="M19.7966 34.4272H20.4621V32.8146H21.6155V32.2967H20.4621V31.3943H21.6895V30.8765H19.7966V34.4272Z" fill="#171823"/>
<path d="M49.4753 34.4565V30.9058" stroke="#171823" stroke-miterlimit="10"/>
<path d="M57.7861 31.4089H58.5551V34.4418H59.2206V31.4089H60.0043V30.8911H57.7861V31.4089Z" fill="#171823"/>
<path d="M0.808838 34.4565V30.9058" stroke="#171823" stroke-miterlimit="10"/>
<path d="M40.3072 33.5543L40.3219 33.5839H40.3072V33.5543L39.4051 30.8765H38.6213V34.4272H39.1833V31.7493L40.1001 34.4272H40.8839V30.8765H40.3072V33.5543Z" fill="#171823"/>
<path d="M68.1377 34.4565V30.9058" stroke="#171823" stroke-miterlimit="10"/>
<path d="M30 34.4565V30.9058" stroke="#171823" stroke-miterlimit="10"/>
<path d="M11.0125 33.5543L11.0272 33.5839H11.0125V33.5543L10.1104 30.8765H9.32666V34.4272H9.8886V31.7493L10.8202 34.4272H11.5892V30.8765H11.0272L11.0125 33.5543Z" fill="#171823"/>
<path d="M34.4659 0.517578C20.1217 0.517578 8.49854 6.36144 8.49854 13.5664C8.49854 19.4103 16.129 24.3516 26.6431 26.0234L34.4659 7.36747L42.3034 26.0234C52.8175 24.3516 60.4481 19.4103 60.4481 13.5664C60.4481 6.36144 48.8249 0.517578 34.4807 0.517578M46.3997 20.1204L34.4807 6.31705L22.6061 20.0908C16.7501 18.4634 12.8905 15.608 12.8905 12.1017C12.8905 6.55377 22.4878 1.33128 34.4511 1.33128C46.4144 1.33128 56.2483 6.53897 56.2483 12.1017C56.2483 15.6376 52.3296 18.5078 46.3997 20.1204Z" fill="#171823"/>
</svg>
