<svg width="62" height="33" viewBox="0 0 62 33" fill="none" xmlns="http://www.w3.org/2000/svg">
<path d="M31.4793 32.0688C48.2767 32.0688 62 25.0348 62 16.4262C62 7.81765 48.2914 0.79834 31.4793 0.79834C14.6672 0.79834 0.973389 7.81765 0.973389 16.4262C0.973389 25.0348 14.6819 32.0688 31.4793 32.0688ZM31.4793 4.49195C46.9824 4.49195 59.6025 9.84839 59.6025 16.4262C59.6025 23.0041 46.9676 28.3605 31.4793 28.3605C15.991 28.3605 3.34148 23.0041 3.34148 16.4262C3.34148 9.84839 15.9763 4.49195 31.4793 4.49195Z" fill="#171823"/>
<path d="M42.2757 23.8427L45.2469 13.4241L48.2327 23.8427H52.3364L48.1003 8.92114H46.3794H43.9966H41.7903V9.61277H42.3934L38.1572 23.8427H42.2757Z" fill="#171823"/>
<path d="M13.0201 23.843H17.1238V17.3387L21.7571 23.4751H26.5227L21.0216 16.1615L25.7725 9.24518H21.0069L17.1385 14.8665V9.23047H13.0348L12.2993 9.24518V9.86322C12.5641 9.86322 12.8141 9.89266 13.0348 9.98095V23.8135L13.0201 23.843Z" fill="#171823"/>
<path d="M29.9495 23.8426H34.0533V9.25952H29.9495L29.2141 9.27425V9.8923C29.4789 9.8923 29.7142 9.92173 29.9495 10.01V23.8426Z" fill="#171823"/>
</svg>
