<svg width="60" height="45" viewBox="0 0 60 45" fill="none" xmlns="http://www.w3.org/2000/svg">
<path d="M45.2732 5.417C41.5749 1.43749 35.522 0.585693 30.4401 0.585693C25.3583 0.585693 19.0791 1.43749 15.434 5.64326C15.3675 5.72311 15.3143 5.78966 15.2611 5.86952C13.4784 7.99902 12.3743 11.0469 12.3743 15.1328C12.3743 27.7368 22.6444 29.7465 30.4401 29.7465C38.2359 29.7465 48.5724 27.7368 48.5724 15.1328C48.5724 11.0469 47.4683 7.99902 45.6856 5.86952C45.5526 5.72312 45.4196 5.5634 45.2866 5.40369M18.68 7.87923C21.1145 4.1393 25.7307 3.22095 30.4534 3.22095C35.176 3.22095 39.6991 4.08606 42.1736 7.75945C42.2135 7.83931 42.28 7.93247 42.32 8.01233C38.1161 10.4746 33.3402 10.5677 30.4534 16.73C27.3138 10.7408 22.5779 10.7008 18.4272 8.31845C18.5071 8.17204 18.5869 8.02564 18.68 7.86593M30.4534 27.0847C23.4692 27.1512 16.8973 25.1282 16.8973 15.1195C16.8973 14.3742 16.8974 13.6289 17.0171 12.99C17.057 12.8569 17.0836 12.7105 17.1235 12.5774C19.4782 13.3627 21.8196 14.1613 24.1743 14.9598C26.9413 16.1177 28.7905 17.7282 30.4534 21.3483C32.1296 17.7282 33.9256 15.8915 36.7459 14.7336C39.1139 13.8818 41.4818 13.0433 43.8498 12.1915C43.8764 12.2447 43.8764 12.3113 43.8897 12.3778C44.0095 13.1764 44.0627 14.1613 44.0627 15.1328C44.0627 25.1415 37.4244 27.1512 30.4401 27.098" fill="#171823"/>
<path d="M31.5973 36.9474L35.3355 33.8596H27.4866V36.9474H31.5973Z" fill="#171823"/>
<path d="M56.887 33.8594H49.9694V36.6677H55.4636C57.06 36.6677 56.8072 37.7058 56.8072 37.7058H52.4038C51.8584 37.7058 50.1423 37.626 49.3042 38.9569V38.4645C49.3042 33.7396 45.7389 33.8594 45.7389 33.8594H36.4399L26.968 41.3393V36.7476C26.968 33.7396 23.8684 33.8594 23.8684 33.8594H16.9506V36.6677H22.4449C24.0413 36.6677 23.8284 37.7058 23.8284 37.7058H19.425C18.8796 37.7058 17.2034 37.626 16.3653 38.917V37.7458C16.3653 33.6065 12.6271 33.8594 12.6271 33.8594H0.973389V44.2274H4.49879V36.9472H6.97318V44.2141H10.3256V36.9472H11.4564C13.0927 36.9472 12.8798 38.2781 12.8798 38.2781V44.2141H16.3653V42.8299C17.2034 44.2141 18.8796 44.2141 18.8796 44.2141H28.5245L38.0363 36.5612V44.1742H45.4994C46.9229 44.1742 48.2666 43.4688 48.8918 41.5389C49.2643 44.1742 51.9116 44.2141 51.9116 44.2141H60V36.7342C60 33.7263 56.9003 33.8461 56.9003 33.8461M23.7752 41.3659H20.0902C20.0902 41.3659 19.3452 41.4058 19.3452 40.6605C19.3452 40.035 19.9305 39.995 20.1434 39.995H23.7885V41.3792L23.7752 41.3659ZM44.5416 41.153H41.4021V36.7609H44.5815C44.5815 36.7609 46.0848 36.8806 46.0848 38.8105C46.0848 40.7404 45.3797 41.153 44.5416 41.153ZM56.7407 41.3659H53.0557C53.0557 41.3659 52.2975 41.4058 52.2975 40.6605C52.2975 40.035 52.9227 39.995 53.1356 39.995H56.7407V41.3792V41.3659Z" fill="#171823"/>
<path d="M29.5886 44.2278H37.4243V41.1799H33.3135L29.5886 44.2278Z" fill="#171823"/>
</svg>
