<svg width="48" height="48" viewBox="0 0 48 48" fill="none" xmlns="http://www.w3.org/2000/svg">
<path d="M24 0C10.7616 0 0 10.7434 0 23.9914C0 37.2393 10.7445 48 24 48C37.2555 48 48 37.2566 48 23.9914C48 10.7262 37.2555 0 24 0ZM24 47.0846C14.9808 47.0846 7.9089 42.3519 4.54377 35.823L5.05623 35.633C5.9274 37.0838 7.07189 38.3447 8.60925 40.0547C10.5053 42.1619 16.5011 46.2209 23.9829 46.2209C31.9601 46.2209 38.9808 42.041 42.9096 35.6502C43.2171 35.5639 43.3196 35.4257 43.2 35.1666C44.9936 31.9539 46.2235 27.9295 46.2235 23.9914C46.2235 21.5041 45.8648 19.4833 45.284 17.6869C44.8569 16.3224 44.2591 14.9752 44.0028 14.4397C43.9345 14.3188 43.9174 14.2497 43.9174 14.1288C44.0199 14.2152 44.0541 14.267 44.1395 14.3879C44.4811 15.027 45.2669 16.5988 45.6256 17.6351C46.121 18.9996 47.0093 20.8996 47.0093 23.9914C47.0093 36.6175 36.7772 47.0846 23.9829 47.0846M4.73167 35.2875L21.5402 23.0587L20.1053 22.2296L5.12456 34.8212C3.43345 31.7294 2.27189 27.774 2.27189 24.0086C2.27189 12.0907 11.6498 2.43541 23.5388 2.36632L20.4811 21.6423L21.916 22.4887L23.8463 2.36632C23.8804 2.10723 24.0512 2.10723 24.0512 2.36632L24.1708 23.5768L27.5872 21.556L24.3246 2.36632C36.0085 2.67722 45.694 12.2116 45.694 23.9741C45.694 27.774 44.5495 31.7294 42.8413 34.8384L27.8776 22.2296L26.4427 23.0587L42.5338 34.8557C42.9267 35.1321 42.8071 35.253 42.3801 35.0284L24.3246 24.4923V28.4476L42.4313 35.443C38.6391 41.6956 31.7893 45.7028 23.9488 45.7028C16.1082 45.7028 9.36085 41.7128 5.56868 35.443L23.7096 28.4476V24.4923L4.93666 35.4602C4.49253 35.7021 4.37295 35.5639 4.78292 35.2702M4.35587 35.4775C3.55302 33.8194 2.71601 31.4703 2.37438 29.6222C2.37438 29.5185 2.3573 29.4322 2.37438 29.3285C2.4427 29.3976 2.45979 29.484 2.51103 29.6222C3.05765 31.3321 3.53594 32.8521 4.76584 35.1493L4.33879 35.4948L4.35587 35.4775ZM47.0263 19.8978C47.0263 19.8978 46.9409 19.7424 46.8897 19.6214C45.1303 14.1461 43.6441 12.0043 40.7573 8.80892C36.9651 4.59446 30.7644 1.34725 24.1708 1.32998C11.5473 1.36452 1.3153 11.7107 1.3153 24.4404C1.3153 28.2231 2.13523 31.5049 2.78434 33.1457C3.55303 35.0457 4.88541 37.6193 4.95374 37.7402C5.00498 37.8784 5.02206 37.9302 5.02206 38.0511C4.91957 37.982 4.88541 37.9129 4.8 37.792C4.4242 37.2393 2.85267 34.3721 2.3573 33.1285C1.29822 30.4167 0.512456 27.4631 0.512456 24.3541C0.529537 11.2271 11.052 0.569989 24.0342 0.569989C35.6327 0.569989 44.9936 8.72256 46.9751 19.6387C46.9751 19.7424 47.0093 19.8287 46.9751 19.9151" fill="#171823"/>
</svg>
