<svg width="57" height="52" viewBox="0 0 57 52" fill="none" xmlns="http://www.w3.org/2000/svg">
<path fill-rule="evenodd" clip-rule="evenodd" d="M12.3161 17.5499C12.3161 17.7524 12.3161 17.955 12.3161 18.1576C12.3161 26.556 19.1581 33.3495 27.5813 33.3495C34.5798 33.3495 40.4667 28.675 42.2828 22.2866L17.7803 22.5359L23.6671 18.0173L12.3161 17.5343V17.5499ZM12.8641 14.0596L37.5232 13.8259L31.5111 18.3757L42.8308 18.8587C42.8308 18.625 42.8464 18.3913 42.8464 18.1576C42.8464 9.77475 36.0045 2.96566 27.5813 2.96566C20.5828 2.96566 14.6803 7.65567 12.8798 14.0596H12.8641ZM24.9197 45.9237C25.7182 45.9237 26.2975 45.5185 26.2975 44.4902C26.2975 43.4618 25.7182 43.0567 24.9197 43.0567H20.4889C20.4889 43.0567 20.348 43.119 20.348 43.1813V45.799C20.348 45.799 20.4106 45.9392 20.4889 45.9392H24.9197V45.9237ZM44.8662 40.8597C44.8662 40.7351 44.9758 40.6416 45.0854 40.6416H48.7177C48.8429 40.6416 48.9369 40.7351 48.9369 40.8597V49.2269C48.9369 49.2269 48.9995 49.3672 49.0778 49.3672H56.7808C56.9061 49.3672 57 49.4607 57 49.5853V51.533C57 51.6576 56.9061 51.7511 56.7808 51.7511H44.9914C44.9914 51.7511 44.8505 51.6888 44.8505 51.6265V40.8597H44.8662ZM43.5353 40.6416C43.6606 40.6416 43.7546 40.7351 43.7546 40.8597V42.8074C43.7546 42.932 43.6449 43.0255 43.5353 43.0255H35.1904C35.1904 43.0255 35.0651 43.0878 35.0651 43.1502V44.8485C35.0651 44.8485 35.1278 44.9888 35.1904 44.9888H41.6879C41.8131 44.9888 41.9071 45.0823 41.9071 45.2069V47.1546C41.9071 47.2793 41.8131 47.3727 41.6879 47.3727H35.1904C35.1904 47.3727 35.0651 47.4351 35.0651 47.513V49.2113C35.0651 49.2113 35.1278 49.3516 35.1904 49.3516H43.5353C43.6606 49.3516 43.7546 49.4451 43.7546 49.5697V51.5174C43.7546 51.642 43.6449 51.7355 43.5353 51.7355H31.1197C31.1197 51.7355 30.9788 51.6732 30.9788 51.5953V40.735C30.9788 40.735 31.0414 40.5948 31.1197 40.5948H43.5353V40.6416ZM9.85809 49.1958C10.4844 49.1023 11.1106 48.6816 11.2985 47.8869C11.4081 47.4662 11.3924 44.9732 11.2985 44.4746C11.0949 43.6955 10.4687 43.3372 9.85809 43.2592C8.3394 43.0878 6.74242 43.1034 5.34899 43.2592C4.72273 43.3372 4.09644 43.6799 3.90856 44.4746C3.79897 44.9732 3.79897 47.4662 3.90856 47.8869C4.1121 48.6816 4.73838 49.1023 5.34899 49.1958C6.72677 49.3672 8.3394 49.3672 9.85809 49.1958ZM11.6899 51.7355C8.73079 52.0783 6.1631 52.0627 3.45451 51.7355C2.2333 51.5486 0.667642 50.8474 0.276228 49.3048C-0.115187 47.7623 -0.068217 44.7395 0.276228 43.0411C0.667642 41.4985 2.2333 40.7818 3.45451 40.6416C6.1631 40.3144 8.71513 40.2988 11.6899 40.6416C12.9111 40.7818 14.4767 41.4985 14.8682 43.0411C15.2126 44.7239 15.2596 47.7623 14.8682 49.3048C14.4767 50.8474 12.9111 51.5486 11.6899 51.7355ZM26.4854 48.3232H20.4732C20.4732 48.3232 20.3323 48.3855 20.3323 48.4479V51.533C20.3323 51.6576 20.2384 51.7511 20.1131 51.7511H16.4808C16.3555 51.7511 16.2616 51.6576 16.2616 51.533V40.7662C16.2616 40.7662 16.3242 40.626 16.4025 40.626H26.4854C28.599 40.626 30.1333 41.7478 30.1333 44.459C30.1333 47.1702 28.599 48.3076 26.4854 48.3076V48.3232ZM10.3278 17.4564L4.9732 17.2227V14.122L10.8131 14.0596C12.6449 6.54939 19.4556 0.986816 27.5657 0.986816C37.0849 0.986816 44.8035 8.66847 44.8035 18.142C44.8035 18.4069 44.8036 18.6717 44.7879 18.921L50.1111 19.1548V22.1931L44.3182 22.2555C42.455 29.7501 35.6601 35.2971 27.5657 35.2971C18.0465 35.2971 10.3121 27.6155 10.3121 18.1264C10.3121 17.8927 10.3121 17.659 10.3121 17.4252L10.3278 17.4564Z" fill="#171823"/>
</svg>
