<svg width="57" height="44" viewBox="0 0 57 44" fill="none" xmlns="http://www.w3.org/2000/svg">
<path d="M34.5731 11.6115L35.2356 11.9551C35.3951 11.501 35.6895 10.6786 35.9349 9.89307C35.7509 9.46348 35.5791 9.03387 35.4073 8.55518C35.2846 8.96023 35.1497 9.38983 35.0148 9.79488C34.843 10.3349 34.6835 10.8627 34.6344 11.0468C34.5854 11.2555 34.4013 11.3905 34.1805 11.3905C34.07 11.3905 33.9228 11.3537 33.7388 11.2801C33.6284 11.7219 33.5302 12.0411 33.4321 12.3847C33.3462 12.6425 33.2603 12.9371 33.1499 13.3299C33.6284 14.054 34.4136 15.2201 34.8921 15.9197C34.8921 15.9197 34.9043 15.9197 34.9166 15.9197C34.4995 15.3183 34.0823 14.6923 33.8124 14.2995C34.1437 13.0721 34.3032 12.7775 34.5731 11.5992" fill="#171823"/>
<path d="M18.3417 26.9176C18.6239 26.979 18.906 27.0895 19.2005 27.2122C18.8447 26.8808 18.4153 26.5985 17.9736 26.4021C18.1331 26.623 18.3294 26.9053 18.3294 26.9053" fill="#171823"/>
<path d="M32.1929 22.4253C32.1929 22.4253 32.2787 22.4867 32.3401 22.5235C32.3156 22.5112 32.2542 22.4621 32.1929 22.4253Z" fill="#171823"/>
<path d="M21.8259 14.5821L24.5005 14.5453L23.9607 13.8948L21.2615 13.9439C21.053 14.4348 20.5009 15.0486 19.3967 15.1222C19.4581 15.1222 19.5072 15.1222 19.5685 15.1345C19.6912 15.3063 20.0102 15.7727 20.0102 15.7727C20.7585 15.8955 21.6664 15.3186 21.8259 14.5821Z" fill="#171823"/>
<path d="M18.7587 14.4346C18.5011 14.4715 18.1575 14.5819 18.0471 14.8642L17.9122 15.2325H17.8999C18.0594 15.392 18.2434 15.5639 18.4765 15.6621C18.6115 15.4289 18.9059 15.1711 19.2863 15.122C19.2372 15.122 19.2126 15.122 19.1636 15.122H18.7464V14.7047V14.4224L18.7587 14.4346Z" fill="#171823"/>
<path d="M37.9836 8.33431C37.8977 8.15019 37.7996 7.96608 37.7382 7.75742C37.5174 6.98414 37.6891 5.92856 38.1799 5.08163C38.094 5.03254 38.0081 5.02026 37.9223 5.02026C37.6401 5.02026 37.3947 5.27802 37.272 5.48668C36.9408 6.07585 36.953 6.52999 37.3456 7.84334C37.591 8.70253 38.2044 10.2123 38.5725 11.1206L38.6584 11.317C39.0878 12.3971 39.2718 12.839 39.5294 14.1523C39.7503 15.2079 39.3577 16.2757 38.8915 16.8281C38.1063 17.7732 36.904 18.1046 36.1924 18.2274C36.5727 19.062 36.8058 19.6266 36.9162 19.9703C37.0144 20.2649 37.1862 20.4735 37.4315 20.6086C37.2352 20.093 36.9776 19.4671 36.7813 19.0129C36.7813 19.0129 38.5357 18.8042 39.5908 17.54C39.9834 17.0613 40.4005 16.2757 40.3883 15.3429C40.3637 13.2195 38.6829 10.1018 38.2658 9.03394C38.1922 8.8621 38.094 8.61662 37.9959 8.33431" fill="#171823"/>
<path d="M20.3169 9.30398C20.1452 9.08304 19.9612 8.83755 19.7526 8.55525C19.544 8.61662 19.2741 8.64117 18.9429 8.64117C18.6361 8.64117 18.2067 8.61661 17.8264 8.54297L18.219 9.09532C18.9306 9.36535 19.4581 9.42672 20.3169 9.30398Z" fill="#171823"/>
<path d="M26.672 4.60318C26.7947 4.62773 26.9174 4.62773 27.0155 4.62773C27.1995 4.62773 27.3468 4.60317 27.4817 4.56635C27.2609 4.33314 26.9787 4.30859 26.8315 4.30859C26.5616 4.30859 26.3162 4.40679 26.1567 4.57863C26.3285 4.57863 26.5125 4.5909 26.6598 4.61545" fill="#171823"/>
<path d="M39.8484 28.9431C40.0815 28.9922 40.2165 28.6117 40.1429 28.3171C40.0079 27.8016 39.6889 27.0774 39.6644 26.7583V22.4869C39.3822 22.1555 39.0019 21.5663 38.9896 21.5417V25.8991C38.9528 26.2551 39.1369 26.7215 39.235 26.8688C39.4313 27.1511 39.419 27.5439 39.284 27.7771C39.1859 27.9612 39.0141 28.0839 38.8301 28.0839H38.781H38.7442C38.5111 28.0471 38.3026 28.0103 38.1186 27.9735C37.4683 27.8507 37.0021 27.7648 36.5359 27.7648C35.9347 27.7648 35.3335 27.9121 34.4502 28.2803L34.2662 28.354L34.0944 28.2435L34.0576 28.2189C33.665 27.9735 32.9535 27.5439 32.1069 27.4334C32.4136 27.8384 32.6467 28.1576 32.6467 28.1576C33.849 28.1576 34.7447 28.7713 35.2109 29.0659C37.1616 28.2435 37.9345 28.5872 39.873 28.9308" fill="#171823"/>
<path d="M16.9675 7.73317L17.0534 7.65952L17.3233 7.43859C17.0412 7.15628 16.8203 7.10718 16.6608 7.10718C16.624 7.10718 16.575 7.10718 16.5382 7.11945C16.5382 7.15628 16.5259 7.1931 16.5259 7.1931C16.5259 7.1931 16.7467 7.48768 16.9185 7.74544C16.9308 7.74544 16.9553 7.74544 16.9675 7.73317Z" fill="#171823"/>
<path d="M25.8132 7.53662C25.8132 7.53662 25.8132 7.53662 25.8132 7.5489C25.8132 7.5489 25.8255 7.57345 25.85 7.598C25.85 7.57345 25.8623 7.56117 25.8746 7.53662H25.8132Z" fill="#171823"/>
<path d="M41.7379 11.2313C42.0692 10.9735 41.2472 9.64788 41.2717 9.37785C41.2963 9.13237 41.2963 8.91143 41.3821 8.6414C41.468 8.34682 41.6029 7.91722 41.7011 7.47535C41.8606 6.61615 41.4803 5.54829 40.8546 4.79956C41.0263 5.26598 41.0877 5.79378 41.0386 6.34612C40.9895 6.73889 40.8668 7.09485 40.7809 7.38943C40.7564 7.46307 40.7319 7.52444 40.7073 7.58581C40.6337 7.81902 40.5724 8.01542 40.5601 8.22408C40.5601 8.32227 40.6951 8.61686 40.7809 8.80097C41.0509 9.41468 41.3453 10.0407 40.8914 10.3843C40.83 10.4212 40.7319 10.4825 40.5846 10.4825C40.4988 10.4825 40.3884 10.458 40.3025 10.4212C40.5601 10.6298 40.781 10.7894 40.9159 10.8753C40.9159 10.8753 41.6152 11.3295 41.7502 11.219" fill="#171823"/>
<path d="M35.26 4.81185C35.1128 4.54182 34.9656 4.28406 34.8184 4.03857C34.9656 4.33316 35.1005 4.61546 35.2355 4.89777C35.2355 4.86095 35.26 4.8364 35.2723 4.81185" fill="#171823"/>
<path d="M30.6101 21.2961C30.6101 21.2961 31.7756 22.143 32.3523 22.5235C33.2724 23.1249 33.6896 23.4072 34.5974 23.8614C34.7201 23.8123 34.8551 23.7755 34.9778 23.7632C34.9778 23.6527 34.9532 23.4686 34.8551 23.3213C34.7446 23.1618 34.5729 23.0758 34.3275 23.0758C34.2294 23.0758 34.1312 23.0881 34.0208 23.1127H33.9962H33.9717L33.6773 23.1372H33.5546L33.4564 23.0881C33.3951 23.0513 31.9597 22.2535 30.8555 21.4434C30.5978 21.2592 30.3402 21.0629 30.1194 20.891C29.9721 20.7928 29.8372 20.6824 29.7268 20.5964C27.6289 22.5358 25.126 25.1256 24.942 25.5798C24.7212 26.1076 24.8438 26.3899 24.942 26.5986C25.0892 26.93 25.0647 27.3105 24.9052 27.5559C24.807 27.7155 24.6353 27.8137 24.4513 27.8137C24.3899 27.8137 24.3409 27.8137 24.2795 27.7891C24.0341 27.7032 22.7337 27.2982 21.47 27.2982C20.8566 27.2982 20.3658 27.3964 20.0468 27.605L19.9609 27.6664C20.2431 27.8628 20.4885 28.1083 20.7093 28.4029C21.8381 27.6664 24.3777 28.3415 25.3224 28.6484C25.58 28.7588 25.8008 28.5624 25.7763 28.1942C25.7518 27.7891 25.3469 27.2 25.5677 26.5372C25.9726 25.3466 28.9784 22.8672 30.6224 21.3083" fill="#171823"/>
<path d="M16.1333 6.78789C16.2683 6.76334 16.44 6.71425 16.6241 6.71425C16.6363 6.71425 16.6609 6.71425 16.6732 6.71425C17.0289 6.71425 17.4583 6.86154 17.9 7.51208L17.6547 7.70846L17.3111 7.9785C17.4093 8.05214 17.6792 8.12579 18.0227 8.17489C18.3172 8.22399 18.6361 8.24853 18.9429 8.24853C19.3477 8.24853 19.7035 8.19944 19.8998 8.08897C19.8998 8.08897 20.3047 8.62903 20.7709 9.24274C21.3843 10.0283 22.0836 10.9366 22.2186 11.0102C22.3412 11.0839 21.372 11.133 20.2801 11.2066C19.3477 11.2189 18.4766 11.2312 17.7773 11.2557C17.1639 11.2557 16.71 11.7344 16.5627 12.1395C16.4155 12.5445 16.2437 13.3914 16.3174 13.7597L16.6732 13.6492C16.7468 13.7842 16.8081 13.8824 16.8572 13.9806C17.1271 14.4225 17.2253 14.5698 17.6915 14.7416C17.9491 14.0911 18.7956 14.0297 19.0778 14.0297C19.1514 14.0297 19.176 14.0297 19.176 14.0297V14.7539C20.8077 14.7539 20.9549 13.5633 20.9549 13.5633L24.157 13.5142L25.0281 14.5698L26.1813 15.969C24.5251 17.6997 23.3718 19.8232 22.1204 22.1062C22.7216 22.6462 22.513 23.7632 21.5193 23.8737C21.4825 23.8737 21.4457 23.8737 21.4089 23.8737C20.8568 23.8737 20.2556 23.4809 19.5686 23.4809C19.4459 23.4809 19.3232 23.4932 19.1882 23.5177C18.0841 23.7632 18.3049 24.6469 17.4338 25.813C17.6301 25.8621 17.8141 25.9235 18.0104 25.9971C18.6852 26.2794 19.3477 26.7458 19.8262 27.2859C20.2556 27.0159 20.8445 26.9177 21.4702 26.9177C22.5744 26.9177 23.8012 27.2245 24.4024 27.4332C24.4269 27.4332 24.4392 27.4332 24.4515 27.4332C24.6232 27.4332 24.6846 27.0772 24.5619 26.7826C24.4514 26.5126 24.3042 26.1076 24.5864 25.4448C24.8441 24.8433 27.6904 21.9466 29.7147 20.1055C29.7147 20.1055 29.7392 20.1177 29.7883 20.1546C29.9601 20.2773 30.5367 20.7069 31.1256 21.1488C32.2175 21.9589 33.6652 22.7812 33.6652 22.7812L34.0332 22.7444C34.1805 22.7076 34.3154 22.6953 34.4381 22.6953C34.5117 22.6953 34.5853 22.7076 34.6467 22.7199C34.6712 22.7199 34.6958 22.7444 34.7326 22.7444C34.7816 22.7567 34.843 22.7935 34.8921 22.8181C34.9289 22.8426 34.9657 22.8672 35.0025 22.904C35.0147 22.904 35.0147 22.9163 35.027 22.9163C35.2724 23.1495 35.3705 23.4932 35.3705 23.7509C35.3705 23.8491 35.3583 23.9473 35.3337 24.0209C35.2969 24.1191 35.2478 24.2051 35.1865 24.2664C35.1742 24.2787 35.1497 24.291 35.1374 24.3155C35.0761 24.3646 35.027 24.4137 34.9657 24.4505C34.9411 24.4628 34.9166 24.4751 34.8921 24.4874C34.8307 24.5242 34.7571 24.5487 34.6712 24.5733C34.5731 24.5856 34.4504 24.5978 34.34 24.5856C33.8001 24.5487 33.2235 24.291 32.5119 24.7083C31.8004 25.1011 32.0948 26.4512 31.6654 27.0159C31.9476 27.0159 32.2298 27.0527 32.4874 27.1141C33.2972 27.2982 33.9474 27.7032 34.3032 27.9242C36.2539 27.1018 36.8428 27.3595 38.8303 27.7032C38.9775 27.7278 39.0634 27.335 38.9162 27.065C38.7935 26.844 38.5604 26.3162 38.5972 25.8989V24.6101V21.6275V21.1365C38.2046 21.1733 37.8733 21.161 37.6034 21.0874C37.3458 21.026 37.1249 20.9156 36.9532 20.7683C36.8918 20.7069 36.8305 20.6455 36.7814 20.5842C36.671 20.4369 36.5974 20.2773 36.5483 20.1177C36.3888 19.6022 35.9226 18.5835 35.6159 17.9206C35.6159 17.9206 36.9164 17.8838 37.9837 17.1719C38.2168 17.0124 38.4377 16.8282 38.6217 16.595C38.7567 16.4355 38.8793 16.2391 38.9775 16.0059C39.1738 15.5517 39.2965 14.9748 39.1984 14.2752C39.0389 13.1091 38.6094 12.1272 38.3641 11.4767C38.0205 10.5561 37.2967 8.97271 37.0268 8.0276C36.8305 7.35251 36.6956 6.87382 36.671 6.46877C36.671 6.37058 36.671 6.27237 36.671 6.17418C36.6956 5.8796 36.7692 5.60957 36.9532 5.31499C37.1372 4.95903 37.5421 4.61535 38.0205 4.65218C38.131 4.65218 38.2659 4.689 38.3886 4.75037C38.818 4.94676 38.7199 5.0695 38.6708 5.14315C38.5236 5.36408 38.4131 5.59729 38.3273 5.84278C38.0819 6.48104 38.0083 7.15613 38.1678 7.68392C38.3518 8.29763 38.7812 8.8377 39.1738 9.23048C39.4314 9.47596 39.6646 9.67234 39.8363 9.77054C39.8363 9.77054 40.5479 10.2247 40.6829 10.1265C41.0141 9.86873 40.1553 8.65358 40.1798 8.26081C40.1921 8.00305 40.2657 7.78211 40.3516 7.52436C40.4375 7.22977 40.6215 6.7879 40.6706 6.34603C40.7687 5.48683 40.4988 4.67672 39.9713 4.12438C39.6277 3.76843 39.1738 3.52295 38.634 3.4493C38.2782 3.4002 36.8305 3.17927 35.8245 4.689C35.7386 4.82402 35.6282 5.05723 35.53 5.31499C35.4441 5.60957 35.3705 5.94097 35.3828 6.27238C34.8921 5.09405 34.2909 3.74388 33.6284 2.74967C33.5425 2.6392 33.2849 2.33235 33.0395 2.06231C32.8309 1.84138 32.6346 1.64499 32.5365 1.62044C31.7022 1.3995 30.0705 1.00673 29.6166 0.982178C29.6166 0.982178 29.6043 0.982178 29.592 0.982178C29.2239 1.019 26.5249 1.98866 26.4267 2.11141L26.1077 2.44281C25.4698 2.60238 24.1447 2.81104 24.0343 2.93378C23.7521 3.27746 23.9484 3.60887 24.0343 3.74388C24.0711 3.79298 24.2797 4.54171 24.66 4.54171H25.6906C25.9237 4.14893 26.3654 3.928 26.8316 3.928C27.3346 3.928 27.8376 4.19803 28.0584 4.78719C28.0094 4.81174 27.9603 4.83629 27.9112 4.84856C27.6536 4.95903 27.4082 5.05723 27.0156 5.05723C26.9052 5.05723 26.7948 5.05723 26.6721 5.03268C26.6598 5.03268 26.6353 5.03268 26.623 5.03268C26.4758 5.00813 26.3163 4.99586 26.1691 4.99586C25.7151 4.99586 25.298 5.08178 25.0526 5.17997C24.8931 5.24134 24.795 5.29044 24.795 5.33954C24.8072 5.5482 25.8746 5.60957 26.1568 5.60957C26.4758 5.60957 26.8929 5.6464 27.3346 5.6464C27.5432 5.6464 27.7517 5.64639 27.948 5.62184C27.8989 5.69549 27.8376 5.75686 27.7763 5.81824C27.445 6.11282 26.9788 6.22328 26.6353 6.22328H24.9913C25.0772 6.56696 25.2121 6.88609 25.4084 7.15612H26.0832C26.3899 7.18067 26.4144 7.25432 26.3776 7.38934C26.3654 7.46298 26.3286 7.53662 26.304 7.62254C26.2672 7.73301 26.2182 7.85576 26.1568 7.99077C25.9728 8.44492 25.7029 8.97272 25.3226 9.31639C23.6663 7.86803 21.4334 6.05144 19.863 4.89766C19.5563 4.67673 18.6607 4.50489 17.8141 4.50489C17.3479 4.50489 16.894 4.55398 16.5627 4.67673C16.2928 4.77492 16.1211 5.00813 16.0229 5.17997L16.4891 5.31499C15.6303 5.83051 16.1701 6.80017 16.1701 6.80017M28.6105 2.55328L28.6719 2.51646C28.6719 2.51646 28.6473 2.51646 28.6105 2.55328ZM34.8307 16.325C34.8307 16.325 34.7326 16.3127 34.6835 16.2882C34.1559 15.5272 33.2235 14.1402 32.7573 13.416C33.0886 12.1886 33.2481 11.8817 33.518 10.7157C33.518 10.7157 34.0333 10.998 34.2173 10.998C34.2296 10.998 34.2418 10.998 34.2541 10.998C34.2541 10.998 34.2663 10.998 34.2663 10.9734C34.389 10.4579 35.2356 8.00305 35.3828 7.2175C35.3828 7.2175 35.5055 7.56117 35.6772 8.07669C35.8245 8.51857 35.984 8.92362 36.1557 9.30412C36.4011 9.90556 36.6588 10.4824 36.8919 11.0593C37.4071 12.3727 37.5912 12.9373 37.7629 13.821C37.8979 14.5207 37.8242 15.1712 37.5543 15.5394C37.4071 15.7236 37.174 15.969 36.806 16.1409C36.7937 16.1409 36.7814 16.1409 36.7692 16.1532C36.6833 16.19 36.5974 16.2268 36.4992 16.2636C36.4747 16.2636 36.4625 16.2759 36.4379 16.2882C36.3888 16.3127 36.3398 16.3127 36.2784 16.325C36.2416 16.325 36.2171 16.3373 36.1803 16.3495C36.0821 16.3618 35.984 16.3741 35.8981 16.3864C35.849 16.3864 35.8122 16.3864 35.7509 16.3864C35.6895 16.3864 35.6404 16.3864 35.5791 16.3864C35.481 16.3864 35.3828 16.3864 35.2847 16.3618C35.2111 16.3618 35.1497 16.3495 35.0884 16.3373C35.0148 16.3373 34.9411 16.3127 34.8553 16.3004M27.1751 2.92151C27.1137 2.71284 27.1015 2.52873 27.1506 2.27097C27.5554 2.2096 28.132 2.12368 28.5124 2.12368C28.5614 2.12368 28.6105 2.13596 28.6351 2.1605C28.7577 2.24642 28.7823 2.45509 28.5983 2.54101C28.2793 2.6883 27.6904 2.88469 27.2119 3.04425C27.1874 2.99516 27.1874 2.95833 27.1628 2.92151" fill="#171823"/>
<path d="M45.2957 35.6324C42.7439 35.6938 41.0631 37.449 41.1121 39.9775C41.1735 42.5305 42.7929 44.0403 45.3693 43.9789C47.9826 43.9175 49.5775 42.2114 49.5775 39.5233C49.5775 37.1421 47.8353 35.5588 45.2835 35.6201M45.3939 43.0092C44.0566 43.0092 43.2468 41.9168 43.1978 39.9898C43.1487 37.8909 43.9216 36.6143 45.3571 36.6021C46.7802 36.6021 47.455 37.9277 47.4918 39.8056C47.5163 40.9594 47.1605 42.997 45.3939 42.997" fill="#171823"/>
<path d="M30.4753 42.813C30.4753 42.813 30.4508 42.8376 30.4017 42.8621C30.1441 42.9849 29.6165 43.0462 29.0767 42.9603C27.7149 42.7762 26.807 41.5242 26.807 39.8672C26.807 37.891 28.5491 36.8232 29.7147 36.7741C30.8802 36.725 31.6531 36.9705 32.0212 37.0809L32.3279 36.1481C31.5059 35.7676 30.463 35.6326 29.5552 35.6326C25.8255 35.6326 24.5986 38.1365 24.5986 39.8304C24.5986 42.0275 26.0586 43.9791 29.1748 43.9791C31.3219 43.9791 32.5487 43.2426 32.5487 43.2426V39.8795H30.4876V42.8007L30.4753 42.813Z" fill="#171823"/>
<path d="M31.9475 37.0564C31.8003 37.0196 31.8739 37.0319 31.9475 37.0564V37.0564Z" fill="#171823"/>
<path d="M49.7983 36.9946H52.3134V43.635H54.4114V36.9946H57V35.9268H49.7983V36.9946Z" fill="#171823"/>
<path d="M6.55144 36.2213C5.98708 35.9759 5.6313 35.9268 4.08545 35.9268H0V43.635H2.19607V40.7874H4.26947C6.18338 40.7874 7.79058 40.3823 7.79058 38.1607C7.79058 37.4119 7.26303 36.5159 6.56372 36.2213M3.76648 39.9282H2.19607V36.8964H3.86461C4.82156 36.8964 5.56994 37.5715 5.56994 38.4062C5.56994 39.2408 4.83385 39.9282 3.76648 39.9282Z" fill="#171823"/>
<path d="M21.4088 41.217C21.4088 42.2725 20.7217 42.9476 19.7648 42.9476C18.8078 42.9476 18.0962 42.3094 18.0962 41.131V35.9268H16.0474V40.5787C16.0474 41.8798 16.3664 42.4812 16.808 42.9354C17.5442 43.6718 18.3661 43.9909 19.7648 43.9909C21.1634 43.9909 21.9854 43.6227 22.7215 42.874C23.1754 42.4321 23.4453 41.892 23.4453 40.6278V35.9268H21.3965V41.217H21.4088Z" fill="#171823"/>
<path d="M8.69849 43.635H14.6243V42.3953H10.7719V39.8913H13.8881V38.9585H10.7719V37.0192H14.6243V35.9268H8.69849V43.635Z" fill="#171823"/>
<path d="M34.303 43.635H40.241V42.4198H36.3887V39.9159H39.5049V38.983H36.3887V37.0437H40.241V35.9268H34.303V43.635Z" fill="#171823"/>
</svg>
