<svg width="62" height="58" viewBox="0 0 62 58" fill="none" xmlns="http://www.w3.org/2000/svg">
<path fill-rule="evenodd" clip-rule="evenodd" d="M30.1525 1.01346C24.486 1.23985 19.4988 2.14894 14.97 3.78106C14.2776 4.03059 13.2177 4.42927 13.1935 4.4493C13.1666 4.47147 13.503 22.194 13.5869 25.1794C13.6728 28.2358 14.0463 30.1155 15.0869 32.7278C17.3933 38.5174 21.529 43.2891 26.5412 45.9432C28.1525 46.7964 30.8343 47.9223 31.4216 47.9921C31.9211 48.0514 35.2955 46.6059 37.1682 45.5304C43.7035 41.7771 48.8143 33.8137 49.3167 26.6013C49.3521 26.092 49.3956 24.5357 49.4507 21.8103C49.4688 20.9105 49.4921 19.8213 49.5024 19.3897C49.5318 18.1514 49.6452 11.9275 49.7 8.53902C49.7275 6.84046 49.7568 5.22811 49.7651 4.95604L49.7803 4.46138L49.6397 4.40099C44.5477 2.21475 36.2383 0.770301 30.1525 1.01346ZM30.0192 1.72924C24.3909 1.93233 18.2316 3.19238 14.0401 4.99814L13.8773 5.06832L13.8981 5.69356C13.9096 6.03744 13.9284 7.02493 13.9398 7.88798C13.9642 9.73033 13.8895 9.543 14.503 9.30161C18.8518 7.59057 23.1812 6.68128 29.0525 6.24581C30.0228 6.17383 32.7902 6.16335 33.669 6.22828C39.7018 6.67416 43.7736 7.50967 48.2352 9.21717L48.9685 9.49782L48.9897 9.07685C49.0014 8.84531 49.0218 7.84457 49.0352 6.85298L49.0595 5.05009L48.5973 4.87037C42.8562 2.63756 36.1712 1.50728 30.0192 1.72924ZM30.0739 2.26323C29.7968 2.34643 29.7525 2.48318 29.7526 3.25448C29.7528 4.27292 29.6292 4.20517 31.4974 4.21095C33.1938 4.21619 33.0524 4.1807 33.0524 4.60148C33.0524 4.97955 33.1605 4.95047 31.8024 4.93771C31.1608 4.9317 30.444 4.93778 30.2096 4.95127L29.7835 4.97581L29.793 5.27045L29.8025 5.56505L31.6567 5.5728C33.996 5.58258 33.8024 5.66745 33.8024 4.63276C33.8024 3.57166 33.5558 3.47687 31.0641 3.58014C30.4785 3.60441 30.4858 3.60905 30.4858 3.21552C30.4858 2.81915 30.33 2.85104 32.1711 2.8704L33.7547 2.88706L33.7452 2.58301L33.7357 2.27899L33.219 2.25835C32.4384 2.2272 30.1823 2.23071 30.0739 2.26323ZM27.5192 2.38262C26.9877 2.42966 25.2992 2.61326 25.0027 2.65626L24.836 2.68043L24.8274 4.34102L24.8187 6.00162L24.9274 5.99945C24.9871 5.99825 25.156 5.97948 25.3026 5.95772L25.5693 5.91815L25.5785 5.409C25.5836 5.12899 25.5915 4.89985 25.596 4.89985C25.6006 4.89985 25.724 4.88506 25.8702 4.867C26.3814 4.80377 27.4665 4.69953 27.6133 4.69953C27.8971 4.69953 28.0975 4.90927 28.2722 5.38937L28.3644 5.64244L28.7248 5.62759C29.2176 5.60725 29.1867 5.19853 28.6417 4.52836L28.4919 4.34416L28.6053 4.25348C28.8211 4.08104 28.8359 4.02098 28.8359 3.31398C28.8359 2.27308 28.8271 2.26687 27.5192 2.38262ZM34.8533 2.40298C34.6368 2.5185 34.6291 2.55867 34.6019 3.7208C34.5568 5.64966 34.5542 5.64314 35.3921 5.72394C36.5826 5.83876 38.1977 6.0286 38.4939 6.08853L38.5855 6.10709V5.75613C38.5855 5.4506 38.578 5.40296 38.5272 5.38817C38.4186 5.35659 37.1737 5.19933 36.2915 5.10582C35.6417 5.03691 35.4062 5.00028 35.3837 4.96466C35.329 4.87802 35.3444 3.17853 35.4003 3.13202C35.4647 3.07843 36.8564 3.21562 38.1124 3.39935C38.3563 3.43504 38.5625 3.46422 38.5707 3.46422C38.5789 3.46422 38.5855 3.30767 38.5855 3.11629V2.7684L38.4939 2.74941C37.7181 2.58865 34.9916 2.3292 34.8533 2.40298ZM23.0861 2.96198C22.3385 3.09973 21.455 3.28156 20.7861 3.43527C19.6956 3.68587 19.7346 3.61152 19.766 5.37875C19.7957 7.05037 19.7759 7.01658 20.6114 6.81796C21.3216 6.64912 22.4161 6.42463 23.2843 6.26975C23.7504 6.18658 23.8757 6.12605 23.9764 5.93535L24.0527 5.79078L24.0525 4.5357C24.0522 2.74119 24.0758 2.77959 23.0861 2.96198ZM39.2522 4.53023V6.1972L39.4272 6.23172C39.5234 6.25072 39.6622 6.27563 39.7355 6.28708C39.8088 6.29856 39.895 6.31516 39.9271 6.32397C39.9812 6.33883 39.9855 6.29352 39.9855 5.70337C39.9855 5.19579 39.9945 5.06679 40.0298 5.06679C40.1539 5.06679 42.3014 5.52479 42.3842 5.56889C42.4242 5.59026 42.4331 5.70668 42.4342 6.22167L42.4354 6.84851L42.7899 6.93772L43.1444 7.02696L43.1675 5.72134C43.1802 5.00325 43.1856 4.25218 43.1796 4.05223L43.1687 3.68875L42.852 3.61122C42.6779 3.56859 42.5167 3.5331 42.4937 3.53236C42.4617 3.53129 42.4521 3.68607 42.4521 4.19873C42.4521 4.56598 42.4459 4.86647 42.4384 4.86647C42.4308 4.86647 42.0896 4.79225 41.68 4.70157C41.2705 4.61086 40.7217 4.49577 40.4605 4.44579L39.9855 4.35495V3.67649V2.99807L39.9105 2.98145C39.8215 2.96171 39.2839 2.86326 39.2652 2.86326C39.258 2.86326 39.2522 3.61339 39.2522 4.53023ZM27.5692 3.08678C27.0407 3.13422 25.7261 3.27088 25.6482 3.2865L25.5526 3.30563V3.75218V4.19873H25.6437C25.6937 4.19873 26.005 4.16878 26.3353 4.13222C26.6656 4.09563 27.1776 4.04522 27.4729 4.02021C28.1398 3.96372 28.0859 4.00525 28.0859 3.54845C28.0859 3.0165 28.1102 3.0382 27.5692 3.08678ZM22.0861 3.86433C20.2647 4.23819 20.4736 4.06411 20.5029 5.18364C20.5293 6.18762 20.5067 6.12996 20.8432 6.05417C21.3234 5.946 22.032 5.79866 22.6336 5.68191C22.9623 5.61814 23.2511 5.54946 23.2753 5.5293C23.3214 5.49097 23.3432 3.83244 23.2992 3.71736C23.2675 3.63459 23.1159 3.65296 22.0861 3.86433ZM44.0403 4.10692C43.9852 4.56609 44.0164 7.26518 44.077 7.28284C44.1091 7.29222 44.3003 7.34678 44.502 7.4041C45.2077 7.60469 46.4696 8.01151 47.2521 8.29076C47.6862 8.44567 48.0518 8.57241 48.0646 8.57241C48.0773 8.57241 48.0834 8.43429 48.0781 8.26548L48.0685 7.95859L47.8685 7.8794C47.66 7.79683 45.2262 6.98269 44.9353 6.89819L44.7686 6.84981L44.7592 6.47578C44.7518 6.18344 44.7594 6.10178 44.7938 6.10178C44.9061 6.10178 47.329 6.904 47.9125 7.1344L48.0804 7.20067L48.0918 6.90998C48.1069 6.5273 47.5822 6.28985 45.1196 5.56489L44.752 5.45668V5.11149C44.752 4.92166 44.7614 4.76631 44.7729 4.76631C44.8585 4.76631 46.9142 5.44075 47.713 5.73085C47.9207 5.80634 48.097 5.86807 48.1046 5.86807C48.1123 5.86807 48.1185 5.72892 48.1185 5.55881V5.24955L47.6269 5.07046C46.7371 4.74634 44.1927 3.93163 44.0703 3.93163C44.0653 3.93163 44.0518 4.01053 44.0403 4.10692ZM18.1532 4.11904C16.9941 4.45855 14.7461 5.21903 14.6857 5.29212C14.6641 5.31816 14.7127 8.57658 14.735 8.59888C14.7419 8.60583 14.8988 8.55535 15.0836 8.48667L15.4197 8.36184V7.85375V7.34567L16.378 7.02559C16.905 6.84958 17.6428 6.61427 18.0174 6.50272C19.1033 6.1794 19.0695 6.22544 19.0695 5.06679C19.0695 4.15703 19.0515 4.07276 18.8413 3.99938C18.7087 3.95307 18.7362 3.9483 18.1532 4.11904ZM17.4696 5.03353C17.0663 5.1598 16.4363 5.3659 16.0696 5.49154L15.403 5.71993L15.3987 6.17797C15.3964 6.42987 15.4029 6.63597 15.4133 6.63597C15.4236 6.63597 15.7855 6.51658 16.2175 6.37068C16.6495 6.22478 17.2939 6.01557 17.6494 5.90577C18.3996 5.67413 18.3517 5.71796 18.3524 5.2615C18.3532 4.70755 18.4396 4.72988 17.4696 5.03353ZM29.9246 6.80818C24.5591 6.97391 18.461 8.21697 14.1383 10.0261L14.009 10.0802L14.0315 12.0223C14.0699 15.3337 14.2269 23.7176 14.2724 24.8902L14.2935 25.4328H19.3761H24.4588L24.4474 23.4116C24.4375 21.6598 24.4293 21.3863 24.386 21.3589C24.08 21.1652 21.9835 21.4729 20.6259 21.9107C19.8596 22.1579 17.7716 23.1207 17.4363 23.3815L17.3696 23.4334L17.4363 23.4701C17.6724 23.5999 17.9049 23.9803 17.8681 24.1768C17.7712 24.6944 17.1085 24.8055 16.7673 24.3613L16.6164 24.165L16.3964 24.3521C16.0235 24.6689 15.7651 24.7378 15.5065 24.5892C15.1023 24.3571 15.1843 23.8863 15.677 23.6103C15.9429 23.4613 15.9549 23.4296 15.8116 23.2539C15.574 22.9627 15.531 22.7675 15.652 22.5299C15.8943 22.0542 16.4864 22.1745 16.7235 22.7475C16.7717 22.8639 16.815 22.9248 16.8422 22.9144C16.875 22.9018 17.3307 22.5991 17.5294 22.4578C17.545 22.4467 17.5172 22.3416 17.4677 22.2241C17.1133 21.385 17.0838 20.9847 17.3381 20.466C17.575 19.9829 18.1208 19.6162 18.4717 19.7045L18.5576 19.7261L18.455 19.8431C18.0178 20.3419 17.8365 21.8275 18.1864 22.0441C18.2596 22.0894 19.3915 21.6131 19.3751 21.5439C19.2679 21.0921 19.2444 20.9293 19.2424 20.6251C19.2363 19.7088 19.8883 18.927 20.6617 18.9231L20.8207 18.9223L20.5606 19.1811C20.017 19.7219 19.6618 21.0124 19.9713 21.3224C19.9878 21.339 20.0804 21.3121 20.8445 21.0689L21.3195 20.9177V20.6922C21.3195 19.6033 22.2588 18.4401 23.1382 18.4401C23.426 18.4401 23.472 18.4687 23.336 18.563C22.6448 19.0423 22.0467 19.906 21.9683 20.5382L21.9439 20.735L22.1233 20.7109C22.8083 20.619 23.0455 20.5926 23.3694 20.5723L23.736 20.5494L23.8654 20.2792C23.9584 20.0851 24.0545 19.9493 24.2071 19.7965L24.4193 19.5839V18.3029V17.022L24.2036 16.9552C22.8671 16.5417 19.4467 17.3996 17.1273 18.7299L16.985 18.8116L17.0476 18.892C17.3837 19.3239 17.1903 19.8768 16.7047 19.8722C16.4819 19.87 16.3929 19.8122 16.2202 19.5575L16.0849 19.3579L15.9377 19.4704C15.4942 19.8095 14.9918 19.7487 14.8826 19.3426C14.8062 19.0585 14.9798 18.7917 15.3582 18.6116L15.5895 18.5016L15.4847 18.3697C15.1865 17.9948 15.2246 17.6341 15.5747 17.5184C15.874 17.4195 16.1586 17.5686 16.2747 17.8851C16.3055 17.969 16.3411 18.0498 16.3538 18.0646C16.3666 18.0795 16.5492 18.0148 16.7598 17.9208L17.1426 17.75L17.1645 17.2094C17.217 15.9093 17.6636 15.2157 18.4867 15.1561L18.6883 15.1414L18.5078 15.3295C18.1421 15.7109 17.9805 16.1648 17.9772 16.8205C17.9745 17.3538 17.961 17.3419 18.3862 17.1816C18.5787 17.1091 18.8599 17.0111 19.0112 16.9638L19.2862 16.8779L19.2868 16.7065C19.2918 15.2181 20.1186 14.1814 21.1033 14.429L21.1945 14.4519L21.082 14.5345C20.5251 14.9432 20.1151 15.6338 20.023 16.3182C19.9865 16.5901 19.9438 16.5759 20.4424 16.4576C20.6773 16.4019 20.922 16.3464 20.9861 16.3342C21.0503 16.3221 21.2017 16.2903 21.3227 16.2636L21.5425 16.215L21.5837 15.9374C21.7179 15.0339 22.3241 14.3538 23.146 14.1844C23.6493 14.0807 24.3389 14.2322 23.8777 14.3452C23.0651 14.5442 22.4517 15.2083 22.3382 16.0123L22.3177 16.1571L22.5602 16.1356C22.6936 16.1238 23.0497 16.1016 23.3515 16.0863C23.7431 16.0664 23.9043 16.0464 23.9143 16.0163C24.2655 14.9609 25.4608 14.3854 26.2918 14.8715C26.4591 14.9694 26.4386 14.9949 26.1135 15.094C25.6767 15.2272 25.3433 15.4027 25.1065 15.6239L24.9027 15.8144L27.9777 15.8159L31.0527 15.8174L31.0443 11.3018L31.0358 6.78621H30.8358C30.7258 6.78621 30.3157 6.79609 29.9246 6.80818ZM24.886 8.6105C23.9463 8.70338 23.295 9.45405 23.066 10.7082C23.0351 10.8772 22.9933 11.0199 22.973 11.0254C22.9527 11.0309 22.6661 11.0911 22.3361 11.159C22.0061 11.227 21.5909 11.3188 21.4134 11.3631C20.9553 11.4775 20.9752 11.4837 21.0024 11.235C21.0972 10.3691 21.4618 9.77417 22.1944 9.29046C22.4662 9.111 22.4365 9.07454 22.0181 9.07368C20.8856 9.07131 20.2043 9.85693 20.1619 11.2141L20.1445 11.7691L19.8442 11.8428C19.679 11.8834 19.2003 12.0352 18.7804 12.1802C17.8958 12.4856 17.9666 12.5037 17.9983 11.9808C18.0496 11.1342 18.381 10.5228 19.0595 10.0225C19.4812 9.71157 18.9441 9.66626 18.3523 9.96284C17.4539 10.413 17.0861 11.3771 17.2716 12.7958L17.289 12.9294L16.9001 13.113C16.6862 13.214 16.4984 13.3016 16.4828 13.3075C16.4672 13.3135 16.4188 13.2384 16.3752 13.1406C16.2671 12.8977 16.1502 12.7908 15.9417 12.7441C15.4013 12.6229 15.0476 13.0951 15.3019 13.5982C15.3471 13.6876 15.3808 13.7635 15.3769 13.7668C15.3729 13.77 15.2929 13.8113 15.199 13.8586C14.4837 14.2184 14.6837 15.1648 15.4271 14.9377C15.5137 14.9112 15.6766 14.8266 15.7892 14.7497L15.9938 14.6098L16.1484 14.7753C16.2413 14.8748 16.3543 14.9573 16.4319 14.9823C17.0515 15.182 17.4774 14.4909 17.0062 14.0504C16.8666 13.9199 16.8875 13.9022 17.5946 13.5526C20.1198 12.3038 23.0542 11.5701 25.536 11.567C26.4714 11.5659 27.6006 11.9513 28.2759 12.5022L28.4623 12.6543L28.4394 12.4747C28.3604 11.8534 27.7248 11.3114 26.8109 11.0862C26.3951 10.9837 26.4092 11.0074 26.6073 10.7434C26.9647 10.2671 27.4679 10.0336 28.1498 10.0277C28.5524 10.0243 28.5873 9.99682 28.4065 9.82598C27.7489 9.20475 26.245 9.77954 25.7737 10.8323L25.7114 10.9714L24.8237 10.9822C23.7823 10.9948 23.9029 11.0196 23.9517 10.8028C24.1706 9.82975 24.6029 9.31383 25.4963 8.95973C25.6759 8.88855 25.8164 8.81406 25.8096 8.79366C25.7632 8.65427 25.3242 8.5672 24.886 8.6105ZM31.6747 11.5327C31.6624 11.5449 31.6524 11.6501 31.6524 11.7664C31.6524 12.059 31.7883 12.0595 31.9128 11.7673C31.9652 11.6443 32.0191 11.6821 32.0191 11.8418C32.0191 11.9998 31.9245 12.1268 31.7686 12.1784L31.6524 12.2167V12.8151C31.6524 13.1611 31.6655 13.4135 31.6834 13.4135C31.7384 13.4135 31.8127 13.3169 31.854 13.1918C31.8882 13.0879 31.8991 13.0784 31.9267 13.1277C32.0196 13.2942 31.9331 13.5389 31.755 13.6128L31.6524 13.6553V14.0666C31.6524 14.3073 31.6664 14.4866 31.6861 14.4988C31.7595 14.5442 31.8617 14.4694 31.9264 14.3229C32.0072 14.1398 32.0725 14.1968 32.0421 14.424C32.0205 14.585 31.9338 14.6808 31.7815 14.7119L31.6691 14.7349L31.6594 15.0073L31.6498 15.2797L31.7643 15.3012C31.9292 15.3321 32.012 15.274 32.0568 15.0959C32.1019 14.9163 32.1841 14.9508 32.1916 15.1526C32.2005 15.3877 32.0578 15.5299 31.8185 15.5244L31.6524 15.5206V15.669V15.8174H31.8358C31.9624 15.8174 32.0165 15.8048 32.0107 15.7766C32.0048 15.7472 32.0586 15.7386 32.2032 15.7458C32.4368 15.7575 32.4962 15.714 32.5339 15.5038C32.5695 15.305 32.6711 15.4204 32.664 15.6517L32.659 15.8174H32.8704H33.0817L33.0346 15.7263C32.9706 15.6028 33.0156 15.5717 33.1665 15.6348C33.3764 15.7227 33.4907 15.6914 33.5709 15.5243C33.6085 15.4457 33.6498 15.3919 33.6625 15.4046C33.6979 15.4401 33.6901 15.6799 33.6512 15.7528C33.6177 15.8155 33.6341 15.8174 34.2397 15.8174C34.8411 15.8174 34.8608 15.8152 34.8075 15.7563C34.7326 15.6735 34.7346 15.5743 34.8107 15.5952C35.1057 15.6762 35.2856 15.6036 35.2856 15.4035C35.2856 15.295 35.3396 15.2638 35.384 15.3468C35.4378 15.4475 35.4255 15.5892 35.3527 15.7088L35.2866 15.8174H35.7182H36.1497L36.1876 15.6763C36.2291 15.522 36.3189 15.5658 36.3189 15.7403V15.8174H37.1856C37.7837 15.8174 38.0522 15.8062 38.0522 15.7813C38.0522 15.757 38.1199 15.7525 38.261 15.7676C38.5046 15.7938 38.5649 15.7533 38.6117 15.5319L38.6396 15.4L38.6844 15.4826C38.709 15.5281 38.727 15.6219 38.7243 15.6913L38.7193 15.8174H39.3826C40.0295 15.8174 40.0455 15.8157 40.0285 15.7506C40.0126 15.6896 40.0274 15.6838 40.1982 15.6838C40.4348 15.6838 40.5188 15.6131 40.5188 15.4139C40.5188 15.2406 40.5839 15.2528 40.6491 15.4384C40.6908 15.557 40.6899 15.5846 40.6408 15.6832C40.6104 15.7442 40.5855 15.7994 40.5855 15.8058C40.5855 15.8121 40.871 15.8174 41.2199 15.8174C41.8369 15.8174 41.8535 15.8156 41.8199 15.7528C41.744 15.6107 41.7715 15.5829 41.9333 15.6382C42.1662 15.7177 42.2572 15.6921 42.3345 15.5252C42.3707 15.4472 42.4113 15.3833 42.4247 15.3833C42.4814 15.3833 42.4899 15.6116 42.437 15.7141L42.3827 15.8193L42.8257 15.81L43.2687 15.8007L43.3036 15.6556C43.3428 15.4931 43.3924 15.5133 43.4342 15.7088L43.4573 15.8174H43.9213C44.3716 15.8174 44.3853 15.8153 44.3853 15.7467C44.3853 15.6944 44.4005 15.681 44.4437 15.6952C44.8173 15.8177 44.8652 15.8103 44.9461 15.6175C45.0279 15.4223 45.1267 15.5139 45.0716 15.7339L45.0507 15.8174H45.4549C45.7651 15.8174 45.8551 15.8076 45.842 15.7756C45.8327 15.7527 45.8145 15.7076 45.8016 15.6755C45.7728 15.6037 45.8028 15.6026 45.9894 15.6686C46.1964 15.7418 46.277 15.711 46.3579 15.5278C46.4079 15.4145 46.4334 15.3864 46.455 15.4205C46.4951 15.484 46.4927 15.6743 46.4508 15.7528C46.4171 15.8158 46.4357 15.8174 47.2196 15.8174H48.023L48.0009 15.7476C47.9796 15.6804 47.9867 15.6786 48.1903 15.6987C48.3067 15.7102 48.4184 15.7078 48.4385 15.6934C48.4936 15.6539 48.5518 15.5301 48.5518 15.4523C48.5518 15.3535 48.614 15.3672 48.655 15.475C48.6893 15.5654 48.684 15.6443 48.6359 15.7589C48.6149 15.8088 48.6305 15.8174 48.7429 15.8174H48.8744L48.8964 14.8408C48.9085 14.3037 48.9184 13.6201 48.9184 13.3217L48.9185 12.7792L48.8435 12.779C48.567 12.7785 48.473 12.5529 48.7435 12.5388L48.9352 12.5287L48.9444 12.0196C48.9537 11.5044 48.8953 11.2918 48.8398 11.6391C48.792 11.9386 48.4588 12.0578 48.2435 11.8525C48.0739 11.6907 48.1265 11.6046 48.3403 11.6941C48.503 11.7622 48.5705 11.7571 48.6505 11.6711C48.7938 11.5171 48.7679 11.5104 48.0238 11.5104H47.3291L47.2897 11.6422C47.2111 11.905 46.8969 12.0057 46.7068 11.8292C46.5704 11.7026 46.5942 11.6767 46.8378 11.6858C47.0521 11.6939 47.1519 11.6467 47.1519 11.5375C47.1519 11.4821 45.0278 11.505 45.0066 11.5606C44.9437 11.7246 44.5939 11.7453 44.4515 11.5934C44.3511 11.4863 43.9854 11.4671 43.9852 11.5689C43.9845 11.8919 43.4712 12.0128 43.3179 11.726C43.2589 11.6156 43.2933 11.5924 43.4474 11.6387C43.6216 11.6909 43.7039 11.6874 43.7663 11.6249C43.8729 11.5181 43.8162 11.5104 42.9187 11.5104H42.0187V11.6139C42.0187 11.8727 41.6487 12.0398 41.4399 11.8753C41.2904 11.7575 41.3244 11.7115 41.5547 11.72C41.722 11.7262 41.7655 11.7162 41.8046 11.6627C41.9154 11.5114 41.9098 11.5104 40.8854 11.5104C39.9308 11.5104 39.9188 11.5113 39.9188 11.5794C39.9188 11.8747 39.5287 12.0263 39.3163 11.8135C39.1408 11.6377 39.1918 11.5718 39.4355 11.6597C39.6131 11.7238 39.6407 11.7223 39.7188 11.644C39.8475 11.5151 39.816 11.5104 38.8074 11.5104H37.8295L37.789 11.6456C37.7027 11.9343 37.2888 11.9997 37.1532 11.746C37.0977 11.6421 37.1091 11.6363 37.3208 11.6609C37.5189 11.6839 37.6522 11.6347 37.6522 11.5387C37.6522 11.5231 37.0222 11.5104 36.2523 11.5104H34.8523V11.6057C34.8523 11.9594 34.3224 12.108 34.1797 11.7943C34.1297 11.6845 34.1585 11.6614 34.2889 11.7069C34.4638 11.768 34.6084 11.7538 34.6671 11.6699C34.7786 11.5105 34.7784 11.5104 33.8222 11.5104H32.9254L32.943 11.642C32.9947 12.0281 32.6286 12.2278 32.3607 11.9595C32.2184 11.817 32.2468 11.7458 32.4215 11.8068C32.6829 11.898 32.8524 11.8084 32.8524 11.5789C32.8524 11.5099 31.7409 11.4663 31.6747 11.5327ZM33.733 11.7034C33.7009 11.9047 33.628 11.9563 33.402 11.9375C33.184 11.9194 33.1578 11.942 33.2602 12.06C33.4723 12.3045 33.8675 12.1389 33.8675 11.8057C33.8675 11.6025 33.7619 11.5222 33.733 11.7034ZM40.5421 11.5984C40.5293 11.6112 40.5188 11.6626 40.5188 11.7126C40.5188 11.8892 40.4197 11.9599 40.1854 11.9506C40.006 11.9435 39.9804 11.9498 39.9982 11.9963C40.0095 12.0259 40.0188 12.056 40.0188 12.0632C40.0188 12.1012 40.2316 12.1782 40.3364 12.1782C40.5084 12.1782 40.6526 12.0302 40.651 11.8552C40.6497 11.7202 40.5814 11.5591 40.5421 11.5984ZM35.719 11.7033C35.719 11.9 35.6365 11.9557 35.3807 11.9319C35.2551 11.9202 35.1523 11.9192 35.1523 11.9298C35.1523 12.044 35.3512 12.1782 35.5206 12.1782C35.7447 12.1782 35.9242 11.8743 35.8178 11.6752C35.768 11.5819 35.719 11.5959 35.719 11.7033ZM38.6742 11.6587C38.6621 11.6904 38.6522 11.7502 38.6522 11.7918C38.6522 11.9299 38.5452 11.9878 38.3201 11.9715C38.0864 11.9546 38.0627 11.9914 38.2214 12.1251C38.4564 12.3232 38.7855 12.1743 38.7855 11.87C38.7855 11.7002 38.7119 11.5604 38.6742 11.6587ZM45.5025 11.7746C45.4683 11.9769 45.3935 12.0246 45.1528 11.9973C44.9399 11.9732 44.9215 11.9862 45.0032 12.103C45.2213 12.4149 45.7311 12.1405 45.6205 11.7708C45.5719 11.6083 45.5303 11.6096 45.5025 11.7746ZM36.7097 11.8122C36.6825 12.0147 36.6424 12.0446 36.3982 12.0446C36.1588 12.0446 36.1412 12.0681 36.2882 12.1919C36.5805 12.4383 36.9745 12.1162 36.8136 11.7624C36.7591 11.6427 36.7305 11.6564 36.7097 11.8122ZM42.8012 11.8527C42.7254 12.016 42.6549 12.0394 42.4295 11.9762C42.209 11.9144 42.1868 12.0522 42.3967 12.1804C42.6809 12.3539 43.0349 12.0916 42.9363 11.7804C42.9039 11.6784 42.8748 11.694 42.8012 11.8527ZM47.9665 11.9973C47.9009 12.1984 47.87 12.2475 47.7974 12.2658C47.7223 12.2846 47.537 12.2628 47.4329 12.2227C47.3591 12.1944 47.3755 12.2967 47.4602 12.3945C47.6735 12.6403 48.0724 12.4698 48.0637 12.1366C48.0597 11.9842 47.9991 11.8974 47.9665 11.9973ZM37.703 12.2135C37.6527 12.4545 37.606 12.4887 37.3628 12.4625C37.1072 12.4351 37.0794 12.4987 37.2858 12.6388C37.5846 12.8415 37.9838 12.4503 37.7729 12.1614C37.7301 12.1027 37.7254 12.1061 37.703 12.2135ZM46.2894 12.2444C46.2341 12.4293 46.1591 12.4618 45.937 12.3971C45.6742 12.3206 45.6432 12.3574 45.8153 12.5419C46.0773 12.8228 46.5366 12.5252 46.3984 12.1642C46.3654 12.0782 46.3317 12.103 46.2894 12.2444ZM39.3591 12.2872C39.2763 12.4746 39.2001 12.5026 38.9846 12.425C38.7993 12.3583 38.7579 12.3747 38.8119 12.4935C38.9276 12.7478 39.3568 12.7465 39.4537 12.4915C39.5429 12.2564 39.4557 12.0683 39.3591 12.2872ZM41.2429 12.1652C41.2296 12.1785 41.2188 12.2227 41.2188 12.2635C41.2188 12.4441 41.069 12.5189 40.8104 12.4672C40.6575 12.4367 40.64 12.5029 40.7673 12.6304C40.9691 12.8326 41.3521 12.6735 41.3521 12.3875C41.3521 12.2552 41.2864 12.1216 41.2429 12.1652ZM44.5726 12.3112C44.5424 12.5006 44.4353 12.566 44.2371 12.516C43.9825 12.4518 43.9454 12.496 44.1163 12.66C44.3773 12.9105 44.7981 12.6375 44.6842 12.2917C44.6349 12.142 44.5986 12.1483 44.5726 12.3112ZM43.5854 12.3878C43.5854 12.5871 43.5067 12.653 43.2842 12.6401C43.0512 12.6267 43.0158 12.6527 43.1183 12.7621C43.3969 13.0591 43.8768 12.7035 43.6842 12.3429C43.6316 12.2447 43.5854 12.2657 43.5854 12.3878ZM34.0887 12.4673C34.0358 12.6641 33.9888 12.6917 33.7521 12.6649C33.5164 12.6382 33.4879 12.6855 33.6549 12.8263C33.9382 13.065 34.3879 12.6893 34.1723 12.3941C34.1286 12.3342 34.1232 12.339 34.0887 12.4673ZM47.1197 12.4745C47.0693 12.6621 46.9653 12.7285 46.796 12.6814C46.5333 12.6083 46.486 12.6515 46.6493 12.8151C46.8722 13.0383 47.2352 12.8812 47.2352 12.5616C47.2352 12.3493 47.1671 12.298 47.1197 12.4745ZM35.0656 12.5107C35.0003 12.6743 34.9139 12.7049 34.6926 12.6429C34.4627 12.5784 34.4325 12.6106 34.5696 12.7738C34.7912 13.0375 35.1856 12.8933 35.1856 12.5486C35.1856 12.3657 35.1305 12.3482 35.0656 12.5107ZM32.4024 12.555C32.3238 12.7208 32.2243 12.7484 32.0121 12.6634C31.8567 12.6011 31.8363 12.6102 31.866 12.7285C31.9433 13.0371 32.478 12.9824 32.5384 12.6599C32.5843 12.415 32.4997 12.3497 32.4024 12.555ZM42.0187 12.5075C42.0187 12.701 41.9035 12.7878 41.6809 12.7619C41.4097 12.7304 41.4214 12.8726 41.6986 12.9781C41.9702 13.0816 42.2573 12.7379 42.1176 12.4765C42.0672 12.3823 42.0187 12.3975 42.0187 12.5075ZM40.287 12.5908C40.2244 12.781 40.135 12.8244 39.9328 12.7629C39.724 12.6995 39.7188 12.6998 39.7188 12.7762C39.7188 12.8787 39.905 13.0129 40.0473 13.0129C40.3065 13.0129 40.5081 12.7139 40.3733 12.5293C40.331 12.4713 40.325 12.4755 40.287 12.5908ZM38.5053 12.6577C38.4771 12.8082 38.3807 12.8922 38.2618 12.8697C38.2107 12.8601 38.1126 12.8413 38.0439 12.828C37.8897 12.7981 37.8828 12.8378 38.0161 12.9873C38.2216 13.2177 38.6189 13.071 38.6189 12.7647C38.6189 12.5403 38.541 12.467 38.5053 12.6577ZM45.3687 12.6788C45.3355 12.8751 45.2375 12.9319 45.0096 12.8866C44.8058 12.8461 44.7951 12.8512 44.8466 12.9644C44.9902 13.2799 45.4853 13.1245 45.4853 12.764C45.4853 12.5575 45.3997 12.495 45.3687 12.6788ZM33.2388 12.6911C33.1978 12.9097 33.1018 12.9423 32.7441 12.8594C32.6867 12.8461 32.6524 12.8519 32.6524 12.8749C32.6524 12.9674 32.8387 13.1176 32.9764 13.1361C33.2257 13.1695 33.4282 12.8824 33.3321 12.6316C33.2994 12.5463 33.2613 12.5706 33.2388 12.6911ZM35.9987 12.7784C35.9222 12.9699 35.8552 12.9971 35.6326 12.927C35.4279 12.8625 35.3961 12.8728 35.4535 12.9849C35.6261 13.322 36.1189 13.21 36.1189 12.8338C36.1189 12.6341 36.066 12.6097 35.9987 12.7784ZM36.9409 12.7124C36.9319 12.7399 36.9155 12.8036 36.9045 12.8538C36.8736 12.995 36.7522 13.0586 36.5964 13.0153C36.333 12.942 36.2711 13.0053 36.4548 13.1601C36.7404 13.4008 37.1789 13.0819 37.0078 12.7578C36.9713 12.6887 36.9528 12.6762 36.9409 12.7124ZM48.4043 12.9017C48.3559 13.1222 48.2471 13.1771 48.0185 13.0963C47.7834 13.0133 47.7315 13.1005 47.9211 13.2603C48.2108 13.5044 48.6893 13.1594 48.4726 12.8625C48.4294 12.8033 48.4253 12.8056 48.4043 12.9017ZM42.8649 12.951C42.813 13.1322 42.694 13.1941 42.5165 13.1321C42.2574 13.0418 42.2033 13.1027 42.3828 13.2825C42.638 13.5381 43.0594 13.2762 42.9644 12.921C42.9364 12.8164 42.9003 12.8273 42.8649 12.951ZM39.2414 12.9694C39.2324 13.0025 39.2165 13.0683 39.2061 13.1157C39.184 13.2159 39.0514 13.2878 38.9336 13.2634C38.8888 13.2541 38.8147 13.2388 38.7689 13.2292C38.6557 13.2057 38.6581 13.2911 38.7737 13.3984C38.9941 13.603 39.3522 13.4408 39.3522 13.1364C39.3522 12.976 39.2723 12.8557 39.2414 12.9694ZM46.2665 13.0692C46.1965 13.3014 46.104 13.3366 45.7603 13.2624C45.6171 13.2315 45.6187 13.2867 45.7653 13.4335C46.0009 13.6696 46.3519 13.5305 46.3519 13.201C46.3519 13.045 46.2986 12.9627 46.2665 13.0692ZM37.6852 13.1643C37.6245 13.3486 37.5335 13.3915 37.3329 13.3305C37.0787 13.2533 37.039 13.3052 37.2163 13.4828C37.4641 13.731 37.8866 13.4786 37.8003 13.134C37.7702 13.0138 37.7314 13.024 37.6852 13.1643ZM44.5755 13.1854C44.5477 13.393 44.4534 13.4602 44.2272 13.4335C44.0358 13.411 43.9968 13.4533 44.1125 13.5582C44.3687 13.7904 44.746 13.6053 44.7058 13.267C44.6809 13.0575 44.5994 13.0065 44.5755 13.1854ZM41.0888 13.2303C41.0427 13.4138 40.9466 13.4671 40.7568 13.4142C40.5271 13.3503 40.4777 13.4144 40.6403 13.5653C40.8607 13.7699 41.2188 13.6077 41.2188 13.3033C41.2188 13.0802 41.138 13.0348 41.0888 13.2303ZM43.7592 13.2292C43.7118 13.4067 43.6283 13.4423 43.3789 13.3912C43.1812 13.3506 43.1569 13.4222 43.3213 13.5608C43.553 13.7561 43.8853 13.6034 43.8853 13.3016C43.8853 13.0507 43.8173 13.0116 43.7592 13.2292ZM47.4431 13.2107C47.4132 13.4342 47.3401 13.4913 47.1102 13.4705C46.8945 13.4511 46.866 13.486 46.9971 13.6093C47.303 13.8971 47.7573 13.4739 47.5084 13.133C47.4656 13.0744 47.4606 13.0803 47.4431 13.2107ZM34.3891 13.3483C34.3343 13.5317 34.2452 13.5695 34.0226 13.5042C33.829 13.4473 33.7858 13.4746 33.8688 13.6014C34.053 13.8831 34.519 13.7591 34.519 13.4284C34.519 13.1902 34.4493 13.1472 34.3891 13.3483ZM35.1856 13.5042C35.1856 13.717 35.116 13.7808 34.8838 13.7808C34.6687 13.7808 34.6317 13.8217 34.7497 13.9287C35.0128 14.1671 35.4415 13.8589 35.3043 13.5299C35.2356 13.3653 35.1856 13.3545 35.1856 13.5042ZM40.1385 13.4924C40.0976 13.7109 40.0016 13.7436 39.6438 13.6607C39.5176 13.6314 39.5254 13.6938 39.6655 13.8342C39.9395 14.1086 40.3731 13.8015 40.2319 13.4329C40.1992 13.3476 40.1611 13.3719 40.1385 13.4924ZM32.5524 13.547C32.5524 13.7421 32.467 13.8141 32.2357 13.8141C32.0311 13.8141 32.0155 13.8345 32.134 13.9461C32.3983 14.1948 32.8163 13.8781 32.674 13.5371C32.6066 13.3754 32.5524 13.3798 32.5524 13.547ZM41.9187 13.5305C41.9004 13.5787 41.8854 13.6319 41.8854 13.6486C41.8854 13.747 41.723 13.7875 41.554 13.7313C41.3478 13.6627 41.2981 13.6854 41.3737 13.8136C41.5551 14.1211 42.0187 13.9928 42.0187 13.6351C42.0187 13.4592 41.9665 13.4046 41.9187 13.5305ZM45.403 13.6389C45.3517 13.8445 45.2092 13.896 44.9691 13.7955C44.8246 13.735 44.8027 13.746 44.8322 13.8637C44.9098 14.1734 45.4435 14.1214 45.504 13.7984C45.5418 13.5966 45.4497 13.4512 45.403 13.6389ZM48.6753 13.6862C48.6474 13.8944 48.5546 13.9599 48.3279 13.9315C48.1342 13.9073 48.0945 13.9522 48.2139 14.0604C48.4627 14.2859 48.8463 14.0963 48.8061 13.7678C48.7805 13.5581 48.6993 13.5074 48.6753 13.6862ZM33.4936 13.7273C33.4419 13.9209 33.3632 13.9668 33.1674 13.9174C32.9237 13.8559 32.8767 13.9083 33.0342 14.066C33.2361 14.2683 33.619 14.1092 33.619 13.8231C33.619 13.6028 33.5425 13.5443 33.4936 13.7273ZM38.3189 13.7127C38.3189 13.9029 38.1909 13.9888 37.9484 13.9613C37.7478 13.9386 37.7454 13.9393 37.783 14.0097C37.9753 14.3695 38.5322 14.1515 38.4324 13.7554C38.3931 13.5995 38.3189 13.5716 38.3189 13.7127ZM36.8522 13.7728C36.8522 13.9537 36.7713 14.0213 36.5634 14.0141C36.3124 14.0054 36.3119 14.0056 36.3521 14.0809C36.5431 14.4384 37.1585 14.1271 36.9812 13.7626C36.9097 13.6157 36.8522 13.6203 36.8522 13.7728ZM39.3448 13.7009C39.3353 13.7173 39.3175 13.7868 39.3051 13.8555C39.2753 14.021 39.1969 14.0596 38.9489 14.0308C38.7281 14.0051 38.7083 14.0282 38.8389 14.159C39.057 14.3775 39.3917 14.2745 39.4404 13.974C39.459 13.8592 39.3814 13.6375 39.3448 13.7009ZM42.7531 13.824C42.7513 14.0317 42.6353 14.1211 42.4032 14.0938C42.1892 14.0686 42.1534 14.125 42.3066 14.2457C42.6181 14.4912 43.0704 14.0774 42.8198 13.7761L42.7543 13.6973L42.7531 13.824ZM46.6227 13.847C46.5681 14.0293 46.4881 14.0666 46.2606 14.0156C46.0502 13.9684 46.023 13.9819 46.0977 14.0962C46.3374 14.4625 46.8885 14.1761 46.7317 13.7668C46.6987 13.6808 46.665 13.7056 46.6227 13.847ZM36.0327 13.8058C35.9651 14.0321 35.8318 14.0853 35.544 14.0007C35.4127 13.9622 35.4193 14.0809 35.5549 14.1951C35.819 14.4178 36.2402 14.1502 36.1208 13.8356C36.0817 13.7327 36.057 13.7244 36.0327 13.8058ZM47.7852 13.9477C47.7852 14.1446 47.694 14.2225 47.474 14.2135C47.2446 14.2042 47.244 14.2044 47.2867 14.2844C47.4817 14.6493 48.078 14.3074 47.9004 13.9326C47.8267 13.7771 47.7852 13.7826 47.7852 13.9477ZM43.5854 13.9934C43.5854 14.2231 43.4788 14.3007 43.2136 14.2642C43.0175 14.2372 42.9958 14.3035 43.1606 14.4266C43.4279 14.6263 43.7909 14.3666 43.698 14.0421C43.6599 13.9091 43.5854 13.8768 43.5854 13.9934ZM34.519 14.1769C34.519 14.3754 34.404 14.4582 34.164 14.4325C33.9284 14.4072 33.9079 14.4282 34.0394 14.56C34.3214 14.8424 34.7786 14.5289 34.6136 14.1663C34.5624 14.0535 34.519 14.0584 34.519 14.1769ZM44.4666 14.2101C44.4004 14.3761 44.3085 14.4107 44.1073 14.3457C43.9205 14.2853 43.9002 14.2873 43.9132 14.365C43.977 14.7443 44.5843 14.6515 44.5954 14.2608C44.6006 14.075 44.5315 14.0478 44.4666 14.2101ZM41.1188 14.224C41.1188 14.4224 41.0452 14.4819 40.8002 14.4819C40.5647 14.4819 40.5461 14.4999 40.6655 14.6124C40.9407 14.8713 41.3805 14.5741 41.2357 14.227C41.1761 14.084 41.1188 14.0826 41.1188 14.224ZM45.7732 14.2772C45.7431 14.4652 45.6919 14.4939 45.4355 14.4665C45.2087 14.4421 45.1871 14.4554 45.2673 14.57C45.4951 14.8958 46.0742 14.5685 45.8877 14.2194C45.8315 14.1142 45.7964 14.132 45.7732 14.2772ZM37.4602 14.3283C37.4085 14.5219 37.3298 14.5677 37.1339 14.5183C36.8591 14.449 36.8176 14.4857 36.983 14.6514C37.2003 14.8691 37.5856 14.7237 37.5856 14.4241C37.5856 14.2038 37.509 14.1453 37.4602 14.3283ZM40.29 14.4466C40.225 14.6637 40.1043 14.6897 39.7654 14.5594C39.6852 14.5286 39.7124 14.6666 39.8046 14.759C40.0297 14.9845 40.4188 14.8246 40.4188 14.5066C40.4188 14.3337 40.3354 14.2949 40.29 14.4466ZM38.3755 14.4363C38.3627 14.4491 38.3522 14.4988 38.3522 14.5468C38.3522 14.7334 38.2663 14.7933 38.0306 14.7713C37.782 14.748 37.7551 14.7894 37.9256 14.9331C38.2078 15.171 38.6214 14.8147 38.441 14.4892C38.4177 14.4473 38.3883 14.4235 38.3755 14.4363ZM32.8524 14.5298C32.8524 14.7697 32.7686 14.8479 32.5107 14.8486C32.2961 14.8492 32.2811 14.8686 32.4051 14.9852C32.6894 15.2527 33.1167 14.8992 32.9349 14.547C32.873 14.4272 32.8524 14.4229 32.8524 14.5298ZM35.3223 14.5738C35.2692 14.7657 35.1666 14.8321 34.9964 14.7848C34.733 14.7115 34.6712 14.7748 34.8549 14.9296C35.1399 15.1699 35.5512 14.8851 35.4092 14.5456L35.3616 14.4318L35.3223 14.5738ZM42.1517 14.5999C42.091 14.7842 42 14.8271 41.7994 14.7661C41.5452 14.6889 41.5055 14.7408 41.6828 14.9185C41.9306 15.1666 42.3532 14.9142 42.2668 14.5696C42.2367 14.4494 42.1979 14.4596 42.1517 14.5999ZM47.2 14.6055C47.1661 14.8145 47.0952 14.8624 46.8524 14.8403C46.6162 14.8189 46.5923 14.8597 46.7587 15C46.9875 15.1928 47.3186 15.0372 47.3186 14.7368C47.3186 14.5179 47.2301 14.42 47.2 14.6055ZM39.2855 14.6315C39.2855 14.8546 39.1912 14.9239 38.9233 14.8973C38.6949 14.8748 38.6886 14.8841 38.828 15.0394C39.0541 15.2912 39.4847 15.0307 39.3998 14.6935C39.3624 14.5449 39.2855 14.5032 39.2855 14.6315ZM33.6981 14.7165C33.6265 14.8957 33.5415 14.9277 33.3228 14.8576C33.1244 14.794 33.0963 14.8085 33.1641 14.9397C33.3286 15.2584 33.819 15.1314 33.819 14.7702C33.819 14.5699 33.7661 14.5463 33.6981 14.7165ZM48.4026 14.7446C48.3682 14.9483 48.2938 14.9961 48.0527 14.9687C47.8408 14.9447 47.8317 14.9492 47.8862 15.0513C48.0609 15.3783 48.6153 15.1476 48.5349 14.7812C48.498 14.613 48.4281 14.5936 48.4026 14.7446ZM45.1311 14.818C45.0997 15.0144 45.0495 15.0495 44.7996 15.0495C44.5585 15.0495 44.5408 15.0728 44.6879 15.1967C44.9715 15.4358 45.3807 15.1425 45.2386 14.8019C45.1748 14.6488 45.1577 14.6513 45.1311 14.818ZM36.1425 14.7401C36.1346 14.7541 36.1183 14.8068 36.1063 14.857C36.0663 15.025 35.9439 15.0718 35.7324 14.9998C35.5302 14.9309 35.4955 14.9416 35.5535 15.0549C35.7261 15.392 36.2189 15.28 36.2189 14.9038C36.2189 14.7659 36.1777 14.6775 36.1425 14.7401ZM43.1345 14.8251C43.1102 14.955 42.9733 15.0981 42.9002 15.0701C42.8784 15.0617 42.7898 15.0442 42.7033 15.0312L42.546 15.0076L42.5965 15.1055C42.7554 15.4133 43.252 15.2971 43.252 14.9521C43.252 14.7564 43.165 14.6623 43.1345 14.8251ZM46.3354 14.8487C46.2869 15.0697 46.1384 15.103 45.8103 14.9664C45.7125 14.9257 45.7391 15.0752 45.8494 15.1856C46.1077 15.4443 46.5629 15.1443 46.4317 14.8018C46.4002 14.7195 46.3593 14.7394 46.3354 14.8487ZM36.9063 15.016C36.8321 15.1844 36.7486 15.2069 36.5253 15.1187L36.3523 15.0504V15.1193C36.3523 15.2437 36.529 15.3833 36.6864 15.3833C36.9229 15.3833 37.1105 15.1402 37.032 14.9353C37.0002 14.8524 36.9697 14.8721 36.9063 15.016ZM44.1655 15.1258C44.0908 15.2913 43.968 15.3236 43.7482 15.2354C43.5386 15.1515 43.5178 15.2221 43.6987 15.4034C43.9308 15.6358 44.2828 15.4896 44.2846 15.1599C44.2856 14.9696 44.2417 14.957 44.1655 15.1258ZM34.4355 15.1555C34.4018 15.3356 34.3023 15.4287 34.173 15.4012C33.8134 15.3246 33.7754 15.3447 33.9498 15.5194C34.2332 15.8033 34.7397 15.419 34.5053 15.098C34.4611 15.0375 34.457 15.0409 34.4355 15.1555ZM41.4074 15.072C41.3953 15.0841 41.3854 15.1417 41.3854 15.2001C41.3854 15.368 41.2908 15.4301 41.0697 15.4072C40.8646 15.386 40.832 15.4064 40.9047 15.5105C41.1049 15.7967 41.6107 15.5598 41.5352 15.2153C41.513 15.1141 41.4433 15.036 41.4074 15.072ZM37.7053 15.2619C37.6771 15.4123 37.5807 15.4963 37.4619 15.4739C37.4107 15.4643 37.3124 15.4455 37.2433 15.4321C37.1216 15.4085 37.1186 15.4102 37.1467 15.4874C37.2695 15.8256 37.8189 15.7288 37.8189 15.3688C37.8189 15.1445 37.741 15.0712 37.7053 15.2619ZM39.6188 15.2819C39.6188 15.4875 39.4628 15.5783 39.2103 15.5195C39.063 15.4853 39.0352 15.5112 39.1078 15.615C39.3324 15.9362 39.8391 15.6869 39.7308 15.3086C39.6899 15.1656 39.6188 15.1487 39.6188 15.2819ZM47.5665 15.2727C47.4887 15.5308 47.4072 15.5807 47.1818 15.5085C46.9744 15.4421 46.9363 15.4567 46.9992 15.5784C47.1787 15.9262 47.7351 15.7268 47.6615 15.3411C47.6397 15.2269 47.5909 15.1918 47.5665 15.2727ZM24.7434 16.1429C24.6834 16.2567 24.7818 26.91 24.8457 27.2085C25.6419 30.9324 29.8002 33.2933 33.5323 32.1403C36.1934 31.3182 38.0413 29.2149 38.3168 26.6944C38.3402 26.4797 38.3522 24.639 38.3522 21.244V16.1178H31.5544C27.8156 16.1178 24.7507 16.1291 24.7434 16.1429ZM25.1218 20.6501C25.1256 27.1865 25.1243 27.1698 25.7073 28.4032C28.2686 33.8218 36.4431 32.9677 37.8396 27.1355C37.8957 26.901 37.9002 26.5543 37.91 21.6684L37.9205 16.4517H31.5199H25.1193L25.1218 20.6501ZM25.4415 16.7745C25.4039 16.8121 25.4156 26.0099 25.4538 26.4177C26.0676 32.9685 35.8197 33.5966 37.5102 27.1942L37.6007 26.8517L37.6107 21.8019L37.6208 16.7522H31.5422C28.1991 16.7522 25.4537 16.7622 25.4415 16.7745ZM26.5026 17.3508C25.9654 17.4806 25.9488 18.189 26.481 18.2718C26.7214 18.3092 26.8511 18.358 26.9014 18.4299C27.0925 18.7032 26.6529 18.9186 26.3391 18.7053C26.1407 18.5704 25.9807 18.6571 26.0978 18.8361C26.2871 19.1256 26.9376 19.1129 27.1182 18.8161C27.332 18.4649 27.1414 18.1479 26.6593 18.0529C26.3462 17.9912 26.2388 17.8314 26.4011 17.6688C26.5142 17.5555 26.7307 17.5556 26.8841 17.669C27.0858 17.818 27.2099 17.6528 27.0276 17.4782C26.9542 17.4079 26.6991 17.3115 26.6193 17.324C26.6101 17.3254 26.5576 17.3375 26.5026 17.3508ZM30.1195 17.3531C29.6824 17.374 29.5664 17.5869 29.9922 17.5869H30.1191V18.3057C30.1191 18.9405 30.1255 19.027 30.1737 19.0456C30.3209 19.1021 30.3353 19.0391 30.3448 18.2927L30.3538 17.5869H30.4671C30.6303 17.5869 30.6858 17.5568 30.6858 17.4684C30.6858 17.3356 30.6479 17.3279 30.1195 17.3531ZM31.2528 17.3514C30.9191 17.3675 30.8684 17.3776 30.8584 17.4299C30.8401 17.5261 30.9168 17.5869 31.0565 17.5869H31.1858V18.2357C31.1858 18.9093 31.2083 19.0559 31.3116 19.0559C31.4425 19.0559 31.4524 19.0012 31.4524 18.2813V17.5869H31.5791C31.7166 17.5869 31.7858 17.5403 31.7858 17.4478C31.7858 17.3981 31.6794 17.3055 31.6463 17.3264C31.6405 17.3301 31.4634 17.3414 31.2528 17.3514ZM32.3341 17.3667C31.7235 17.6331 31.877 19.0559 32.5163 19.0559C32.9278 19.0559 33.3068 18.4725 33.1212 18.1251C33.0583 18.0074 32.5191 18.0176 32.5191 18.1366C32.5191 18.2374 32.6104 18.2916 32.7522 18.275C32.9381 18.2534 32.9285 18.5189 32.7364 18.7113C32.4757 18.9724 32.1879 18.7158 32.1867 18.2212C32.1853 17.6679 32.4696 17.3754 32.737 17.655C32.9141 17.8401 33.0729 17.7069 32.915 17.5057C32.7811 17.3353 32.539 17.2773 32.3341 17.3667ZM33.8766 17.3615C33.7922 17.4253 33.332 18.9159 33.3754 18.9848C33.4489 19.1016 33.5654 19.0513 33.6166 18.8806L33.6641 18.722H33.9909H34.3177L34.339 18.8138C34.3897 19.0327 34.5428 19.1318 34.6166 18.9935C34.6536 18.9243 34.1877 17.4884 34.0925 17.3782C34.0331 17.3094 33.9535 17.3033 33.8766 17.3615ZM27.332 17.4013C27.2869 17.5192 27.3329 17.5699 27.4945 17.5803L27.6526 17.5905V18.2704C27.6526 19.0138 27.6586 19.0559 27.7661 19.0559C27.9107 19.0559 27.9192 19.0129 27.9192 18.2832V17.5907L28.0575 17.5804C28.2047 17.5695 28.2779 17.501 28.2422 17.4078C28.2129 17.3312 27.3612 17.3251 27.332 17.4013ZM28.4663 17.3988C28.143 18.2427 28.7842 19.3776 29.3505 18.9637C29.6077 18.7757 29.7178 17.3531 29.4752 17.3531C29.3299 17.3531 29.3192 17.3993 29.3192 18.0231C29.3192 18.7481 29.2541 18.8793 28.9366 18.7943C28.7322 18.7395 28.7043 18.6486 28.6859 17.9767L28.6692 17.3698L28.5773 17.3593C28.5189 17.3525 28.4785 17.3669 28.4663 17.3988ZM34.907 17.4032C34.8465 17.5609 34.8846 18.9862 34.9501 19.0213C35.0947 19.0988 35.1523 19.0082 35.1523 18.7029V18.4549L35.2606 18.4553C35.3582 18.4557 35.3871 18.4821 35.5523 18.7215C35.7383 18.991 35.7993 19.0408 35.8976 19.003C35.9897 18.9676 35.9596 18.8728 35.786 18.6508C35.638 18.4617 35.6261 18.4345 35.6773 18.4048C36.0678 18.1782 36.1173 17.6879 35.775 17.4384C35.6439 17.3428 34.941 17.3144 34.907 17.4032ZM36.2292 17.4078C36.1936 17.5009 36.2668 17.5695 36.4133 17.5804L36.551 17.5906L36.5599 18.2946C36.5696 19.0528 36.5895 19.1329 36.7439 19.0354C36.796 19.0025 36.8032 18.9228 36.8113 18.2946L36.8202 17.5906L36.9578 17.5804C37.1044 17.5695 37.1776 17.5009 37.1419 17.4078C37.124 17.3611 37.0579 17.3531 36.6856 17.3531C36.3132 17.3531 36.2471 17.3611 36.2292 17.4078ZM35.119 17.904V18.2212H35.304C35.5386 18.2212 35.6768 18.1505 35.7405 17.9976C35.8438 17.75 35.6836 17.5869 35.3368 17.5869H35.119V17.904ZM33.8566 18.0472C33.7953 18.2622 33.738 18.457 33.7293 18.48C33.7174 18.5112 33.7819 18.5217 33.9865 18.5217C34.1909 18.5217 34.2556 18.5112 34.244 18.48C34.2355 18.457 34.18 18.273 34.1208 18.071C33.9804 17.5925 33.9861 17.593 33.8566 18.0472ZM31.4981 19.5557C31.2664 19.6383 31.1853 19.6963 31.0519 19.8746C30.9895 19.9581 30.9003 20.0358 30.8538 20.0474C30.7549 20.0719 30.4326 20.2219 30.2222 20.3414C30.108 20.4062 30.028 20.4247 29.8629 20.4247C29.3882 20.4247 29.2121 20.6721 29.5756 20.8282C29.8266 20.9359 29.6637 21.0462 29.3795 20.961C29.2384 20.9186 28.4859 21.4069 28.4859 21.5408C28.4859 21.5654 28.4484 21.6102 28.4025 21.6403C28.2533 21.7382 28.3343 21.9936 28.4992 21.9451C28.7789 21.8629 28.8354 21.8871 28.7322 22.0449C28.5771 22.2819 28.8825 22.3065 29.0472 22.0702C29.1647 21.9017 29.4771 21.8386 29.6201 21.9545L29.695 22.0153L29.5867 22.2872C29.4881 22.5347 29.4585 22.575 29.2571 22.7364C28.9936 22.9476 28.694 23.3324 28.6654 23.4963C28.6039 23.8488 28.3117 23.781 27.7984 23.2949C27.5422 23.0523 27.5593 23.041 26.9787 23.8372C26.544 24.4333 26.4983 24.5156 26.4729 24.7483C26.4575 24.8888 26.4196 24.9985 26.346 25.1156C26.0825 25.5346 26.1899 25.873 26.5328 25.7039C26.8248 25.5599 26.8899 25.4663 26.7909 25.3322C26.6643 25.1606 26.7111 24.9897 26.9402 24.7877L27.0922 24.6537L27.071 24.4835C27.0391 24.2282 27.3163 23.8683 27.5475 23.8648C27.7733 23.8613 27.9452 24.0355 28.0405 24.3644C28.1806 24.8478 28.305 24.999 28.5035 24.9271C28.614 24.887 28.624 24.8901 28.7357 24.9986C28.8903 25.1487 28.8866 25.1991 28.7208 25.1991C28.6484 25.1991 28.5021 25.2223 28.3958 25.2508C28.2895 25.2792 28.0549 25.3145 27.8743 25.3292C27.6528 25.3472 27.5365 25.3711 27.5165 25.4027C27.4505 25.507 27.4466 25.6746 27.5051 25.8926C27.5519 26.0671 27.5658 26.2479 27.5673 26.7028C27.5694 27.3434 27.5885 27.4179 27.774 27.509C27.839 27.5409 27.8793 27.6027 27.9222 27.7365C28.0555 28.1514 28.4088 28.2927 28.5148 27.9735C28.6116 27.6822 28.5405 27.5122 28.3378 27.5503C28.1644 27.5828 28.1169 27.4896 28.1275 27.1379L28.1359 26.8616L28.0302 26.7729L27.9244 26.6843L27.9263 26.291C27.929 25.7414 27.956 25.7244 28.5307 25.9085C29.0378 26.0709 29.4465 26.067 29.7781 25.8966L30.0124 25.7762L30.1491 25.8846C30.6186 26.2567 31.0273 26.3761 31.7358 26.3481C32.3028 26.3257 32.4782 26.3522 32.4391 26.4544C32.3495 26.6882 32.374 26.8562 32.5491 27.2092C32.8926 27.9016 32.6036 28.507 31.8373 28.6999C31.754 28.7209 31.619 28.7548 31.5374 28.7753C31.4559 28.7958 31.3621 28.8427 31.3291 28.8795C31.2961 28.9162 31.1756 29.0133 31.0613 29.0951C30.8684 29.2334 30.8488 29.2594 30.7864 29.4619C30.6662 29.8517 30.6964 29.9016 31.004 29.8213C31.3285 29.7367 31.3636 29.6943 31.2835 29.4833C31.2269 29.3341 31.3678 29.2298 31.5868 29.2588C31.8241 29.2904 31.9059 29.2574 32.0344 29.0782C32.1683 28.8915 32.4744 28.7036 32.9951 28.4884L33.3357 28.3476L33.3361 28.017C33.3368 27.4468 33.4138 27.3719 33.7147 27.649C33.8485 27.7722 33.9771 27.8542 34.116 27.905C34.4451 28.0252 34.6262 28.3038 34.5138 28.517C34.3917 28.7486 33.9958 29.2682 33.8753 29.355C33.3096 29.7623 33.2395 29.8435 33.0984 30.2547C32.9543 30.6746 33.0258 30.7346 33.4343 30.5368C33.6548 30.43 33.6804 30.3803 33.6029 30.2083C33.5205 30.0253 33.5697 29.9773 33.9462 29.8729C34.2951 29.776 34.3575 29.7258 34.4521 29.4658C34.5819 29.1093 34.7674 28.8617 35.0633 28.6498C35.3907 28.4155 35.3923 28.3769 35.094 27.9082L34.869 27.5547V27.3201C34.869 27.0398 34.944 26.8638 35.1639 26.6283C35.4897 26.2794 35.6787 25.8448 35.6415 25.5304C35.5959 25.1447 35.8462 25.011 36.3239 25.1656C36.5638 25.2433 36.6798 25.2652 36.7598 25.2479C37.0462 25.1861 37.1619 25.0321 36.9219 25.0321C36.8172 25.0321 36.7745 25.0119 36.7052 24.9294C36.5893 24.7914 36.5937 24.7706 36.7801 24.577C36.8898 24.4628 36.9531 24.3625 36.9785 24.2619C37.0281 24.0662 36.9813 24.0303 36.8689 24.1777C36.6994 24.4004 36.4318 24.4088 36.3175 24.1948C36.2588 24.085 36.3013 24.0389 36.4989 23.9978C36.7326 23.9493 36.8856 23.8167 36.8856 23.663C36.8856 23.5734 36.8761 23.5602 36.8273 23.5821C36.5051 23.7268 36.0615 23.4463 36.3068 23.2531C36.4628 23.1302 36.5856 22.8991 36.5856 22.7286C36.5856 22.4813 36.4429 22.398 36.4068 22.6241C36.369 22.8607 36.1069 23.0503 35.9856 22.9288C35.8337 22.7766 35.9442 22.4843 36.3411 21.9893C36.517 21.7698 36.5856 21.6574 36.5856 21.5887C36.5856 21.4741 36.506 21.4593 36.4503 21.5635C36.4297 21.6022 36.2979 21.6869 36.1575 21.7517C35.648 21.9868 35.5378 22.118 35.4379 22.6084C35.371 22.9369 35.0905 22.7642 35.1312 22.4196C35.1469 22.2864 35.1295 22.2692 35.0469 22.3361C34.8006 22.5358 34.8352 22.9075 35.1345 23.2793C35.7709 24.0697 35.9004 24.5267 35.5999 24.9213C35.4913 25.064 35.4873 25.0632 35.2648 24.8614C34.8457 24.4812 34.4863 24.3913 33.5857 24.4413C32.1573 24.5205 31.7552 24.3535 31.7534 23.68C31.7514 22.9529 32.2883 22.6106 32.7684 23.0328C33.0167 23.2512 32.9319 22.6609 32.6643 22.3082C32.4858 22.073 32.9067 22.1225 33.1725 22.368L33.319 22.5032V22.372C33.319 22.1899 33.1764 21.9207 32.9955 21.7611C32.8731 21.6531 32.8548 21.6237 32.8997 21.6064C33.0056 21.5657 33.2716 21.6142 33.3792 21.6939C33.7089 21.9381 33.4775 21.5464 33.1216 21.2578C32.4975 20.7518 32.4752 20.3414 33.0704 20.3146C33.4018 20.2996 33.1334 20.1333 32.7287 20.1028C32.5088 20.0863 32.4384 20.0949 32.2691 20.1591C31.791 20.3404 31.4017 20.2449 31.4674 19.9626C31.5106 19.7772 31.5639 19.6886 31.673 19.621C31.8883 19.4878 31.7909 19.4514 31.4981 19.5557ZM30.7674 20.6055C30.7048 20.6513 30.7057 20.6549 30.7955 20.7257C31.0472 20.924 31.1606 21.3429 31.1839 22.1609C31.2042 22.8724 31.2158 22.9042 31.417 22.7963C31.6572 22.6676 31.6991 21.5194 31.4817 21.0257C31.3323 20.6866 30.9577 20.4662 30.7674 20.6055ZM38.676 20.8461C38.6629 20.8592 38.6522 21.0082 38.6522 21.1773V21.4848L38.7564 21.5056C38.9199 21.5384 38.9498 21.5319 39.037 21.4445C39.0945 21.387 39.1192 21.3249 39.1199 21.2359L39.1211 21.1092L39.1866 21.188C39.419 21.4673 39.0452 21.8684 38.7167 21.6923C38.655 21.6592 38.6522 21.6716 38.6522 21.9725C38.6522 22.31 38.6615 22.3278 38.8387 22.3278C38.9248 22.3278 39.0518 22.1638 39.052 22.0523C39.0522 21.9795 39.1048 21.9758 39.1319 22.0467C39.2244 22.2882 39.0559 22.5448 38.8049 22.5448H38.6522V22.8826V23.2205L38.7901 23.239C39.034 23.2717 39.1503 23.1744 39.1533 22.9349L39.1544 22.8453L39.2199 22.9241C39.4571 23.2092 39.033 23.6262 38.7254 23.4104L38.6505 23.3578L38.6597 23.9028L38.6689 24.4479L38.8087 24.458C38.9865 24.471 39.0855 24.3838 39.0855 24.2141C39.0855 24.0855 39.1307 24.0616 39.1843 24.1619C39.3326 24.4394 39.0364 24.7795 38.7435 24.6679L38.6522 24.6332V24.9495V25.2658H38.8588C39.0196 25.2658 39.0566 25.2569 39.0255 25.2258C38.9507 25.1508 38.9853 25.1323 39.2003 25.1323C39.4453 25.1323 39.5188 25.0728 39.5188 24.8744C39.5188 24.8143 39.5333 24.765 39.551 24.765C39.6416 24.765 39.6994 25.0983 39.6222 25.1757C39.602 25.1959 39.5855 25.2244 39.5855 25.2391C39.5855 25.2538 40.2081 25.2658 40.969 25.2658C42.3336 25.2658 42.3521 25.2649 42.3119 25.2006C42.2529 25.1058 42.2963 25.0853 42.4656 25.128C42.7125 25.1903 42.852 25.1239 42.852 24.9443C42.852 24.8394 42.9079 24.8159 42.9536 24.9015C42.9915 24.9724 42.9846 25.0947 42.9365 25.2074C42.914 25.2602 42.9365 25.2658 43.1676 25.2658H43.4235L43.3535 25.1767C43.2639 25.0626 43.3008 25.0273 43.4687 25.0663C43.6605 25.1109 43.6796 25.1077 43.7702 25.0169C43.8222 24.9648 43.852 24.8969 43.852 24.8305C43.852 24.6865 43.9266 24.7187 43.9672 24.8802C43.9938 24.9857 43.9873 25.0287 43.9283 25.1364L43.8575 25.2658H44.4037C44.8755 25.2658 44.9473 25.259 44.9307 25.2158C44.9148 25.1744 44.9495 25.1657 45.1298 25.1657C45.3787 25.1657 45.452 25.1071 45.452 24.9078C45.452 24.8477 45.4664 24.7984 45.4841 24.7984C45.5341 24.7984 45.5853 24.9167 45.5853 25.0321C45.5853 25.0896 45.5697 25.1657 45.5508 25.2013C45.517 25.2645 45.5393 25.2658 46.6348 25.2658H47.7534L47.6981 25.1813C47.6231 25.0666 47.6521 25.0509 47.8506 25.0986C48.0718 25.1517 48.1746 25.0937 48.2058 24.898C48.2304 24.7438 48.259 24.731 48.3132 24.8501C48.3643 24.9625 48.3617 25.0291 48.3017 25.1444C48.2743 25.1971 48.2519 25.2459 48.2519 25.2529C48.2519 25.26 48.3494 25.2658 48.4685 25.2658H48.6852V24.982C48.6852 24.7182 48.6804 24.6983 48.6168 24.6983C48.4834 24.6983 48.3185 24.5768 48.3185 24.4785C48.3185 24.4708 48.3993 24.4645 48.498 24.4645C48.7215 24.4645 48.7174 24.4766 48.7181 23.8135L48.7185 23.3127L48.5534 23.3242C48.4125 23.3339 48.376 23.3232 48.3035 23.2506C48.1705 23.1174 48.1921 23.0847 48.3961 23.1102C48.6774 23.1454 48.7229 23.0897 48.744 22.6846C48.7602 22.3748 48.758 22.3612 48.6923 22.3612C48.6104 22.3612 48.4103 22.2013 48.4373 22.1574C48.4477 22.1406 48.519 22.1307 48.5957 22.1354L48.7352 22.1442L48.7446 21.8267L48.7541 21.5091L48.6089 21.5207C48.4899 21.5302 48.4445 21.516 48.3564 21.4418C48.2044 21.3136 48.2353 21.2739 48.477 21.2874C48.7239 21.3011 48.7963 21.229 48.7789 20.9867L48.7685 20.8421H48.3874H48.0062L47.9763 20.9589C47.8929 21.285 47.4719 21.3628 47.3209 21.0802C47.2596 20.9655 47.2848 20.9464 47.4404 20.9897C47.6394 21.045 47.7421 21.0343 47.7995 20.9522C47.8819 20.8344 47.8496 20.8314 46.4513 20.8294L45.1284 20.8274L45.0519 20.9089C44.8872 21.0845 44.6951 21.0908 44.5081 20.9266C44.4137 20.8437 44.3781 20.8339 44.1853 20.8378L43.9687 20.8421L43.949 20.9895C43.9144 21.2492 43.6296 21.3815 43.4178 21.2363C43.2227 21.1026 43.2432 21.0591 43.5013 21.0591C43.7251 21.0591 43.8873 20.9475 43.7962 20.8563C43.7376 20.7976 42.4995 20.8323 42.5154 20.8922C42.6275 21.3143 42.2444 21.59 41.9449 21.3026C41.8093 21.1725 41.8281 21.1516 42.0604 21.1745C42.3235 21.2005 42.4187 21.1302 42.4187 20.9103V20.824L41.7439 20.833L41.069 20.8421L41.0797 20.9663C41.1065 21.2781 40.7997 21.4596 40.5271 21.2932C40.3477 21.1836 40.3837 21.1259 40.6314 21.1259C40.8656 21.1259 40.9178 21.0927 40.9288 20.9368L40.9354 20.8421L40.5076 20.8382L40.0797 20.8343L40.1004 20.9449C40.1722 21.3279 39.6326 21.5638 39.4532 21.2279C39.399 21.1265 39.4069 21.1228 39.6272 21.1453C39.864 21.1695 39.9492 21.1167 39.962 20.9379L39.9688 20.8421L39.3343 20.8322C38.9853 20.8267 38.6891 20.833 38.676 20.8461ZM45.706 21.0305C45.6636 21.2428 45.542 21.2998 45.2873 21.2266C45.1034 21.1738 45.1099 21.3145 45.2966 21.4285C45.5722 21.5968 45.9078 21.3529 45.8247 21.0446C45.7881 20.9087 45.7316 20.902 45.706 21.0305ZM46.9103 20.9477C46.9016 20.963 46.8846 21.0168 46.8726 21.067C46.8282 21.2534 46.6675 21.2862 46.3665 21.1705C46.2758 21.1356 46.3159 21.2846 46.4212 21.3733C46.6488 21.5651 47.0004 21.4176 47.0004 21.1302C47.0004 21.0012 46.9443 20.8875 46.9103 20.9477ZM43.1231 21.4141C43.0623 21.6336 42.9458 21.6714 42.6271 21.5748C42.5118 21.5399 42.5296 21.6686 42.6546 21.7739C42.9337 22.0092 43.3474 21.7208 43.2082 21.388L43.1614 21.2761L43.1231 21.4141ZM44.7512 21.4453C44.687 21.6402 44.5587 21.6629 44.2319 21.5373C44.1517 21.5064 44.1789 21.6445 44.2711 21.7368C44.5337 21.9998 44.9962 21.7212 44.8651 21.379C44.8327 21.2944 44.7934 21.3173 44.7512 21.4453ZM41.6392 21.4659C41.5961 21.682 41.5039 21.7249 41.237 21.6534C41.0594 21.6058 41.0238 21.6285 41.0979 21.7418C41.2901 22.0357 41.7521 21.9191 41.7521 21.5768C41.7521 21.3578 41.6758 21.2828 41.6392 21.4659ZM40.4742 21.4411C40.462 21.4727 40.4521 21.5326 40.4521 21.5741C40.4521 21.7068 40.3475 21.7664 40.1321 21.7564C39.9042 21.7458 39.8753 21.7844 40.02 21.9063C40.2563 22.1055 40.5855 21.9576 40.5855 21.6523C40.5855 21.4825 40.5118 21.3428 40.4742 21.4411ZM47.3519 21.7398C47.3519 21.9315 47.2569 22.0117 47.0388 22.0042C46.8135 21.9965 46.7865 22.0277 46.921 22.1411C47.2214 22.3943 47.6375 22.0409 47.4507 21.6912C47.3977 21.5919 47.3519 21.6144 47.3519 21.7398ZM48.2362 21.7853C48.1852 21.9898 48.0356 22.0438 47.7967 21.9438C47.6473 21.8813 47.6519 21.8808 47.6519 21.9587C47.6519 22.3082 48.2715 22.2956 48.3372 21.9447C48.375 21.743 48.283 21.5976 48.2362 21.7853ZM44.0015 21.8138C43.9455 22.0741 43.8594 22.1295 43.6096 22.066C43.4284 22.0199 43.3934 22.0588 43.5011 22.187C43.7262 22.455 44.1552 22.2683 44.1089 21.9224C44.0847 21.7418 44.0292 21.6856 44.0015 21.8138ZM46.4515 21.8448C46.3908 22.0291 46.2999 22.072 46.0993 22.0111C45.845 21.9339 45.8053 21.9857 45.9827 22.1634C46.2305 22.4116 46.653 22.1592 46.5667 21.8146C46.5366 21.6944 46.4978 21.7046 46.4515 21.8448ZM45.4781 21.9506C45.4708 21.9652 45.4611 22.0298 45.4565 22.0941C45.4436 22.273 45.3436 22.3399 45.1271 22.3144C44.9236 22.2905 44.8922 22.3426 45.0398 22.4589C45.2953 22.6602 45.6638 22.4295 45.6033 22.1061C45.5835 22.0006 45.5029 21.9004 45.4781 21.9506ZM42.2695 22.1898C42.2362 22.3874 42.1581 22.4414 41.9388 22.4187C41.7351 22.3976 41.7068 22.4099 41.7542 22.4988C41.928 22.8239 42.4818 22.5911 42.4018 22.2265C42.3649 22.0583 42.2949 22.0389 42.2695 22.1898ZM41.1708 22.2453C41.1263 22.4826 41.0332 22.5204 40.6938 22.4387C40.5879 22.4133 40.5951 22.5093 40.707 22.6132C40.9274 22.8177 41.2854 22.6555 41.2854 22.3511C41.2854 22.1513 41.2027 22.075 41.1708 22.2453ZM43.1854 22.2703C43.1854 22.4793 43.1066 22.5398 42.8638 22.517C42.6232 22.4945 42.5941 22.5287 42.7381 22.6642C43.013 22.9229 43.4635 22.561 43.2842 22.2254C43.2317 22.1272 43.1854 22.1482 43.1854 22.2703ZM39.8855 22.2959C39.8855 22.5158 39.7169 22.5904 39.4105 22.5062C39.3176 22.4807 39.3385 22.6127 39.44 22.6926C39.7313 22.9221 40.1573 22.5826 39.9843 22.2588C39.933 22.1628 39.8855 22.1806 39.8855 22.2959ZM44.5872 22.5149L44.5187 22.6701L44.3603 22.6506C44.2732 22.6399 44.1608 22.6212 44.1103 22.6091C43.9839 22.5788 43.9918 22.6414 44.132 22.7818C44.3698 23.0201 44.7186 22.8717 44.7186 22.5323C44.7186 22.3416 44.6668 22.3347 44.5872 22.5149ZM47.9852 22.5933C47.9852 22.809 47.8467 22.8938 47.5971 22.8309C47.3739 22.7746 47.3523 22.9023 47.5632 23.0311C47.8474 23.2047 48.2051 22.9248 48.0886 22.6199C48.0481 22.5139 47.9852 22.4977 47.9852 22.5933ZM46.2717 22.7739C46.2369 22.9595 46.1564 23.0065 45.9205 22.979C45.6917 22.9525 45.6573 22.993 45.7972 23.1246C46.0158 23.3304 46.3841 23.1923 46.3924 22.9015C46.3986 22.6817 46.307 22.585 46.2717 22.7739ZM43.8742 22.7173C43.862 22.7295 43.852 22.7968 43.852 22.8668C43.852 23.0429 43.7459 23.1122 43.5177 23.0851C43.3297 23.0628 43.3012 23.1048 43.427 23.2188C43.7196 23.484 44.1497 23.1458 43.9678 22.7935C43.9131 22.6876 43.908 22.6835 43.8742 22.7173ZM47.1183 22.8462C47.0539 23.0415 46.9627 23.0784 46.7391 22.9997C46.5452 22.9315 46.4911 22.9485 46.5502 23.059C46.7308 23.3972 47.2186 23.2933 47.2186 22.9166C47.2186 22.7264 47.1692 22.6917 47.1183 22.8462ZM41.5532 22.887C41.5515 23.1003 41.4646 23.1716 41.2241 23.1571C40.9966 23.1434 40.9719 23.2002 41.1521 23.3224C41.4666 23.5359 41.8617 23.1147 41.6199 22.824L41.5543 22.7451L41.5532 22.887ZM40.5031 22.9913C40.4915 23.0441 40.4452 23.122 40.4002 23.1643L40.3184 23.2413L40.1406 23.1852C39.8772 23.102 39.8356 23.151 40.0162 23.332C40.2346 23.5506 40.6188 23.3925 40.6188 23.0839C40.6188 22.8955 40.5382 22.8311 40.5031 22.9913ZM42.4899 23.027C42.425 23.2442 42.3043 23.2701 41.9653 23.1398C41.8846 23.1088 41.9126 23.2473 42.0058 23.3407C42.2325 23.5678 42.6187 23.408 42.6187 23.087C42.6187 22.9142 42.5353 22.8753 42.4899 23.027ZM45.452 23.0273C45.452 23.2423 45.3113 23.3285 45.0562 23.27C44.879 23.2294 44.8712 23.2324 44.9019 23.3292C44.9299 23.4177 45.1067 23.5295 45.2186 23.5295C45.4456 23.5295 45.6349 23.2621 45.5554 23.054C45.5148 22.9479 45.452 22.9317 45.452 23.0273ZM43.2198 23.2468C43.218 23.466 43.1502 23.5297 42.9188 23.5297C42.6819 23.5297 42.6525 23.5628 42.7878 23.6769C43.1038 23.9432 43.5502 23.5083 43.2865 23.1912L43.2209 23.1124L43.2198 23.2468ZM44.7002 23.3105C44.6654 23.4962 44.5873 23.5429 44.3524 23.5183C44.1168 23.4937 44.0895 23.5379 44.2546 23.677C44.4836 23.87 44.8186 23.7262 44.8186 23.4349C44.8186 23.1903 44.7385 23.1061 44.7002 23.3105ZM47.9889 23.4118C47.9414 23.6009 47.8698 23.6411 47.6333 23.6115C47.4247 23.5854 47.4014 23.6196 47.5401 23.7483C47.8081 23.9971 48.212 23.7341 48.1131 23.3753C48.0711 23.2227 48.0337 23.2336 47.9889 23.4118ZM39.7522 23.5779C39.7522 23.7683 39.6727 23.8302 39.4281 23.8302C39.2328 23.8302 39.2162 23.8515 39.3288 23.9574C39.6166 24.2283 40.0509 23.8824 39.8679 23.528C39.7954 23.3876 39.7522 23.4062 39.7522 23.5779ZM47.2122 23.6144C47.2017 23.6321 47.1825 23.6959 47.1696 23.7562C47.1332 23.9262 47.0245 23.9798 46.8173 23.9301C46.6228 23.8833 46.5905 23.8988 46.65 24.0102C46.791 24.2742 47.2362 24.1965 47.302 23.8963C47.3229 23.801 47.2456 23.5582 47.2122 23.6144ZM41.0362 23.7266C40.9919 23.9285 40.8943 23.9583 40.5438 23.877C40.4269 23.85 40.4203 23.9229 40.5282 24.0486C40.773 24.3337 41.2667 24.0345 41.1319 23.6827C41.1006 23.6011 41.0596 23.62 41.0362 23.7266ZM46.2897 23.7762C46.2388 23.979 46.1473 24.0276 45.9277 23.9688C45.7307 23.916 45.689 23.9567 45.8021 24.0913C46.0147 24.3445 46.4186 24.1945 46.4186 23.8625C46.4186 23.6459 46.3363 23.5908 46.2897 23.7762ZM41.9983 23.8351C41.9464 24.0163 41.8274 24.0782 41.6499 24.0163C41.3908 23.9259 41.3367 23.9868 41.5162 24.1666C41.78 24.4309 42.2325 24.1327 42.0985 23.7829C42.0672 23.7012 42.0313 23.7199 41.9983 23.8351ZM44.0342 23.9709C43.9418 24.1675 43.8911 24.1893 43.6819 24.1223C43.4709 24.0548 43.4364 24.0702 43.5044 24.202C43.6684 24.5197 44.1629 24.3883 44.158 24.0282C44.1552 23.8294 44.1105 23.8086 44.0342 23.9709ZM45.3186 23.894C45.3186 23.9335 45.2963 24.0194 45.2691 24.0847L45.2195 24.2036L44.9941 24.1935C44.7425 24.1823 44.7164 24.217 44.8717 24.356C45.1031 24.563 45.4958 24.325 45.4374 24.0131C45.4119 23.8769 45.3186 23.7833 45.3186 23.894ZM42.8074 24.0119C42.7953 24.0435 42.7854 24.1034 42.7854 24.1449C42.7854 24.2864 42.6773 24.3432 42.4525 24.3196C42.2168 24.2949 42.1896 24.3392 42.3546 24.4783C42.5919 24.6782 42.9187 24.5205 42.9187 24.206C42.9187 24.0498 42.8433 23.9182 42.8074 24.0119ZM48.0672 24.1716C47.9787 24.36 47.923 24.3884 47.7385 24.3389C47.5024 24.2757 47.5011 24.2757 47.5119 24.3477C47.5677 24.7186 48.1861 24.63 48.1847 24.2513C48.1839 24.0396 48.1424 24.0115 48.0672 24.1716ZM40.2367 24.2142C40.1867 24.455 40.1526 24.4819 39.9083 24.4739C39.6571 24.4657 39.6284 24.4993 39.7715 24.634C39.9842 24.8341 40.3521 24.667 40.3521 24.3702C40.3521 24.1896 40.2661 24.0732 40.2367 24.2142ZM46.3519 24.5798C46.3519 24.8094 46.2442 24.8844 45.965 24.8495C45.7752 24.8257 45.765 24.8316 45.8196 24.9338C46.0178 25.3048 46.6132 24.9881 46.4517 24.5975C46.4018 24.4768 46.3519 24.468 46.3519 24.5798ZM44.7708 24.6484C44.7375 24.8259 44.6296 24.8825 44.4202 24.8322C44.1999 24.7792 44.1727 24.7935 44.2505 24.9216C44.4222 25.2041 44.8853 25.0743 44.8853 24.7436C44.8853 24.5222 44.8067 24.4568 44.7708 24.6484ZM47.2187 24.6643C47.1696 24.8471 47.089 24.8848 46.863 24.8305C46.6546 24.7804 46.6219 24.7977 46.7 24.917C46.8896 25.2068 47.3513 25.0715 47.3518 24.726C47.3521 24.5071 47.2711 24.4696 47.2187 24.6643ZM41.9932 24.6707C41.9455 24.8553 41.8365 24.9071 41.6188 24.8485C41.5179 24.8214 41.4317 24.799 41.4271 24.7988C41.383 24.7967 41.439 24.924 41.5162 25.0013C41.7329 25.2184 42.1187 25.0596 42.1187 24.7533C42.1187 24.5563 42.0368 24.5024 41.9932 24.6707ZM40.8675 24.6816C40.8114 24.9221 40.6749 24.9898 40.4322 24.8973C40.2785 24.8388 40.2595 24.9127 40.3938 25.0471C40.6777 25.3315 41.1724 24.9672 40.9381 24.6462C40.893 24.5843 40.8898 24.5859 40.8675 24.6816ZM38.6522 26.1656C38.6522 27.233 38.212 28.6823 37.6447 29.4829C37.5484 29.6187 37.5405 29.6192 38.3322 29.443C39.1682 29.2569 39.2005 29.2391 39.2498 28.937C39.404 27.992 40.2381 27.1116 41.0116 27.0776C41.5662 27.0532 41.7848 27.1884 41.4283 27.3352C40.9482 27.5329 40.3638 28.4477 40.4635 28.8455L40.4842 28.9283L41.0616 28.9515C41.779 28.9803 41.7036 29.0206 41.981 28.4601C42.5774 27.2551 43.5157 26.8409 44.2287 27.468C44.3894 27.6094 44.3859 27.6202 44.1661 27.6645C43.7049 27.7573 43.126 28.2427 42.8586 28.7608C42.69 29.0876 42.6446 29.0425 43.352 29.2498C44.1283 29.4772 44.0906 29.475 44.2119 29.3005C44.6386 28.6862 45.3503 28.402 45.9873 28.5915C46.2938 28.6827 46.5898 29.0379 46.3603 29.039C45.7114 29.0422 44.9004 29.7284 45.2102 30.0121C45.799 30.5513 45.9494 30.8645 45.8709 31.3885C45.839 31.602 45.7827 31.5909 45.4473 31.3056C43.9908 30.0667 42.4695 29.6508 40.2757 29.8919C38.9461 30.038 36.7521 30.6329 36.3728 30.9502C35.9075 31.3393 34.8525 31.9659 34.277 32.1948C34.008 32.3018 34.0059 32.3044 34.0692 32.4561C34.2435 32.8738 33.8414 33.0321 33.4814 32.6876C33.3484 32.5604 33.3502 32.5598 33.2091 32.7774C33.0695 32.9928 32.8326 32.996 32.7026 32.7844L32.6357 32.6755L32.3857 32.6985C32.2482 32.7112 32.0308 32.7305 31.9024 32.7413L31.6691 32.7612L31.6607 40.0145C31.6561 44.0038 31.6576 47.2678 31.664 47.2678C32.0855 47.2678 35.4414 45.7641 36.9253 44.9104C43.2748 41.2575 48.2929 33.2818 48.6392 26.2925L48.662 25.8334H43.6571H38.6522V26.1656ZM15.1328 30.8331C15.3381 31.5119 15.3128 31.473 15.5657 31.4992C15.7601 31.5193 15.853 31.4506 15.853 31.2867C15.853 31.1859 15.9085 31.1589 15.9513 31.2389C16.0981 31.5138 15.7582 31.8553 15.4841 31.7083C15.4044 31.6656 15.4042 31.6618 15.4917 31.8985C15.6365 32.2901 16.0288 32.3985 16.1365 32.0767C16.1887 31.9208 16.234 31.9415 16.2465 32.127C16.2619 32.356 16.1181 32.4921 15.8848 32.4697C15.6821 32.4502 15.6763 32.3969 15.9455 33.0307C16.2143 33.6635 16.3172 33.7441 16.4558 33.4303C16.5354 33.2501 16.5866 33.2602 16.5855 33.4559C16.5847 33.6093 16.5209 33.712 16.3816 33.784L16.2936 33.8296L16.5738 34.4119C16.8954 35.0799 17.4796 35.5169 17.4134 35.0398C17.4021 34.959 17.3969 34.9598 17.6785 35.0025C17.8506 35.0285 17.9355 34.9678 17.9678 34.7956C18.0122 34.5585 18.1125 34.7368 18.0732 34.983L18.0521 35.115H18.7525C19.431 35.115 19.5089 35.103 19.4028 35.0148C19.3115 34.9388 19.3508 34.9146 19.5654 34.9146C19.8142 34.9146 19.8474 34.8878 19.882 34.6578L19.9061 34.4973L19.9628 34.6041C20.0319 34.7344 20.0344 34.9088 19.9684 34.9961C19.8897 35.1004 19.9083 35.115 20.1195 35.115C20.3009 35.115 20.3195 35.1084 20.3195 35.0443C20.3195 34.9843 20.3334 34.9768 20.4111 34.9949C20.7704 35.0782 20.8266 35.0601 20.8923 34.8405C20.9441 34.6673 21.0289 34.7546 21.0129 34.9647L21.0028 35.0983L21.4986 35.1075C21.9601 35.1162 21.9932 35.1127 21.9776 35.0574C21.9349 34.9059 21.9362 34.898 22.0028 34.9077C22.4083 34.9669 22.4291 34.9596 22.4891 34.7363C22.5236 34.608 22.529 34.6033 22.5727 34.6631C22.6335 34.7464 22.6324 34.918 22.5705 35.0001C22.5435 35.0357 22.521 35.0764 22.5205 35.0905C22.5199 35.1046 22.8681 35.1121 23.2944 35.1072C24.0167 35.0989 24.0687 35.0942 24.0593 35.0387C24.0502 34.9848 24.0698 34.9813 24.2671 35.0015C24.5246 35.028 24.5772 34.9984 24.6072 34.8101C24.6186 34.7391 24.6413 34.6809 24.6578 34.6809C24.7119 34.6809 24.7566 34.8592 24.7348 34.9882L24.7135 35.115H25.1457C25.6241 35.115 25.6418 35.1078 25.6753 34.9009C25.7051 34.717 25.8193 34.8218 25.8193 35.0331V35.115H26.3026C26.5684 35.115 26.7859 35.1069 26.7859 35.0971C26.7859 35.0872 26.7621 35.0428 26.7331 34.9984C26.6531 34.8762 26.6986 34.8448 26.8707 34.9036C27.1042 34.9833 27.2859 34.8793 27.2859 34.6659C27.2859 34.6374 27.2993 34.6141 27.3157 34.6141C27.3956 34.6141 27.4115 34.9014 27.337 35.0001C27.31 35.0357 27.2875 35.0762 27.287 35.0899C27.2864 35.1037 27.7359 35.115 28.2859 35.115C29.2636 35.115 29.2858 35.1135 29.2858 35.0482C29.2858 34.9677 29.3369 34.9643 29.5032 35.0339C29.6868 35.1108 29.778 35.0744 29.8585 34.8922C29.9373 34.7137 29.9845 34.7442 29.9853 34.9739L29.9858 35.1167L30.5108 35.1074L31.0358 35.0983L31.0452 34.6901L31.0545 34.282L30.9412 34.2346C30.7575 34.1577 30.6259 33.9121 30.7941 33.96C30.8354 33.9718 30.9104 33.9905 30.9608 34.0015L31.0525 34.0215V33.3866C31.0525 32.6983 31.056 32.7111 30.8643 32.7111C30.8055 32.7111 30.7833 32.728 30.7875 32.7695C30.8227 33.116 30.4803 33.3101 30.2203 33.0909C30.0736 32.9672 30.1043 32.9258 30.3325 32.9397C30.7991 32.9679 30.7814 32.7166 30.3108 32.6311C30.1229 32.5969 29.9504 32.5618 29.9275 32.553C29.9045 32.5442 29.8858 32.5618 29.8858 32.5923C29.8858 32.9003 29.4711 33.0455 29.2712 32.8076C29.1562 32.6707 29.1621 32.6323 29.2942 32.6571C29.6477 32.7236 29.6426 32.7239 29.702 32.633C29.7614 32.5423 29.747 32.4774 29.6677 32.4774C29.5783 32.4774 28.9029 32.2381 28.6229 32.1073C28.3157 31.9637 28.2525 31.9504 28.2525 32.0292C28.2525 32.2433 27.8781 32.3505 27.6885 32.1906C27.5201 32.0487 27.5498 32.0044 27.7962 32.0297C28.1131 32.0622 28.2396 31.9127 27.9942 31.7959C27.8311 31.7183 27.2657 31.3472 27.0484 31.1751L26.8778 31.0401L26.769 31.1661C26.6171 31.3422 26.3981 31.3493 26.2499 31.1831C26.0866 31.0001 26.1192 30.9365 26.3308 31.0251C26.5892 31.1332 26.8052 31.0208 26.6523 30.8578C26.5781 30.7787 26.556 30.7747 26.1968 30.7747H25.8193V30.8598C25.8193 31.188 25.4491 31.3457 25.2122 31.1184C25.044 30.957 25.0897 30.8713 25.2975 30.9583C25.4662 31.0289 25.5732 31.0212 25.6341 30.9341C25.7423 30.7795 25.7257 30.7747 25.086 30.7747H24.486V30.8937C24.486 31.2229 24.1312 31.3607 23.8944 31.1236C23.7521 30.981 23.7804 30.9098 23.9551 30.9708C24.191 31.0532 24.386 30.9727 24.386 30.793C24.386 30.7829 23.7785 30.7747 23.0361 30.7747H21.6861V30.8607C21.6861 31.1045 21.2829 31.2419 21.1013 31.06C20.9713 30.9298 20.9941 30.896 21.1961 30.9198C21.3277 30.9353 21.3914 30.9275 21.4461 30.8891C21.5828 30.7932 21.5251 30.7747 21.0893 30.7747H20.6591L20.6763 30.9028C20.7212 31.2379 20.3515 31.4481 20.0994 31.2309C19.9754 31.1241 20.0176 31.0741 20.2122 31.0972C20.4037 31.1199 20.5179 31.0458 20.5289 30.8915L20.5361 30.7914L19.652 30.7825L18.7678 30.7736L18.7187 30.9145C18.6265 31.1785 18.3254 31.251 18.1307 31.0559C18.0182 30.9432 18.0558 30.9099 18.2705 30.9321C18.4183 30.9474 18.4667 30.9394 18.52 30.891C18.6349 30.7869 18.5966 30.7747 18.1571 30.7747H17.728L17.7114 30.948C17.6818 31.2565 17.3421 31.4012 17.1348 31.1935C17.0041 31.0627 17.0275 31.0309 17.2355 31.0569C17.437 31.0821 17.5862 30.9911 17.5862 30.8429C17.5862 30.7782 17.5668 30.7747 17.2078 30.7747H16.8292L16.7983 30.8826C16.7244 31.1409 16.3941 31.2121 16.2113 31.009C16.0991 30.8844 16.0929 30.8263 16.1946 30.8543C16.4488 30.9241 16.6529 30.903 16.6529 30.8069C16.6529 30.7124 15.9275 30.7719 15.8248 30.8748C15.7466 30.9531 15.6953 30.975 15.59 30.975C15.4879 30.975 15.4278 30.9508 15.3414 30.8748C15.213 30.7619 15.1048 30.7402 15.1328 30.8331ZM19.6103 30.8952C19.597 30.9085 19.5862 30.9619 19.5862 31.0139C19.5862 31.1838 19.4763 31.2534 19.249 31.2276C19.0235 31.202 18.9942 31.242 19.1389 31.3782C19.3516 31.5783 19.7195 31.4111 19.7195 31.1144C19.7195 30.9847 19.6534 30.852 19.6103 30.8952ZM23.3437 31.0073C23.3159 31.2155 23.2591 31.2577 23.0195 31.2482C22.7912 31.2392 22.7566 31.288 22.9072 31.4066C23.2095 31.6448 23.6633 31.2351 23.4245 30.9397L23.363 30.8636L23.3437 31.0073ZM22.4191 31.0593C22.3555 31.2524 22.262 31.2923 22.0387 31.2218C21.8312 31.1563 21.7959 31.1676 21.854 31.2809C22.0266 31.618 22.5194 31.506 22.5194 31.1298C22.5194 30.9395 22.47 30.9048 22.4191 31.0593ZM18.7695 31.3924C18.7328 31.5581 18.7262 31.57 18.6422 31.6252C18.5751 31.6692 18.534 31.6721 18.4018 31.6425C18.1876 31.5944 18.1451 31.64 18.2791 31.7742C18.5112 32.0068 18.8862 31.8481 18.8862 31.5172C18.8862 31.3595 18.7977 31.2649 18.7695 31.3924ZM25.0564 31.458C25.0093 31.6454 24.9417 31.6833 24.704 31.6553C24.4944 31.6306 24.4755 31.6565 24.6072 31.7884C24.8537 32.0353 25.2771 31.7719 25.183 31.4302C25.1386 31.2691 25.1019 31.2771 25.0564 31.458ZM16.9022 31.4591C16.8072 31.7451 16.7564 31.7769 16.4982 31.7118C16.3241 31.6679 16.3044 31.6757 16.3362 31.7761C16.4433 32.114 17.0196 31.9661 17.0196 31.6007C17.0196 31.4768 16.9316 31.3706 16.9022 31.4591ZM21.1033 31.6064C21.0701 31.8032 21.0163 31.843 20.7838 31.843C20.5513 31.843 20.5192 31.9033 20.6945 32.0103C20.9482 32.1653 21.2361 32.0163 21.2361 31.7301C21.2361 31.5058 21.136 31.4125 21.1033 31.6064ZM26.2567 31.6088C26.202 31.7917 26.1216 31.8289 25.8971 31.7749C25.6887 31.7249 25.656 31.7422 25.734 31.8615C25.9198 32.1454 26.3859 32.0235 26.3859 31.691C26.3859 31.454 26.3163 31.4096 26.2567 31.6088ZM27.2123 31.4954C27.2026 31.5121 27.1936 31.5783 27.1923 31.6425C27.1888 31.8135 27.0821 31.8892 26.8786 31.8651C26.684 31.842 26.6419 31.892 26.7658 31.9988C26.9996 32.2002 27.3526 32.0294 27.3526 31.7148C27.3526 31.613 27.2432 31.4419 27.2123 31.4954ZM17.8027 31.6152C17.7902 31.6823 17.7492 31.7701 17.7117 31.8104C17.642 31.8854 17.6192 31.8862 17.3279 31.8243C17.1983 31.7968 17.1884 31.8369 17.2946 31.9586C17.5145 32.2105 17.919 32.0588 17.9194 31.7242C17.9197 31.5477 17.8309 31.4648 17.8027 31.6152ZM24.1775 31.7052C24.1496 31.9136 24.1108 31.9432 23.8653 31.9432C23.6249 31.9432 23.59 31.9891 23.7405 32.1077C24.0447 32.3473 24.4981 31.9381 24.2578 31.6408L24.1963 31.5647L24.1775 31.7052ZM20.2423 31.6644C20.2298 31.677 20.2195 31.7139 20.2195 31.7466C20.2195 31.7792 20.1841 31.8472 20.1408 31.8976L20.062 31.9893L19.8715 31.9466C19.6539 31.8978 19.624 31.9104 19.6854 32.0252C19.7966 32.2334 20.1484 32.2499 20.2772 32.0529C20.367 31.9157 20.336 31.5706 20.2423 31.6644ZM23.3383 31.9229C23.3086 32.1216 23.2518 32.1618 23.0141 32.1528C22.7919 32.1443 22.7593 32.1915 22.9072 32.308C23.1562 32.5042 23.5314 32.2791 23.4732 31.9686C23.4362 31.771 23.3647 31.7468 23.3383 31.9229ZM21.7067 32.0094C21.6764 32.1992 21.5735 32.2607 21.3624 32.2153C21.1546 32.1707 21.1163 32.2122 21.2456 32.3418C21.5138 32.6104 21.9573 32.323 21.8225 31.9679C21.7736 31.8391 21.7315 31.8542 21.7067 32.0094ZM22.5107 32.0304C22.4881 32.2318 22.4273 32.2771 22.1797 32.2771C21.9593 32.2771 21.9438 32.3022 22.0887 32.4243C22.3272 32.6254 22.6791 32.4341 22.644 32.1225C22.6173 31.885 22.5336 31.8273 22.5107 32.0304ZM38.7298 31.9899C37.9482 32.2808 37.545 32.9398 37.4113 34.1447L37.3689 34.5263L37.0022 34.6161C36.8006 34.6654 36.5426 34.7451 36.4289 34.7931C36.1088 34.9284 36.0924 34.9078 36.0626 34.3303C36.035 33.7953 36.1796 33.3223 36.5091 32.8697C36.649 32.6776 36.6121 32.6444 36.3256 32.7046C35.4468 32.8892 34.9449 33.9252 35.2208 34.9853L35.285 35.2318L35.2103 35.2954C35.1295 35.3643 34.2179 35.8161 34.1598 35.8161C34.1404 35.8161 34.0911 35.7147 34.0503 35.5907C33.9637 35.3274 33.8043 35.1511 33.5962 35.0887C32.8404 34.8618 32.3675 35.5703 32.8825 36.1579L32.9889 36.2792L32.8374 36.4191C32.2341 36.976 32.9472 37.7983 33.6266 37.3294C33.695 37.2822 33.7789 37.1994 33.813 37.1454L33.8751 37.0472L33.93 37.1912C34.1336 37.7249 34.854 37.8145 35.0857 37.335C35.2113 37.0751 35.1396 36.7237 34.9188 36.517L34.8181 36.4228L35.0102 36.302C37.8902 34.4914 41.5877 34.4194 43.0283 36.1459C43.3235 36.4998 43.3835 36.4885 43.3369 36.0879C43.28 35.5979 43.0116 35.0839 42.5878 34.6526C42.2818 34.3414 42.5674 33.9754 43.3496 33.6762C43.6526 33.5603 43.6421 33.5724 43.5512 33.4445C43.1712 32.9099 42.2837 33.1381 41.7191 33.9157C41.6229 34.0482 41.5266 34.1468 41.4934 34.1468C41.1857 34.1474 40.5078 34.0273 40.4677 33.9651C40.2734 33.6637 40.8128 32.8455 41.4103 32.5354C41.6609 32.4053 41.6584 32.3832 41.3829 32.2869C40.5647 32.0009 39.9465 32.4726 39.6021 33.6459C39.4468 34.1748 39.4098 34.1967 38.499 34.2984L38.2957 34.3211L38.2755 34.1501C38.1872 33.4039 38.5383 32.6931 39.2674 32.1417C39.369 32.0648 39.4522 31.9905 39.4522 31.9765C39.4522 31.8841 38.9909 31.8927 38.7298 31.9899ZM25.5682 32.1858C25.4916 32.3509 25.3765 32.3826 25.1692 32.2958C24.9636 32.2098 24.9363 32.3347 25.1259 32.4945C25.3565 32.6889 25.6926 32.5287 25.6926 32.2244C25.6926 32.0416 25.6423 32.026 25.5682 32.1858ZM19.2529 32.2168C19.2529 32.4179 19.1802 32.4774 18.9343 32.4774C18.6927 32.4774 18.675 32.5007 18.8221 32.6247C19.0991 32.8582 19.4875 32.5907 19.3735 32.245C19.3222 32.0894 19.2529 32.0732 19.2529 32.2168ZM26.5526 32.4054C26.5526 32.5867 26.477 32.6443 26.2392 32.6443C26.0097 32.6443 25.9902 32.7182 26.1912 32.8264C26.4392 32.9598 26.75 32.7528 26.7069 32.4828C26.6721 32.2641 26.5526 32.2043 26.5526 32.4054ZM18.3707 32.4707C18.3324 32.6979 18.2904 32.7291 18.0373 32.7186C17.8265 32.7099 17.818 32.7125 17.8516 32.7753C18.0159 33.083 18.5029 32.9505 18.5029 32.5982C18.5029 32.3766 18.4028 32.2801 18.3707 32.4707ZM27.6071 32.448C27.5585 32.7076 27.4594 32.7505 27.1247 32.6568C27.0122 32.6254 27.0386 32.7651 27.1625 32.8574C27.3911 33.0277 27.7192 32.8661 27.7192 32.5834C27.7192 32.3937 27.6361 32.2933 27.6071 32.448ZM17.4862 32.4941C17.4862 32.6808 17.3854 32.7572 17.1682 32.7347C16.9116 32.7082 16.8957 32.8296 17.1424 32.9328C17.4399 33.0574 17.7976 32.6356 17.5796 32.4173C17.5125 32.3501 17.4862 32.3718 17.4862 32.4941ZM24.4747 32.4665C24.4626 32.4786 24.4527 32.5438 24.4527 32.6113C24.4527 32.7866 24.3746 32.8446 24.1393 32.8446C23.9098 32.8446 23.8903 32.9185 24.0913 33.0267C24.4182 33.2026 24.7569 32.8166 24.5435 32.5114C24.5178 32.4746 24.4868 32.4544 24.4747 32.4665ZM28.7525 32.5367C28.7525 32.7278 28.6687 32.7883 28.4307 32.7692C28.1783 32.7489 28.1477 32.7781 28.2811 32.9118C28.5577 33.1889 29.0347 32.8517 28.8514 32.5086C28.8015 32.4153 28.7525 32.4292 28.7525 32.5367ZM16.7008 32.5644C16.6449 32.8048 16.5171 32.8651 16.2562 32.774C16.1258 32.7285 16.097 32.7516 16.147 32.8614C16.2973 33.1919 16.8643 33.0078 16.8069 32.6472C16.7812 32.4861 16.7286 32.445 16.7008 32.5644ZM20.1539 32.6208C20.1521 32.8294 20.0324 32.922 19.802 32.8932C19.5941 32.8671 19.5707 32.8989 19.7013 33.0298C19.9867 33.3156 20.4784 32.8829 20.2206 32.5729L20.1551 32.4941L20.1539 32.6208ZM21.0345 32.7056C20.956 32.902 20.8902 32.9294 20.6664 32.8589C20.4531 32.7917 20.4297 32.8032 20.5007 32.9407C20.6587 33.2468 21.1537 33.1313 21.1523 32.7888C21.1514 32.5777 21.1001 32.5414 21.0345 32.7056ZM25.7043 32.8346C25.6664 33.0593 25.6235 33.0937 25.3895 33.0872C25.1586 33.0808 25.1252 33.1258 25.2738 33.2429C25.573 33.4786 26.0266 33.0672 25.7901 32.7746L25.7275 32.6972L25.7043 32.8346ZM23.4194 32.7962C23.4194 33.012 23.2376 33.1136 22.9979 33.0318C22.8142 32.9691 22.7868 32.9832 22.8541 33.1053C23.0603 33.4792 23.6103 33.2453 23.5057 32.8282C23.4828 32.7367 23.4194 32.7132 23.4194 32.7962ZM22.3802 33.0454C22.3015 33.2331 22.1965 33.2502 21.8778 33.1271C21.7247 33.068 21.8647 33.348 22.0205 33.4127C22.288 33.5236 22.5761 33.2756 22.5057 32.9949C22.4765 32.8782 22.4449 32.8909 22.3802 33.0454ZM26.9434 33.032C26.9301 33.0452 26.9193 33.0953 26.9193 33.1433C26.9193 33.3305 26.8338 33.3896 26.5978 33.3653C26.3733 33.3423 26.3556 33.3539 26.4371 33.4706C26.5991 33.7021 27.0256 33.5927 27.0552 33.3121C27.0714 33.1584 26.9987 32.9765 26.9434 33.032ZM27.97 33.147C27.919 33.3916 27.8743 33.423 27.6135 33.3973C27.3556 33.3718 27.3373 33.4167 27.5402 33.5766C27.8238 33.8 28.2528 33.3865 28.04 33.095C27.9971 33.0362 27.9924 33.0397 27.97 33.147ZM18.9676 33.2354C18.9337 33.4443 18.8628 33.4922 18.6201 33.4701C18.3855 33.4488 18.3599 33.4896 18.5221 33.6263C18.757 33.8243 19.0862 33.6754 19.0862 33.3711C19.0862 33.1488 18.9981 33.048 18.9676 33.2354ZM29.3672 33.2633C29.3368 33.4664 29.2455 33.5288 29.0182 33.5018C28.8304 33.4795 28.799 33.5266 28.9237 33.643C29.1828 33.8848 29.5911 33.6175 29.4882 33.2733C29.434 33.0921 29.3934 33.0887 29.3672 33.2633ZM21.588 33.2236C21.5686 33.2746 21.5528 33.3281 21.5528 33.3424C21.5528 33.4674 21.3849 33.4969 21.0778 33.4257C20.9623 33.3989 20.9604 33.4433 21.0715 33.5755C21.2931 33.8392 21.6873 33.6852 21.6856 33.3355C21.6848 33.17 21.6316 33.1089 21.588 33.2236ZM24.9757 33.2334C24.963 33.2461 24.9527 33.299 24.9527 33.351C24.9527 33.5209 24.8428 33.5904 24.6155 33.5647C24.4073 33.5411 24.3891 33.5544 24.4705 33.6709C24.5987 33.8542 24.9468 33.8274 25.0544 33.626C25.1347 33.4757 25.0676 33.1413 24.9757 33.2334ZM18.1529 33.3411C18.1529 33.5596 18.0063 33.6496 17.7587 33.5833C17.5411 33.525 17.5229 33.6546 17.7309 33.7816C18.0065 33.95 18.3421 33.706 18.259 33.3977C18.228 33.2825 18.1529 33.2425 18.1529 33.3411ZM24.0101 33.2991C23.9969 33.3123 23.986 33.3549 23.986 33.3937C23.986 33.5635 23.894 33.623 23.6644 33.6015C23.548 33.5906 23.4527 33.5949 23.4527 33.6111C23.4527 33.8771 23.9414 33.9271 24.0719 33.6745C24.15 33.5231 24.0986 33.2105 24.0101 33.2991ZM19.7076 33.4734C19.6755 33.6743 19.5963 33.7243 19.3547 33.6962C19.129 33.67 19.1084 33.6925 19.2386 33.8229C19.5194 34.1042 19.9783 33.7913 19.8141 33.4305C19.7604 33.3124 19.7314 33.3241 19.7076 33.4734ZM30.4858 33.4278C30.4858 33.6417 30.3273 33.7375 30.0903 33.667C29.9044 33.6117 29.8721 33.6231 29.9242 33.7254C30.0962 34.0627 30.6037 33.9326 30.5793 33.5574C30.57 33.4148 30.4858 33.298 30.4858 33.4278ZM17.2863 33.4884C17.2863 33.7112 17.1478 33.7708 16.8113 33.6928C16.6193 33.6483 16.7471 33.8886 16.9474 33.9487C17.2127 34.0283 17.4706 33.7904 17.3971 33.5338C17.361 33.4076 17.2863 33.377 17.2863 33.4884ZM26.1073 33.5743C26.0758 33.7715 26.0111 33.8197 25.7891 33.8117C25.5432 33.8027 25.5446 33.8022 25.5868 33.8811C25.7452 34.1777 26.2359 34.0367 26.2359 33.6945C26.2359 33.4795 26.1371 33.3872 26.1073 33.5743ZM20.3528 33.7397C20.3528 33.9413 20.2914 33.9965 20.0666 33.9965C19.8463 33.9965 19.8083 34.0401 19.9391 34.1431C20.2391 34.3794 20.6836 33.9956 20.4676 33.6868C20.3915 33.578 20.3528 33.5958 20.3528 33.7397ZM23.0365 33.696C22.979 33.9612 22.9085 34.0077 22.6516 33.9499C22.4754 33.9102 22.4335 33.9374 22.5074 34.0431C22.7023 34.3218 23.1527 34.1857 23.1527 33.8481C23.1527 33.6699 23.0666 33.5572 23.0365 33.696ZM28.5707 33.8303C28.5029 34.008 28.4208 34.041 28.2002 33.9792C27.9765 33.9164 27.952 34.0529 28.1638 34.1823C28.4312 34.3456 28.7682 34.1122 28.7019 33.8098C28.6693 33.6613 28.633 33.667 28.5707 33.8303ZM27.2852 33.8682C27.2132 34.092 27.1102 34.1256 26.7943 34.0284C26.7387 34.0114 26.7193 34.0189 26.7193 34.0575C26.7193 34.1496 26.8641 34.2817 26.9859 34.3008C27.2259 34.3384 27.4041 34.1815 27.3977 33.9382C27.3927 33.7476 27.3354 33.712 27.2852 33.8682ZM21.1528 34.0262C21.1528 34.2184 21.0579 34.2984 20.8407 34.2891C20.6164 34.2795 20.587 34.3137 20.7219 34.4275C21.0223 34.6806 21.4384 34.3272 21.2516 33.9776C21.1986 33.8783 21.1528 33.9008 21.1528 34.0262ZM29.7758 33.9464C29.7659 33.974 29.7442 34.0416 29.7277 34.0967C29.6822 34.2479 29.5652 34.2911 29.3652 34.2303C29.2757 34.2031 29.1988 34.1807 29.1942 34.1805C29.1435 34.1783 29.2093 34.3275 29.2884 34.3942C29.5677 34.6296 29.9822 34.3403 29.8413 34.0082C29.8086 33.9311 29.7882 33.9119 29.7758 33.9464ZM18.4682 33.9974C18.3678 34.3039 18.3147 34.3279 17.9612 34.2271C17.8574 34.1975 17.8596 34.3104 17.9648 34.4093C18.1981 34.6288 18.5536 34.4763 18.5524 34.1573C18.5517 33.9968 18.5004 33.8993 18.4682 33.9974ZM22.0897 34.0961C22.0458 34.2707 21.9791 34.3012 21.7177 34.2665C21.518 34.24 21.4971 34.2942 21.6553 34.4276C21.8844 34.6206 22.2194 34.4768 22.2194 34.1854C22.2194 33.9174 22.1471 33.8677 22.0897 34.0961ZM24.386 34.0277C24.386 34.2676 24.3022 34.3459 24.0444 34.3466C23.8246 34.3471 23.8105 34.3723 23.9594 34.4978C24.2491 34.742 24.646 34.3889 24.4685 34.0449C24.4066 33.9251 24.386 33.9208 24.386 34.0277ZM25.3747 34.1281C25.3625 34.1597 25.3526 34.2144 25.3526 34.2496C25.3526 34.4207 25.1241 34.4904 24.8762 34.3951C24.7983 34.3652 24.7995 34.4857 24.8777 34.5566C25.1176 34.774 25.486 34.628 25.486 34.3155C25.486 34.1646 25.4098 34.0364 25.3747 34.1281ZM17.4218 34.2721C17.3651 34.4831 17.1893 34.5372 16.9113 34.4293C16.8165 34.3926 16.8403 34.5065 16.9504 34.6167C17.1682 34.8349 17.5362 34.6787 17.5362 34.3682C17.5362 34.154 17.4688 34.0974 17.4218 34.2721ZM19.2095 34.2347C19.1967 34.2475 19.1862 34.2972 19.1862 34.3452C19.1862 34.5318 19.1003 34.5917 18.8646 34.5697C18.6175 34.5466 18.5891 34.5878 18.7554 34.728C19.044 34.9712 19.4589 34.6195 19.275 34.2876C19.2517 34.2457 19.2223 34.2219 19.2095 34.2347ZM26.5193 34.3229C26.5193 34.5212 26.4457 34.5808 26.2007 34.5808C25.9591 34.5808 25.9414 34.604 26.0885 34.728C26.3853 34.9782 26.8027 34.6236 26.6181 34.2781C26.5656 34.1798 26.5193 34.2008 26.5193 34.3229ZM23.4194 34.3934C23.4194 34.5926 23.3262 34.6657 23.0853 34.6554C22.9078 34.6479 22.8815 34.6542 22.899 34.6999C22.9102 34.7292 22.9194 34.759 22.9194 34.7663C22.9194 34.8042 23.1322 34.8812 23.237 34.8812C23.483 34.8812 23.655 34.5349 23.5063 34.3387C23.4412 34.2529 23.4194 34.2666 23.4194 34.3934ZM30.7191 34.3956C30.7191 34.6215 30.6114 34.6999 30.3505 34.664C30.1576 34.6374 30.1262 34.6959 30.2719 34.8107C30.5786 35.0523 30.9999 34.7188 30.818 34.3782C30.7701 34.2886 30.7191 34.2975 30.7191 34.3956ZM28.0526 34.4732C28.0526 34.669 27.9699 34.7255 27.7142 34.704C27.456 34.6823 27.4369 34.7037 27.5833 34.8504C27.8483 35.1159 28.2876 34.8197 28.1534 34.4661C28.1104 34.3528 28.0526 34.3568 28.0526 34.4732ZM28.9707 34.5383C28.9358 34.7452 28.9124 34.7628 28.6455 34.7811L28.4025 34.7978L28.5083 34.9063C28.75 35.1542 29.1683 34.9371 29.1046 34.5968C29.0711 34.4178 28.9966 34.3852 28.9707 34.5383ZM36.6804 38.165C35.8965 38.4539 35.4017 39.5607 35.7004 40.3574C35.7292 40.4343 34.9894 40.7754 34.9277 40.7136C34.6819 40.4674 34.6245 39.6198 34.8329 39.3123C34.9269 39.1734 34.9171 39.1504 34.7803 39.1897C34.0952 39.3865 33.8937 40.1386 34.2899 41.0207C34.413 41.2949 34.4283 41.2546 34.1059 41.5067C33.7699 41.7695 33.8 41.7676 33.6357 41.5369C33.4302 41.2484 33.2555 41.1644 32.9967 41.2297C32.5638 41.3388 32.5403 41.8406 32.9548 42.1258C33.2137 42.3039 33.2154 42.3112 33.0297 42.4531C32.6142 42.7709 32.761 43.3615 33.2555 43.3615C33.4106 43.3615 33.5929 43.2057 33.8065 42.8908C33.9606 42.6634 34.0263 42.6613 34.1867 42.8789C34.6029 43.4431 35.2986 43.2685 35.0028 42.674C34.9229 42.5132 34.8855 42.481 34.553 42.286L34.4369 42.2179L34.6094 42.0591C36.2983 40.5036 39.0568 40.1487 40.2575 41.3325C40.5124 41.5838 40.5264 41.59 40.6002 41.4844C40.7686 41.2436 40.5479 40.7745 40.1311 40.4873C39.8255 40.2766 40.2234 39.6418 40.863 39.3196C41.1476 39.1762 41.1633 39.1528 41.0424 39.0515C40.5523 38.6406 39.764 38.9425 39.2506 39.7376C39.173 39.8578 39.0929 39.9553 39.0725 39.9545C39.0522 39.9536 38.863 39.911 38.6522 39.8599L38.2689 39.7668L38.2788 39.6528C38.3174 39.2083 39.0038 38.4794 39.4558 38.4029C39.862 38.3342 39.3103 38.1232 38.8867 38.1853C38.2091 38.2846 37.5406 38.9559 37.3509 39.7273L37.3127 39.8826L36.8949 39.9874C36.4012 40.1112 36.4384 40.1322 36.4242 39.722C36.4053 39.1761 36.5222 38.8851 36.9307 38.4615C37.0731 38.3137 37.1523 38.2071 37.1334 38.1888C37.0754 38.1327 36.8063 38.1186 36.6804 38.165ZM20.6917 40.5219C20.6978 40.5392 20.8282 40.6816 20.9814 40.8383C21.2999 41.1639 21.3512 41.1709 21.4302 40.8994C21.4727 40.7536 21.4786 40.7476 21.5143 40.8145C21.5758 40.9296 21.5602 41.1061 21.4794 41.209L21.406 41.3024L21.5877 41.4635C21.8853 41.7274 22.1861 41.6745 22.1861 41.3583C22.1861 41.2002 22.2313 41.1866 22.3019 41.3232C22.4027 41.5185 22.3268 41.7314 22.1265 41.8152L22.0046 41.8662L22.2703 42.1108C22.7031 42.5092 22.7887 42.5137 22.9027 42.1438C22.9197 42.0888 22.9281 42.0861 22.954 42.1271C23.0224 42.2355 22.974 42.5015 22.8741 42.5665C22.7878 42.6227 23.248 42.9814 23.4874 43.0447C23.7171 43.1054 23.8039 43.0702 23.8562 42.8956C23.899 42.7523 23.9327 42.727 23.9658 42.8134C24.0261 42.9708 23.9256 43.2337 23.7883 43.2773C23.6167 43.3319 24.8519 44.2298 26.0351 44.9106C26.6464 45.2623 26.7423 45.2713 26.8502 44.987C26.8698 44.9355 26.9008 44.9026 26.9192 44.914C26.9698 44.9453 26.9591 45.1763 26.9037 45.2498C26.8266 45.3519 26.8269 45.3522 27.3362 45.6065C27.8781 45.8771 27.9127 45.8788 27.9673 45.6372C28.0057 45.4674 28.0355 45.4621 28.0862 45.6161C28.1148 45.7027 28.1154 45.7617 28.0887 45.8385C28.0444 45.9658 28.0064 45.9328 28.4213 46.1277C28.6772 46.2479 28.7721 46.279 28.78 46.2453C28.7937 46.1869 28.8265 46.1876 28.9743 46.2495C29.1959 46.3422 29.3033 46.3001 29.3835 46.0888C29.4324 45.9599 29.4858 46.0069 29.4858 46.1789C29.4858 46.2876 29.4661 46.3398 29.4025 46.3997C29.2843 46.511 29.2821 46.5087 29.6775 46.6796C30.1578 46.887 30.274 46.8771 30.3372 46.6236C30.35 46.5723 30.3774 46.5361 30.3981 46.5432C30.44 46.5575 30.4463 46.8195 30.4069 46.905C30.3862 46.9498 30.4329 46.978 30.6688 47.0635C31.0787 47.2121 31.0525 47.2311 31.0525 46.7868V46.4061L30.9246 46.4232C30.7692 46.4441 30.5991 46.3654 30.5456 46.2477C30.4965 46.1397 30.5259 46.1168 30.6557 46.1621C31.0312 46.2932 31.0525 46.2522 31.0525 45.3941V44.6689L30.9572 44.6479C30.8387 44.6219 30.6593 44.4431 30.7054 44.3969C30.7264 44.3759 30.7828 44.3769 30.8658 44.3998C31.0545 44.452 31.0543 44.4529 31.0447 43.4937L31.0358 42.612L30.9191 42.6028C30.6082 42.5781 30.5169 42.3493 30.8245 42.3655L31.0358 42.3766V41.4422C31.0358 40.5789 31.0314 40.507 30.9775 40.4966C30.9307 40.4876 30.9191 40.509 30.9191 40.6041C30.9191 40.9181 30.524 41.0646 30.3135 40.8287C30.1952 40.6961 30.2231 40.6438 30.3869 40.6909C30.5716 40.7439 30.6768 40.7315 30.7339 40.6497C30.8487 40.4857 30.8932 40.4902 29.1823 40.4902H27.5788L27.5152 40.5713C27.3751 40.7497 27.0609 40.7431 26.9464 40.5595C26.906 40.4947 26.8727 40.4902 26.4311 40.4902H25.959L25.9738 40.6154C26.0142 40.9571 25.6171 41.1467 25.373 40.9022C25.242 40.7709 25.2622 40.7495 25.4943 40.7738C25.7374 40.7991 25.8073 40.7637 25.8397 40.5987L25.861 40.4902H24.6982C23.5807 40.4902 23.5338 40.4928 23.4947 40.5555C23.3966 40.7128 22.9938 40.7031 22.932 40.5418C22.8926 40.439 22.4527 40.4703 22.4527 40.5759C22.4527 40.887 22.0697 41.0465 21.8502 40.8267C21.6805 40.6567 21.7499 40.621 22.0759 40.7106C22.15 40.731 22.3194 40.602 22.3194 40.5251C22.3194 40.5018 22.0478 40.4902 21.5 40.4902C20.9987 40.4902 20.6849 40.5025 20.6917 40.5219ZM29.2064 40.609C29.1951 40.6385 29.1858 40.6915 29.1858 40.7267C29.1858 40.8661 29.0672 40.9292 28.851 40.9047C28.6409 40.8809 28.6202 40.8965 28.7035 41.0157C28.8865 41.2773 29.3192 41.1051 29.3192 40.7707C29.3192 40.6206 29.2435 40.5121 29.2064 40.609ZM28.2758 40.645C28.263 40.6578 28.2525 40.7013 28.2525 40.7417C28.2525 40.9571 28.0953 41.0192 27.7609 40.9357C27.5904 40.8932 27.7351 41.1153 27.9247 41.1872C28.1304 41.2652 28.3874 41.0809 28.3846 40.8575C28.3833 40.7578 28.3087 40.612 28.2758 40.645ZM24.9195 40.8569C24.8703 41.0398 24.7897 41.0774 24.5638 41.0231C24.3523 40.9723 24.3168 40.9937 24.4085 41.1168C24.6418 41.4297 25.1106 41.2273 25.0389 40.8445C25.0094 40.6869 24.9639 40.6916 24.9195 40.8569ZM26.7024 40.774C26.6062 41.075 26.5304 41.1097 26.1943 41.0063C26.0903 40.9743 26.0925 41.0877 26.1978 41.1869C26.4262 41.4018 26.7926 41.2497 26.7926 40.9399C26.7926 40.7881 26.733 40.6784 26.7024 40.774ZM23.9892 40.9269C23.9257 41.1391 23.8026 41.1646 23.4659 41.0352C23.3858 41.0044 23.4129 41.1424 23.5051 41.2348C23.7529 41.483 24.1764 41.2605 24.102 40.9212C24.0702 40.7762 24.0337 40.778 23.9892 40.9269ZM29.9731 41.0239C29.9419 41.2195 29.8391 41.2776 29.6179 41.2244C29.4235 41.1777 29.3911 41.1932 29.4506 41.3046C29.6354 41.6506 30.2084 41.3798 30.0849 41.0049C30.0354 40.8547 29.9992 40.8608 29.9731 41.0239ZM23.0857 41.0756C23.003 41.2934 22.8773 41.3403 22.6412 41.2414C22.4909 41.1785 22.4859 41.1788 22.4868 41.2498C22.4885 41.3853 22.675 41.5252 22.8539 41.5252C23.0739 41.5252 23.2668 41.2041 23.1541 41.0256C23.1296 40.9866 23.1155 40.9969 23.0857 41.0756ZM27.5023 41.3141C27.4241 41.5015 27.2718 41.5482 27.0859 41.4418C26.8911 41.3302 26.8577 41.4369 27.0326 41.612C27.2705 41.8503 27.6192 41.6899 27.6192 41.342C27.6192 41.1807 27.5635 41.1674 27.5023 41.3141ZM30.8191 41.3663C30.8191 41.6033 30.7142 41.6784 30.4322 41.6431C30.2283 41.6176 30.2055 41.6481 30.3329 41.7758C30.5709 42.0141 30.9914 41.819 30.9396 41.4941C30.9149 41.3388 30.8191 41.2372 30.8191 41.3663ZM25.7426 41.3795C25.7298 41.3923 25.7193 41.4454 25.7193 41.4974C25.7193 41.672 25.6116 41.7361 25.363 41.7094C25.1599 41.6876 25.1491 41.6899 25.1802 41.748C25.3508 42.0675 25.8553 41.9686 25.8515 41.6165C25.8501 41.4974 25.7792 41.3428 25.7426 41.3795ZM28.4033 41.5208C28.37 41.7183 28.2919 41.7724 28.0726 41.7497C27.8689 41.7286 27.8406 41.7409 27.8881 41.8298C28.0618 42.1549 28.6156 41.9221 28.5356 41.5575C28.4987 41.3893 28.4287 41.3699 28.4033 41.5208ZM29.2214 41.5505C29.1656 41.7579 29.0273 41.8054 28.7234 41.7215C28.6347 41.697 28.6482 41.7931 28.7472 41.8923C28.9677 42.1131 29.3358 41.9594 29.3358 41.6465C29.3358 41.4324 29.2683 41.3758 29.2214 41.5505ZM24.686 41.7439C24.686 41.954 24.5382 42.0431 24.2963 41.9789C24.0928 41.9249 24.0722 41.9358 24.1377 42.0627C24.3331 42.4412 24.919 42.1449 24.7658 41.745C24.7398 41.6772 24.686 41.6764 24.686 41.7439ZM26.5193 41.7988C26.5193 42.0003 26.4467 42.0594 26.1996 42.0594C25.9943 42.0594 25.9854 42.0627 26.0191 42.1259C26.2101 42.4834 26.8255 42.1721 26.6482 41.8076C26.5806 41.6686 26.5193 41.6644 26.5193 41.7988ZM23.7096 41.8637C23.6838 42.0566 23.6194 42.1095 23.4098 42.1095C23.3142 42.1095 23.2323 42.1208 23.2277 42.1345C23.1814 42.2738 23.5113 42.3868 23.6879 42.2921C23.8279 42.2171 23.8904 41.9785 23.814 41.8106C23.7593 41.6903 23.7309 41.7046 23.7096 41.8637ZM29.9739 41.9536C29.9419 42.1545 29.8606 42.2063 29.62 42.179C29.4061 42.1548 29.3872 42.1683 29.4782 42.2809C29.7438 42.6093 30.2552 42.295 30.0805 41.9107C30.0268 41.7927 29.9978 41.8043 29.9739 41.9536ZM27.3989 42.158C27.3666 42.3605 27.2945 42.4067 27.0534 42.3793C26.8283 42.3538 26.8036 42.3806 26.9331 42.5103C27.2089 42.7866 27.6512 42.4941 27.5012 42.1345C27.4424 41.9936 27.4245 41.9977 27.3989 42.158ZM28.2521 42.4111C28.1906 42.598 28.0899 42.646 27.8973 42.5803C27.6322 42.4898 27.5825 42.5673 27.7924 42.7442C28.0529 42.9638 28.4726 42.6928 28.3544 42.3814C28.3107 42.2663 28.2987 42.2698 28.2521 42.4111ZM25.7135 42.3799C25.7048 42.3964 25.6945 42.4619 25.6907 42.5254C25.68 42.7058 25.6079 42.7605 25.3808 42.7605C25.1743 42.7605 25.1679 42.7644 25.2181 42.8583C25.3442 43.0945 25.7689 42.9899 25.8403 42.7051C25.8718 42.5795 25.7599 42.2924 25.7135 42.3799ZM29.09 42.5263C29.0353 42.7092 28.9548 42.7464 28.7303 42.6924C28.5219 42.6424 28.4892 42.6597 28.5673 42.779C28.8018 43.1374 29.3526 42.8472 29.1989 42.4461C29.166 42.3601 29.1322 42.3849 29.09 42.5263ZM30.3525 42.5953C30.3525 42.6329 30.3286 42.7098 30.2995 42.7662L30.2466 42.8687L30.0162 42.846C29.7754 42.8222 29.7543 42.8342 29.8345 42.9488C30.0589 43.2697 30.5938 42.9827 30.4547 42.6161C30.4146 42.5106 30.3525 42.4979 30.3525 42.5953ZM24.8379 42.8125C24.7936 43.0489 24.7002 43.0866 24.361 43.005C24.2501 42.9784 24.2651 43.0709 24.3886 43.1749C24.6589 43.4027 25.0613 43.1404 24.9517 42.8078C24.9035 42.6615 24.8658 42.6631 24.8379 42.8125ZM26.7911 42.8901C26.7265 43.1061 26.669 43.1241 26.3109 43.0411C26.1912 43.0133 26.193 43.0639 26.3165 43.2024C26.5766 43.494 27.041 43.1839 26.899 42.8134C26.8663 42.7279 26.8324 42.7519 26.7911 42.8901ZM27.7726 43.1384C27.7328 43.3507 27.5485 43.4142 27.2761 43.3094C27.1896 43.2762 27.2045 43.3832 27.2997 43.4785C27.5601 43.7393 27.9839 43.4917 27.8885 43.1345C27.8545 43.0072 27.7968 43.0091 27.7726 43.1384ZM29.7409 43.2205C29.7055 43.4422 29.6553 43.4795 29.4051 43.4701C29.1599 43.4609 29.1451 43.4769 29.2793 43.6057C29.5497 43.8651 29.9842 43.5618 29.8394 43.2147C29.7765 43.0638 29.7658 43.0644 29.7409 43.2205ZM30.8132 43.362C30.7324 43.5547 30.6844 43.5622 30.3108 43.4396C30.2194 43.4096 30.2378 43.538 30.3395 43.6399C30.6033 43.9041 31.064 43.6249 30.9322 43.2808C30.9009 43.1989 30.8738 43.2174 30.8132 43.362ZM28.7734 43.4932C28.7431 43.683 28.653 43.7358 28.4072 43.708C28.2151 43.6863 28.2124 43.6871 28.25 43.7574C28.4595 44.1494 29.0645 43.8511 28.8805 43.4465C28.8265 43.3278 28.7978 43.3402 28.7734 43.4932ZM26.0684 43.5368C25.9972 43.6904 25.9042 43.7135 25.6276 43.6465C25.4847 43.6119 25.4798 43.6944 25.6167 43.8315C25.8645 44.0796 26.287 43.8272 26.2007 43.4826C26.1704 43.3616 26.1448 43.3721 26.0684 43.5368ZM25.136 43.6381C25.058 43.8028 24.9426 43.8341 24.7343 43.7469C24.5886 43.6859 24.5703 43.6948 24.5996 43.8117C24.6769 44.1202 25.2116 44.0656 25.272 43.743C25.3178 43.4981 25.2332 43.4329 25.136 43.6381ZM27.0753 43.7171C27.0628 43.7297 27.0526 43.7654 27.0526 43.7966C27.0526 43.9851 26.8649 44.066 26.6243 43.981C26.4648 43.9246 26.4211 43.9594 26.5 44.0801C26.6949 44.378 27.1535 44.2523 27.1521 43.9015C27.1515 43.7714 27.1132 43.6792 27.0753 43.7171ZM27.9437 43.8206C27.9366 43.8343 27.9281 43.8982 27.9247 43.9625C27.9159 44.1283 27.8214 44.1962 27.5989 44.1962C27.4006 44.1962 27.3829 44.2173 27.4942 44.3214C27.7825 44.591 28.2174 44.2473 28.035 43.894C27.9823 43.7918 27.9654 43.7782 27.9437 43.8206ZM30.2858 44.0385C30.2858 44.2394 30.2089 44.302 29.9741 44.2924C29.7297 44.2824 29.6847 44.3758 29.8842 44.4791C30.2098 44.6478 30.5316 44.3463 30.3804 44.0141C30.3272 43.897 30.2858 43.9076 30.2858 44.0385ZM29.5065 44.1956C29.4762 44.3851 29.3692 44.4504 29.1709 44.4004C28.9159 44.3361 28.8725 44.3899 29.0551 44.5438C29.3302 44.7757 29.7297 44.5148 29.6181 44.1761C29.5687 44.0264 29.5325 44.0327 29.5065 44.1956ZM26.2859 44.2798C26.2676 44.328 26.2526 44.3812 26.2526 44.3979C26.2526 44.4983 26.0911 44.5363 25.9006 44.4808C25.6871 44.4187 25.6642 44.4256 25.7205 44.5355C25.8931 44.8726 26.3859 44.7606 26.3859 44.3843C26.3859 44.2085 26.3337 44.1539 26.2859 44.2798ZM28.6692 44.4635C28.6372 44.653 28.5516 44.7039 28.3109 44.6766C28.0896 44.6516 28.0692 44.6823 28.2218 44.8109C28.5032 45.048 28.8989 44.7896 28.7848 44.4432C28.7353 44.2931 28.6968 44.2998 28.6692 44.4635ZM27.6859 44.8615C27.6859 45.0689 27.6094 45.1174 27.3109 45.0994C27.1583 45.0902 27.1426 45.1588 27.2737 45.2621C27.5536 45.4826 27.9422 45.1768 27.8038 44.8451C27.7401 44.6922 27.6859 44.6997 27.6859 44.8615ZM30.6702 45.0243C30.6355 45.2302 30.5616 45.278 30.32 45.2506C30.1007 45.2258 30.0828 45.2426 30.1872 45.3757C30.3861 45.6289 30.7949 45.4619 30.7949 45.1273C30.7949 44.9234 30.7004 44.8453 30.6702 45.0243ZM29.7038 45.0895C29.6461 45.3248 29.547 45.3724 29.2812 45.2926C29.0751 45.2308 29.0629 45.3777 29.2638 45.5004C29.5311 45.6637 29.8681 45.4304 29.8018 45.1279C29.7729 44.996 29.7308 44.9795 29.7038 45.0895ZM28.8521 45.416C28.7914 45.6003 28.7005 45.6432 28.4999 45.5822C28.2456 45.505 28.2059 45.5569 28.3833 45.7345C28.6311 45.9827 29.0536 45.7303 28.9673 45.3857C28.9372 45.2655 28.8984 45.2757 28.8521 45.416ZM30.1858 45.8488C30.1858 46.0427 30.0871 46.1118 29.8486 46.0847C29.5781 46.0541 29.5892 46.1929 29.8657 46.2982C30.144 46.4042 30.4277 46.0644 30.2846 45.7965C30.231 45.6962 30.1858 45.7202 30.1858 45.8488ZM0.986816 55.8825V57.9868L1.44513 57.9775L1.90345 57.9683L1.91258 57.409L1.92172 56.8498L5.02914 56.8495L8.13657 56.8491L8.30323 56.7711C8.95034 56.4679 9.13374 54.6224 8.57262 54.0604C8.27183 53.7591 8.54696 53.7782 4.51396 53.7782H0.986816V55.8825ZM10.5521 53.8292C10.3523 53.8913 10.1383 54.0795 10.0268 54.2911L9.93651 54.4626V55.8649C9.93651 57.5539 9.95687 57.6296 10.4817 57.8911L10.6365 57.9683H13.7864H16.9363L17.1271 57.8744C17.6302 57.6269 17.6583 57.5144 17.646 55.7951C17.6344 54.1775 17.6209 54.126 17.1407 53.8687L17.0029 53.7949L13.853 53.7885C11.2264 53.7832 10.6781 53.79 10.5521 53.8292ZM18.7609 55.8732L18.7695 57.9683L19.2279 57.9775L19.6862 57.9868V57.4174V56.8479L22.3444 56.8572C24.967 56.8664 25.0047 56.8674 25.1544 56.9368C25.4976 57.0959 25.6841 57.3653 25.7172 57.7496L25.736 57.9683L26.1943 57.9775L26.6526 57.9868V57.876C26.6526 57.4486 26.3423 56.8969 25.969 56.6607C25.7869 56.5454 25.7846 56.53 25.9459 56.5042C26.9045 56.3506 26.9552 54.1098 26.0064 53.8275C25.8646 53.7854 25.3257 53.7782 22.2964 53.7782H18.7524L18.7609 55.8732ZM28.3486 53.8243C27.5066 54.1257 27.434 55.7727 28.2451 56.1717L28.4359 56.2655L31.5 56.2747C33.6621 56.2812 34.5772 56.2947 34.6083 56.3205C34.6672 56.3696 34.6708 57.0851 34.6123 57.1436C34.5818 57.1742 33.7813 57.1837 31.2124 57.1837H27.8526V57.5852V57.9867L31.3608 57.9775L34.869 57.9683L35.0309 57.8884C35.8451 57.4869 35.7942 55.8178 34.9591 55.5328C34.826 55.4874 34.4291 55.4809 31.7672 55.4809C29.2108 55.4809 28.7212 55.4736 28.6889 55.4345C28.6632 55.4035 28.6535 55.2554 28.6598 54.9921L28.6692 54.5962L32.0524 54.5795L35.4356 54.5628L35.445 54.1705L35.4544 53.7782L31.9618 53.7797C29.1934 53.7808 28.4442 53.7901 28.3486 53.8243ZM37.352 53.8094C37.098 53.8868 36.8812 54.0785 36.7642 54.3291L36.6863 54.496L36.6867 55.8816C36.6871 57.549 36.7164 57.6577 37.2275 57.8891L37.4022 57.9683L40.8271 57.9774L44.252 57.9865V57.5183V57.0501L40.9771 57.0496C38.9736 57.0493 37.6828 57.0368 37.6522 57.0175C37.589 56.9775 37.5578 54.8942 37.6187 54.7801L37.6546 54.713H40.9533H44.252V54.2456V53.7782L40.8438 53.7811C38.9693 53.7826 37.398 53.7954 37.352 53.8094ZM45.3186 55.8825V57.9868L45.7769 57.9775L46.2353 57.9683L46.2442 57.1751L46.2531 56.382L49.0274 56.3905L51.8017 56.3991L51.8107 57.1929L51.8196 57.9868L52.2773 57.9775L52.735 57.9683L52.7436 55.8732L52.7522 53.7782H52.2853H51.8184V54.6296V55.4809H49.0352H46.2519V54.6296V53.7782H45.7853H45.3186V55.8825ZM53.8264 55.8732L53.835 57.9683H57.9015H61.9681L61.9775 57.576L61.9868 57.1837H58.3692H54.7516V56.7162V56.2488H58.3682H61.9847V55.8649V55.4809H58.3682H54.7516V55.0302V54.5795L54.8433 54.5793C54.8937 54.5792 56.5174 54.5754 58.4515 54.5709L61.9681 54.5628L61.9775 54.1705L61.9868 53.7782H57.9023H53.8178L53.8264 55.8732ZM1.92012 55.3307V55.9483H4.85555C6.81525 55.9483 7.81238 55.9369 7.85545 55.9138C7.93411 55.8716 7.95608 54.8294 7.87991 54.7531C7.84941 54.7225 7.13771 54.713 4.88002 54.713H1.92012V55.3307ZM10.8931 54.7531C10.815 54.8313 10.8382 56.973 10.9176 57.0156C11.0589 57.0913 16.6094 57.0603 16.6863 56.9833C16.7776 56.8919 16.7909 54.9157 16.701 54.7873L16.6492 54.713H13.7911C11.6127 54.713 10.9236 54.7225 10.8931 54.7531ZM19.6862 55.3307V55.9483H22.6504C25.3006 55.9483 25.6201 55.9428 25.6669 55.8959C25.7343 55.8284 25.7453 54.8192 25.6793 54.7531C25.6488 54.7225 24.9334 54.713 22.6627 54.713H19.6862V55.3307Z" fill="#171823"/>
</svg>
