<svg width="59" height="49" viewBox="0 0 59 49" fill="none" xmlns="http://www.w3.org/2000/svg">
<path d="M48.3171 28.6408C48.3952 28.2185 48.4734 25.2312 48.489 24.4492C48.5047 23.6671 48.4734 11.9995 48.3953 9.63777C48.3953 9.30932 48.1607 3.06882 48.1451 2.45885C48.1295 1.84888 48.1295 1.67683 47.723 1.59863C47.3009 1.53607 36.6391 0.644571 34.9351 0.61329C33.2311 0.566369 28.6818 0.253566 18.9423 0.800978C12.9548 1.12943 10.4379 4.24185 9.90636 6.72867C9.7344 7.51068 9.65624 9.55957 9.67188 10.3572C9.71878 13.5322 9.78133 20.8206 9.84387 23.0259C9.84387 23.0259 10.094 32.3163 10.094 32.9106C10.094 33.5049 10.1096 33.6926 10.5317 33.7708C10.9382 33.8334 21.6156 34.7092 23.304 34.7562C25.008 34.7874 29.5729 35.1941 39.2811 34.5685C48.5359 34.0523 48.2389 29.0631 48.3483 28.6408M47.082 19.194V21.6652C47.082 21.6652 47.1289 21.9624 46.6599 21.8372C45.4718 21.5088 23.179 16.4882 11.3134 14.7678C11.1883 14.7522 11.2195 14.5175 11.2195 14.5175V12.7033C11.2195 12.7033 11.2039 12.4843 11.3446 12.4999C15.9252 13.2038 27.4312 15.065 30.2608 15.5654C33.0904 16.019 45.8157 18.412 46.8944 18.6466C47.1133 18.6779 47.082 19.2097 47.082 19.2097M11.3759 7.57324C11.8761 5.27411 14.1899 2.41192 19.7396 2.09912C28.7287 1.59863 32.934 1.88016 34.513 1.92708C36.0919 1.97401 45.9408 2.77165 46.316 2.83422C46.7068 2.89678 46.7069 3.06882 46.7225 3.61623C46.7538 4.16364 46.9413 9.93494 46.957 10.2477C46.957 10.5449 46.8007 10.6388 46.5818 10.6388C45.4249 10.6388 31.3864 9.46572 28.4004 9.51265C27.65 9.51265 27.6188 9.91929 27.7751 10.1539C27.9002 10.3259 28.1815 10.3572 28.1815 10.3572C28.1815 10.3572 46.66 13.3758 46.957 13.5009C47.0039 13.5322 47.1133 13.5322 47.1133 13.8763V16.6134C47.1133 16.6134 47.2228 17.0513 46.488 16.8323C34.3879 14.064 11.329 11.0298 11.329 11.0298C11.1883 11.0141 11.1414 10.9985 11.1414 10.9203C11.1414 10.1852 11.204 8.26142 11.3603 7.5576M23.7417 33.458C22.1628 33.4111 12.2983 32.5978 11.9231 32.5352C11.5479 32.4727 11.5166 32.3163 11.5166 31.7532C11.5166 31.1902 11.2821 22.6192 11.2821 22.6192C11.2821 22.6192 11.2196 22.2126 11.6729 22.2752C12.6734 22.4159 28.4942 23.9018 29.9637 23.9174C31.4333 23.9487 31.0268 23.4638 30.9955 23.3856C30.9486 23.2761 30.5422 22.9008 29.7293 22.7131C28.932 22.5098 24.4609 21.3524 21.428 20.6642C18.4108 19.9917 11.3603 18.3807 11.3603 18.3807C11.3603 18.3807 11.1727 18.3807 11.157 18.1461C11.157 17.3954 11.1414 16.4413 11.1414 16.4413C11.1414 16.4413 11.0789 16.0503 11.3759 16.0816C12.2201 16.2536 26.243 19.0533 27.6657 19.3348C29.0883 19.6007 46.8632 23.6359 46.8632 23.6359C46.8632 23.6359 47.0351 23.6359 47.0351 23.933C47.0351 24.6525 46.957 27.4208 46.8632 27.8118C46.785 28.1872 47.0508 32.8011 38.4994 33.286C29.5104 33.8647 25.305 33.5049 23.7261 33.458" fill="#171823"/>
<path d="M10.2815 44.1559C10.0313 44.1246 6.09179 44.0151 4.51284 43.9838C4.32524 43.9838 4.02818 43.9838 3.65299 43.9369C3.37159 43.89 2.98077 43.8587 2.98077 43.2644C2.98077 42.6701 3.29346 42.6075 3.59049 42.5606C3.87188 42.5136 4.55974 42.5136 4.55974 42.5136H12.2825V41.2155H3.54359C2.4649 41.2155 0.166803 41.0591 0.19807 43.4364C0.19807 45.3602 1.88646 45.2351 2.84008 45.282C3.44977 45.3289 6.76399 45.4227 8.24914 45.454C8.7025 45.454 8.8432 45.454 9.07769 45.5009C9.31219 45.5322 9.81246 45.5792 9.81246 46.2204C9.81246 46.8617 9.42163 46.9399 9.0308 46.9868C8.62434 47.0337 8.23354 47.0181 8.23354 47.0181H0.213718V48.3006C0.213718 48.3006 9.90627 48.3006 9.9219 48.3006C10.9693 48.2067 12.5014 48.2224 12.5483 46.3768C12.6264 44.0464 10.5785 44.1715 10.2658 44.1246" fill="#171823"/>
<path d="M15.4873 48.3163L27.478 48.3319V47.0025H18.3169V45.3603H27.0871V44.0465H18.3169V42.5137H27.5405V41.2156H15.4873V48.3163Z" fill="#171823"/>
<path d="M30.5889 43.9214V48.3163H33.309V45.4854H40.469V48.3163H43.2048V41.2H33.8249C32.7619 41.2 30.5889 41.2782 30.6045 43.9214M40.4846 42.4981V44.2185H33.3247C33.3247 42.4981 34.2001 42.4981 34.8723 42.4981H40.5003H40.4846Z" fill="#171823"/>
<path d="M46.0347 42.5763H50.9591V48.3163H53.82V42.5763H58.7757V41.2156H46.0347V42.5763Z" fill="#171823"/>
</svg>
