<svg width="66" height="25" viewBox="0 0 66 25" fill="none" xmlns="http://www.w3.org/2000/svg">
<path d="M31.6825 20.4346C31.6825 20.4346 32.8321 19.8766 32.8321 18.567C32.8321 18.0888 32.6158 16.4832 30.4191 16.4832H23.0093V24.4201C23.0093 24.4201 27.5849 24.4543 30.4191 24.4201C32.8776 24.3974 32.9914 22.8942 32.9914 22.1882C32.9914 20.9242 31.7052 20.4346 31.6938 20.4346M25.3881 18.0888C25.445 18.0546 28.1882 18.0888 29.7475 18.0888C30.2142 18.0888 30.6467 18.3735 30.6467 18.8973C30.6467 19.5008 30.2711 19.7513 29.8272 19.7513C28.1085 19.7513 25.4564 19.7855 25.3995 19.7513V18.0774L25.3881 18.0888ZM29.8613 22.8145C27.9605 22.8145 25.4564 22.8487 25.3881 22.8145V21.095C25.445 21.0609 28.3703 21.0723 29.8272 21.0609C30.328 21.0381 30.7946 21.3911 30.7946 21.9605C30.7946 22.5526 30.328 22.8145 29.8613 22.8145Z" fill="#171823"/>
<path d="M53.7408 21.3684C53.7977 21.357 54.9359 20.5941 54.9359 19.3187C54.9359 17.827 54.3441 16.4946 52.1473 16.4946H45.0676V24.4316H47.4579V21.9719C47.4579 21.9719 50.3262 21.9947 51.7489 21.9719C52.3636 21.9606 52.8644 22.6096 52.8644 23.1676V24.4316H54.9928V23.2018C54.9928 22.0403 53.775 21.3684 53.7522 21.3684M51.8172 20.5144C50.0985 20.5144 47.492 20.5371 47.4579 20.5144V18.1002C47.4579 18.1002 50.2579 18.1002 51.8172 18.1002C52.4091 18.1002 52.7847 18.7949 52.7847 19.3642C52.7847 19.9336 52.3863 20.5144 51.8172 20.5144Z" fill="#171823"/>
<path d="M37.1913 16.4832L32.9116 24.4201H35.2905L36.1897 22.8145H41.1751L42.0401 24.4201H44.3848L40.0937 16.4832H37.1913ZM37.0433 21.1064L38.6027 18.2368L40.2417 21.1064H37.0433Z" fill="#171823"/>
<path d="M63.6093 16.4834C63.6548 16.5403 63.6093 19.9565 63.5752 22.1543C63.5752 22.4504 63.4613 22.8261 63.0174 22.8261H58.8857C58.3963 22.8261 58.2142 22.5415 58.2142 22.1884C58.2142 19.7288 58.1231 16.5175 58.1687 16.4492H55.8239C55.7898 16.5062 55.7898 20.2868 55.8239 22.792C55.8467 24.0218 57.1329 24.4318 58.5784 24.4318C60.6272 24.4318 61.754 24.4659 64.0305 24.4318C65.2256 24.409 66.0223 23.7827 65.9996 22.792C65.9768 20.5942 65.9654 16.4948 65.9654 16.4948H63.6093V16.4834Z" fill="#171823"/>
<path d="M9.47584 19.5122C7.57503 19.4211 5.26444 19.4439 3.84167 19.3642C3.05631 19.33 3.05632 17.8383 3.92136 17.8383H8.2807C8.87257 17.8383 8.87259 18.4873 8.87259 18.5101H11.0352C10.9897 18.419 11.2628 16.1985 9.1685 16.1985H2.87419C1.83841 16.1985 1.08722 16.8362 1.08722 17.6105V19.2845C1.08722 20.3663 2.0547 20.8901 3.39779 20.9356C5.3669 20.9812 6.56203 21.0495 8.13276 21.1178C9.43032 21.1861 9.24821 22.8032 8.13276 22.8259C6.6417 22.8601 5.70836 22.8259 4.06933 22.8259C3.136 22.8259 3.17013 21.8922 3.17013 21.8922H1.00754C0.962007 22.1541 0.962007 22.3818 1.00754 22.6437C1.1555 23.6572 2.00915 24.4315 3.0563 24.4315H9.28233C10.227 24.4315 11.1945 23.9077 11.1832 22.7918C11.1832 22.7918 11.149 21.152 11.149 21.1178C11.149 20.1499 10.3636 19.5691 9.47584 19.5122Z" fill="#171823"/>
<path d="M19.7198 16.4834C19.7539 16.5403 19.7539 19.9565 19.7198 22.1543C19.7198 22.4504 19.6059 22.8261 19.162 22.8261H14.9848C14.5409 22.8261 14.3133 22.5415 14.3133 22.1884C14.3133 19.7288 14.2791 16.5062 14.3133 16.4492H11.9344C11.8889 16.5062 11.9458 20.2868 11.9685 22.792C11.9913 24.0104 13.2319 24.4318 14.6889 24.4318C16.7718 24.4318 17.8986 24.4659 20.1295 24.4318C21.3246 24.409 22.1556 23.7827 22.1442 22.792C22.1214 20.5942 22.11 16.4948 22.11 16.4948H19.7198V16.4834Z" fill="#171823"/>
<path d="M26.1051 2.34018C23.9197 3.63834 22.5425 5.39199 22.5425 7.1798C22.5425 8.96762 23.9197 10.6985 26.0823 11.9853C28.1653 13.2037 30.988 14.0122 34.0384 14.0122C37.0888 14.0122 39.9458 13.2151 42.0401 11.9967C44.2254 10.7099 45.6027 8.97901 45.6027 7.19119C45.6027 5.40338 44.2141 3.63834 42.0287 2.35157C39.9458 1.12173 37.1116 0.313232 34.0498 0.313232C30.988 0.313232 28.188 1.12173 26.1051 2.35157M45.2726 7.19119C45.2726 8.85375 43.9637 10.4821 41.8807 11.7006C39.8433 12.8963 37.0661 13.6706 34.0498 13.6706C31.0336 13.6706 28.3019 12.8849 26.2645 11.7006C24.1815 10.4821 22.884 8.84236 22.884 7.19119C22.884 5.54003 24.2043 3.87747 26.2758 2.64764C28.3132 1.44058 31.0677 0.643466 34.0498 0.643466C37.0319 0.643466 39.8319 1.42919 41.858 2.63625C43.9523 3.86609 45.2726 5.52864 45.2726 7.19119Z" fill="#171823"/>
<path d="M29.8156 2.10107L28.7457 4.81126L24.0107 5.82474L28.7457 6.83821L29.8725 9.71921L30.9994 6.89515L36.1327 5.82474L30.9425 4.69739L29.8156 2.10107Z" fill="#171823"/>
<path d="M35.6774 7.35074L33.6514 7.79484L35.6774 8.25034L36.1896 9.49156L36.6335 8.30727L38.8416 7.79484L36.6335 7.35074L36.1327 6.22339L35.6774 7.35074Z" fill="#171823"/>
<path d="M41.5392 6.22339L41.0383 7.35074L39.0579 7.79484L41.0383 8.25034L41.5392 9.49156L41.9945 8.30727L44.1912 7.79484L41.9945 7.35074L41.5392 6.22339Z" fill="#171823"/>
<path d="M40.1393 6.16628L40.5832 4.91367L42.7799 4.46956L40.5832 4.01407L40.071 2.88672L39.6271 4.01407L37.6011 4.46956L39.6271 4.91367L40.1393 6.16628Z" fill="#171823"/>
<path d="M38.0449 8.92212L37.5441 10.0495L35.575 10.505L37.5441 10.9491L38.0449 12.1334L38.5571 10.9491L40.7538 10.505L38.5002 9.99253L38.0449 8.92212Z" fill="#171823"/>
<path d="M32.1832 9.26392L31.7279 10.4482L29.7019 10.9037L31.7279 11.2909L32.2401 12.5321L32.6954 11.3478L34.8922 10.9037L32.6954 10.3913L32.1832 9.26392Z" fill="#171823"/>
</svg>
