<svg width="55" height="47" viewBox="0 0 55 47" fill="none" xmlns="http://www.w3.org/2000/svg">
<path d="M37.2244 41.2399C37.1755 38.531 34.9898 36.3442 32.331 36.3442C29.607 36.3442 27.4213 38.531 27.4376 41.2399C27.4376 43.9162 29.607 46.1029 32.331 46.1355C34.9898 46.1029 37.1755 43.9162 37.2244 41.2399ZM29.6233 41.2399C29.5744 39.5264 30.7977 38.1393 32.331 38.1556C33.799 38.1556 35.0061 39.5264 35.0224 41.2399C35.0061 42.9207 33.799 44.3078 32.331 44.3405C30.7977 44.3242 29.5744 42.9371 29.6233 41.2399Z" fill="#171823"/>
<path d="M42.7541 38.4008H45.576V36.7363H37.7302V38.4008H40.6989V45.8749H42.7541V38.4008Z" fill="#171823"/>
<path d="M48.0227 43.8187H51.758L52.5246 45.8749H54.9713L51.236 36.7363H48.6751L44.8093 45.8749H47.256L48.0227 43.8187ZM49.9637 38.9231L51.236 42.2684H48.6588L49.9474 38.9231H49.9637Z" fill="#171823"/>
<path d="M2.84014 45.8749H4.89536V38.4008H7.73355V36.7363H0.00195312V38.4008H2.84014V45.8749Z" fill="#171823"/>
<path d="M18.0258 41.2399C17.9932 38.531 15.8075 36.3442 13.1324 36.3442C10.4247 36.3442 8.25533 38.531 8.23901 41.2399C8.23901 43.9162 10.4247 46.1029 13.1324 46.1355C15.8075 46.1029 17.9932 43.9162 18.0258 41.2399ZM10.4411 41.2399C10.4084 39.5264 11.6155 38.1393 13.1488 38.1556C14.6331 38.1556 15.8564 39.5264 15.8564 41.2399C15.8564 42.9534 14.6494 44.3078 13.1488 44.3405C11.6318 44.3242 10.4084 42.9371 10.4411 41.2399Z" fill="#171823"/>
<path d="M22.6583 45.8749H23.7023V42.399L27.307 36.7363H24.9908L22.6583 40.6039L20.4726 36.7363H18.0259L21.647 42.399V45.8749H22.6583Z" fill="#171823"/>
<path d="M26.9484 32.4279C40.8783 32.4279 52.231 25.3292 52.231 16.6149C52.231 7.90067 40.8946 0.785645 26.9484 0.785645C13.0022 0.785645 1.66577 7.88435 1.66577 16.6149C1.66577 25.3455 13.0022 32.4279 26.9484 32.4279ZM26.9484 1.56895C40.4542 1.56895 51.4481 8.32496 51.4481 16.6149C51.4481 24.9049 40.4542 31.6609 26.9484 31.6609C13.4426 31.6609 2.44871 24.9212 2.44871 16.6149C2.44871 8.30864 13.4426 1.56895 26.9484 1.56895Z" fill="#171823"/>
<path d="M20.799 12.5031L21.1741 12.5683L21.2394 12.1767C21.8429 8.53759 23.1478 5.68179 24.8279 4.34365L25.7903 3.57666L24.5669 3.64194C18.6459 4.00095 14.356 5.56756 13.622 7.64005C13.5567 7.8522 13.5078 8.08066 13.5078 8.29281C13.5078 8.63551 13.6057 8.99452 13.8014 9.3209C14.617 10.7243 17.1615 11.8666 20.799 12.4868M14.356 7.90116C14.9106 6.31823 18.7111 4.94744 23.5719 4.49052C22.1855 6.05713 21.1252 8.58655 20.5706 11.6545C17.4062 11.067 15.1552 10.0552 14.4865 8.92924C14.356 8.7171 14.2908 8.50495 14.2908 8.29281C14.2908 8.16226 14.3071 8.03171 14.356 7.90116Z" fill="#171823"/>
<path d="M23.4739 12.4212L23.3923 12.8455L23.8164 12.8781C24.8277 12.9597 25.888 12.9924 26.9319 12.9924C27.9758 12.9924 29.0361 12.9434 30.0474 12.8781L30.4715 12.8455L30.4062 12.4212C29.819 9.14112 28.5304 7.18286 26.9319 7.18286C25.3334 7.18286 24.0448 9.14112 23.4576 12.4212M26.9319 7.94985C28.0084 7.94985 29.0198 9.58173 29.558 12.1112C28.6935 12.1601 27.829 12.2091 26.9319 12.2091C26.0348 12.2091 25.1703 12.1764 24.3058 12.1112C24.8277 9.56541 25.839 7.94985 26.9319 7.94985Z" fill="#171823"/>
<path d="M32.6573 12.1928L32.7226 12.5845L33.0977 12.5192C36.7352 11.8991 39.2797 10.7404 40.0953 9.35333C40.4052 8.81481 40.4704 8.22733 40.2747 7.67249C39.5407 5.61631 35.2508 4.03338 29.3298 3.67437L28.1064 3.59277L29.0688 4.35976C30.7489 5.69791 32.0538 8.57002 32.6573 12.1928ZM39.557 7.91727C39.6059 8.04782 39.6223 8.17837 39.6223 8.30892C39.6223 8.52107 39.557 8.73321 39.4265 8.94536C38.7578 10.0714 36.4905 11.0831 33.3261 11.6706C32.7715 8.60266 31.7113 6.07324 30.3248 4.50663C35.1693 4.94724 38.9698 6.33434 39.5407 7.91727" fill="#171823"/>
<path d="M24.3548 29.7025L25.5292 29.7841L24.6321 29.0171C22.3159 27.0425 20.8805 22.3264 20.8805 16.7453V15.4235L20.5706 15.3582C15.0084 14.3628 11.0611 12.0129 10.4902 9.40185L10.3597 8.78174L9.85402 9.18971C7.19527 11.4254 5.79248 14.069 5.79248 16.8433C5.79248 23.3871 13.7688 28.9029 24.3385 29.7025M9.91925 10.1688C10.9306 12.8125 14.7311 15.0155 20.0976 16.0436C20.0976 16.3537 20.0976 16.729 20.0976 16.729C20.0976 21.9184 21.3209 26.3898 23.3598 28.805C13.7198 27.7769 6.57544 22.7344 6.57544 16.8269C6.57544 14.4444 7.73353 12.1597 9.91925 10.1688Z" fill="#171823"/>
<path d="M30.7328 16.2716V15.7004L30.3087 15.7331C29.2158 15.831 28.074 15.8799 26.9485 15.8799C25.823 15.8799 24.6813 15.831 23.5884 15.7331L23.1643 15.7004V16.1247V16.2716C23.1643 21.461 24.7954 25.3938 26.9485 25.3938C29.1016 25.3938 30.7328 21.4773 30.7328 16.2716ZM26.9485 24.6105C25.5131 24.6105 23.9962 21.3794 23.9309 16.549C24.9259 16.6143 25.9372 16.6633 26.9485 16.6633C27.9598 16.6633 28.9711 16.6143 29.9498 16.549C29.9009 21.3794 28.3676 24.6105 26.9485 24.6105Z" fill="#171823"/>
<path d="M32.9835 15.4074V16.7292C32.9998 22.3266 31.5644 27.0264 29.2482 29.001L28.3511 29.768L29.5255 29.6864C40.1116 28.8868 48.0715 23.371 48.0715 16.8271C48.0715 14.0529 46.6688 11.393 44.01 9.1736L43.5207 8.76562L43.3739 9.38574C42.8193 12.0131 38.8556 14.3467 33.2934 15.3421L32.9672 15.4074H32.9835ZM43.9611 10.169C46.1468 12.1599 47.3049 14.4446 47.3049 16.8271C47.3049 22.7346 40.1605 27.7771 30.5205 28.8052C32.5431 26.39 33.7828 21.9186 33.7828 16.7292C33.7828 16.7292 33.7828 16.3539 33.7828 16.0438C39.1492 15.0157 42.9498 12.8127 43.9774 10.169" fill="#171823"/>
</svg>
