<svg width="58" height="58" viewBox="0 0 58 58" fill="none" xmlns="http://www.w3.org/2000/svg">
<path d="M34.9554 8.77663C33.2112 8.30444 31.3643 8.07861 29.497 8.07861C27.6296 8.07861 25.8648 8.32497 24.1411 8.7561L29.5585 23.7019L34.9554 8.77663Z" fill="#171823"/>
<path d="M50.8382 29.4701C50.8382 26.8012 50.3868 24.2555 49.4839 21.8945L39.3262 48.4192C46.139 44.847 50.8382 37.7026 50.8382 29.4701Z" fill="#171823"/>
<path d="M40.2499 10.973L33.9911 28.2182H25.1673L18.888 10.8909C16.5692 12.2253 14.5377 13.9704 12.855 16.0644L21.7814 39.2222L25.0442 30.7639H33.6218L36.8845 39.2222L45.8931 15.777C44.313 13.8472 42.384 12.2253 40.2294 10.9525" fill="#171823"/>
<path d="M29.4969 0.934082C13.7987 0.934082 0.973389 13.7448 0.973389 29.4707C0.973389 45.1967 13.7987 57.9869 29.4969 57.9869C45.1952 57.9869 58 45.1556 58 29.4707C58 13.7858 45.2157 0.934082 29.4969 0.934082ZM29.4969 54.353C15.8097 54.353 4.60552 43.1847 4.60552 29.4913C4.60552 15.7978 15.7892 4.56789 29.4969 4.56789C43.2047 4.56789 54.3884 15.7567 54.3884 29.4913C54.3884 43.2258 43.2047 54.353 29.4969 54.353Z" fill="#171823"/>
<path d="M29.3125 35.3213L23.7925 49.6307V50.0823C25.5983 50.5956 27.5067 50.8419 29.4972 50.8419C31.3646 50.8419 33.1704 50.6161 34.8941 50.1645L34.8325 49.6307L29.3125 35.3213Z" fill="#171823"/>
<path d="M8.11475 29.4703C8.11475 37.5181 12.5882 44.5598 19.2369 48.1936L9.32547 22.3669C8.52517 24.5842 8.11475 26.9657 8.11475 29.4703Z" fill="#171823"/>
</svg>
