<svg width="24" height="24" viewBox="0 0 24 24" fill="none" xmlns="http://www.w3.org/2000/svg">
<path d="M9.024 12.042C9.024 12.6118 9.19297 13.1688 9.50954 13.6426C9.82611 14.1164 10.2761 14.4857 10.8025 14.7037C11.3289 14.9218 11.9082 14.9788 12.4671 14.8677C13.0259 14.7565 13.5393 14.4821 13.9422 14.0792C14.3451 13.6763 14.6195 13.1629 14.7306 12.6041C14.8418 12.0452 14.7848 11.4659 14.5667 10.9395C14.3486 10.4131 13.9794 9.96311 13.5056 9.64655C13.0318 9.32998 12.4748 9.16101 11.905 9.16101C11.1412 9.1618 10.4088 9.46559 9.8687 10.0057C9.32858 10.5458 9.0248 11.2782 9.024 12.042ZM13.785 12.042C13.785 12.4141 13.6747 12.7778 13.4679 13.0871C13.2612 13.3965 12.9674 13.6376 12.6236 13.7799C12.2798 13.9223 11.9016 13.9595 11.5367 13.8868C11.1718 13.8141 10.8366 13.6349 10.5736 13.3717C10.3106 13.1086 10.1315 12.7733 10.059 12.4084C9.98656 12.0434 10.0239 11.6652 10.1665 11.3215C10.309 10.9778 10.5502 10.6841 10.8597 10.4775C11.1692 10.271 11.5329 10.1608 11.905 10.161C12.4035 10.1618 12.8814 10.3603 13.2338 10.7129C13.5863 11.0655 13.7845 11.5435 13.785 12.042Z" fill="#EF233C"/>
<path d="M15.777 1.531C15.6529 1.48634 15.5162 1.49172 15.396 1.546C15.3363 1.57347 15.2826 1.61242 15.238 1.66063C15.1934 1.70885 15.1588 1.76538 15.136 1.827L14.894 2.483C12.8995 1.8568 10.7592 1.87006 8.77265 2.52093C6.78611 3.1718 5.05289 4.42769 3.8157 6.11272C2.57851 7.79775 1.89931 9.82753 1.87322 11.9178C1.84713 14.0081 2.47545 16.0542 3.6702 17.7696C4.86495 19.485 6.56629 20.7837 8.53596 21.484C10.5056 22.1842 12.645 22.2509 14.6545 21.6747C16.6639 21.0984 18.4428 19.9082 19.7421 18.2705C21.0413 16.6329 21.7959 14.6299 21.9 12.542H22.616C22.7486 12.542 22.8758 12.4893 22.9696 12.3956C23.0633 12.3018 23.116 12.1746 23.116 12.042C23.1085 9.75111 22.4018 7.51711 21.0903 5.63877C19.7788 3.76042 17.9251 2.32728 15.777 1.531ZM11.905 21.062C10.6057 21.0649 9.32107 20.787 8.13907 20.2475C6.95707 19.7079 5.90558 18.9194 5.05653 17.9358C4.20748 16.9523 3.58092 15.7969 3.21971 14.5488C2.8585 13.3007 2.77118 11.9893 2.96371 10.7043C3.15623 9.41935 3.62407 8.19112 4.33522 7.10368C5.04636 6.01625 5.98402 5.09526 7.08404 4.40375C8.18406 3.71223 9.42048 3.2665 10.7087 3.09706C11.9969 2.92762 13.3066 3.03846 14.548 3.422L13.239 6.973C12.8045 6.85141 12.3561 6.78686 11.905 6.781C10.8846 6.77573 9.88478 7.06729 9.02718 7.62017C8.16958 8.17305 7.49127 8.96338 7.07486 9.89491C6.65844 10.8264 6.52191 11.859 6.68187 12.8667C6.84184 13.8745 7.2914 14.8139 7.97581 15.5707C8.66022 16.3275 9.54993 16.869 10.5366 17.1291C11.5232 17.3892 12.5642 17.3568 13.5328 17.0358C14.5014 16.7149 15.3557 16.1191 15.9917 15.3213C16.6277 14.5234 17.018 13.5577 17.115 12.542H18.215L18.761 14.581C18.7896 14.6872 18.8524 14.781 18.9397 14.8479C19.0271 14.9148 19.134 14.951 19.244 14.951C19.2876 14.9512 19.331 14.9455 19.373 14.934C19.4365 14.9172 19.4961 14.888 19.5483 14.8481C19.6005 14.8082 19.6444 14.7584 19.6773 14.7016C19.7103 14.6447 19.7318 14.582 19.7405 14.5168C19.7491 14.4517 19.7449 14.3855 19.728 14.322L19.251 12.542H20.9C20.7716 14.842 19.7684 17.0058 18.0959 18.5899C16.4235 20.174 14.2086 21.0584 11.905 21.062ZM13.372 8.062C13.5566 8.13148 13.7361 8.21402 13.909 8.309C13.945 8.328 13.981 8.347 14.016 8.367C14.1766 8.45919 14.3312 8.56139 14.479 8.673C14.515 8.701 14.549 8.732 14.585 8.761C14.9955 9.0974 15.3398 9.50741 15.6 9.97C15.651 10.06 15.7 10.149 15.749 10.243C15.801 10.354 15.849 10.469 15.888 10.584C15.937 10.719 15.98 10.856 16.016 10.996C16.04 11.091 16.066 11.185 16.084 11.282C16.2633 12.2188 16.127 13.1886 15.6963 14.0396C15.2657 14.8907 14.565 15.5749 13.704 15.9852C12.8429 16.3956 11.8702 16.5089 10.9379 16.3073C10.0056 16.1058 9.16647 15.6009 8.55178 14.8716C7.9371 14.1423 7.58156 13.2298 7.54082 12.2768C7.50009 11.3239 7.77645 10.3844 8.32666 9.60526C8.87687 8.82616 9.66986 8.25146 10.5815 7.97113C11.4932 7.6908 12.4721 7.72064 13.365 8.056L13.372 8.062ZM17.141 11.546C17.127 11.405 17.097 11.269 17.073 11.132C17.06 11.063 17.053 10.992 17.038 10.924C16.9776 10.6556 16.896 10.3925 16.794 10.137C16.749 10.022 16.694 9.912 16.643 9.801C16.571 9.651 16.492 9.507 16.406 9.365C16.2978 9.18421 16.1785 9.01021 16.049 8.844C15.954 8.722 15.86 8.601 15.755 8.487C15.65 8.373 15.525 8.255 15.403 8.146C15.32 8.072 15.234 8.003 15.147 7.935C14.9007 7.74034 14.6373 7.56831 14.36 7.421C14.299 7.389 14.242 7.349 14.179 7.321L15.9 2.654C17.6604 3.40861 19.1742 4.64118 20.27 6.21206C21.3658 7.78293 21.9998 9.62932 22.1 11.542L17.141 11.546Z" fill="white"/>
<path d="M18.081 6C17.7843 6 17.4943 6.08797 17.2476 6.2528C17.001 6.41762 16.8087 6.65189 16.6952 6.92597C16.5816 7.20006 16.5519 7.50166 16.6098 7.79264C16.6677 8.08361 16.8106 8.35088 17.0203 8.56066C17.2301 8.77044 17.4974 8.9133 17.7884 8.97118C18.0793 9.02906 18.3809 8.99935 18.655 8.88582C18.9291 8.77229 19.1634 8.58003 19.3282 8.33335C19.493 8.08668 19.581 7.79667 19.581 7.5C19.581 7.10218 19.423 6.72064 19.1417 6.43934C18.8604 6.15804 18.4788 6 18.081 6ZM18.081 8C17.9821 8 17.8854 7.97068 17.8032 7.91573C17.721 7.86079 17.6569 7.7827 17.6191 7.69134C17.5812 7.59998 17.5713 7.49945 17.5906 7.40245C17.6099 7.30546 17.6575 7.21637 17.7274 7.14645C17.7974 7.07652 17.8865 7.0289 17.9835 7.00961C18.0804 6.99031 18.181 7.00022 18.2723 7.03806C18.3637 7.0759 18.4418 7.13999 18.4967 7.22221C18.5517 7.30444 18.581 7.40111 18.581 7.5C18.581 7.63261 18.5283 7.75979 18.4345 7.85355C18.3408 7.94732 18.2136 8 18.081 8Z" fill="#EF233C"/>
<path d="M8.49999 6.99999C8.5657 7.00011 8.63078 6.98727 8.69153 6.96222C8.75227 6.93717 8.80748 6.90039 8.854 6.85399L10.854 4.85399C10.9479 4.7601 11.0006 4.63277 11.0006 4.49999C11.0006 4.36721 10.9479 4.23988 10.854 4.14599C10.7601 4.0521 10.6328 3.99936 10.5 3.99936C10.3672 3.99936 10.2399 4.0521 10.146 4.14599L8.14599 6.14599C8.07589 6.21592 8.02812 6.30509 8.00876 6.4022C7.98939 6.49931 7.99929 6.59998 8.03721 6.69145C8.07513 6.78293 8.13935 6.86108 8.22174 6.91601C8.30413 6.97094 8.40097 7.00017 8.49999 6.99999Z" fill="white"/>
<path d="M5.971 12.152L5.238 9.41902C5.20365 9.29078 5.11977 9.18145 5.00481 9.11506C4.88985 9.04867 4.75323 9.03067 4.625 9.06502C4.49676 9.09936 4.38743 9.18324 4.32104 9.2982C4.25465 9.41316 4.23665 9.54979 4.271 9.67802L5 12.411C5.02859 12.5172 5.09142 12.611 5.17874 12.6779C5.26606 12.7448 5.373 12.7811 5.483 12.781C5.5269 12.7812 5.57062 12.7755 5.613 12.764C5.67678 12.7475 5.73667 12.7185 5.78923 12.6788C5.84178 12.6391 5.88596 12.5893 5.91923 12.5324C5.9525 12.4756 5.9742 12.4127 5.98308 12.3474C5.99197 12.2821 5.98786 12.2157 5.971 12.152Z" fill="white"/>
<path d="M9.117 17.3L6.385 16.568C6.32157 16.5509 6.2554 16.5465 6.19026 16.555C6.12513 16.5635 6.06231 16.5848 6.00539 16.6175C5.94846 16.6503 5.89856 16.694 5.85851 16.7461C5.81846 16.7981 5.78907 16.8576 5.772 16.921C5.75492 16.9844 5.75051 17.0506 5.75901 17.1157C5.76751 17.1809 5.78876 17.2437 5.82154 17.3006C5.85432 17.3575 5.89799 17.4074 5.95005 17.4475C6.00212 17.4875 6.06157 17.5169 6.125 17.534L8.857 18.266C8.89937 18.2775 8.9431 18.2832 8.987 18.283C9.10838 18.2832 9.22567 18.2392 9.31701 18.1593C9.40835 18.0793 9.4675 17.9689 9.48341 17.8486C9.49932 17.7282 9.47092 17.6062 9.4035 17.5053C9.33608 17.4043 9.23425 17.3314 9.117 17.3Z" fill="white"/>
<path d="M15.146 17.146L13.146 19.146C13.0521 19.2399 12.9994 19.3672 12.9994 19.5C12.9994 19.6328 13.0521 19.7601 13.146 19.854C13.2399 19.9479 13.3672 20.0006 13.5 20.0006C13.6328 20.0006 13.7601 19.9479 13.854 19.854L15.854 17.854C15.9479 17.7601 16.0006 17.6328 16.0006 17.5C16.0006 17.3672 15.9479 17.2399 15.854 17.146C15.7601 17.0521 15.6328 16.9994 15.5 16.9994C15.3672 16.9994 15.2399 17.0521 15.146 17.146Z" fill="white"/>
</svg>
