<svg width="24" height="24" viewBox="0 0 24 24" fill="none" xmlns="http://www.w3.org/2000/svg">
<path d="M9.02399 12.0421C9.02399 12.6119 9.19295 13.169 9.50952 13.6427C9.82609 14.1165 10.276 14.4858 10.8025 14.7038C11.3289 14.9219 11.9082 14.9789 12.467 14.8678C13.0259 14.7566 13.5392 14.4822 13.9422 14.0793C14.3451 13.6764 14.6195 13.163 14.7306 12.6042C14.8418 12.0453 14.7847 11.4661 14.5667 10.9396C14.3486 10.4132 13.9794 9.96324 13.5056 9.64667C13.0318 9.3301 12.4748 9.16113 11.905 9.16113C11.1411 9.16193 10.4088 9.46571 9.86869 10.0058C9.32857 10.546 9.02478 11.2783 9.02399 12.0421V12.0421ZM13.785 12.0421C13.785 12.4142 13.6746 12.7779 13.4679 13.0873C13.2612 13.3966 12.9673 13.6377 12.6236 13.78C12.2798 13.9224 11.9016 13.9596 11.5367 13.8869C11.1717 13.8143 10.8366 13.635 10.5736 13.3718C10.3105 13.1087 10.1315 12.7734 10.059 12.4085C9.98654 12.0435 10.0239 11.6653 10.1665 11.3216C10.309 10.9779 10.5502 10.6842 10.8597 10.4777C11.1691 10.2711 11.5329 10.1609 11.905 10.1611C12.4035 10.1619 12.8814 10.3604 13.2338 10.713C13.5862 11.0656 13.7845 11.5436 13.785 12.0421V12.0421Z" fill="#EF233C"/>
<path d="M15.777 1.53097C15.6529 1.48631 15.5162 1.49169 15.396 1.54597C15.3363 1.57344 15.2827 1.61239 15.238 1.6606C15.1934 1.70882 15.1588 1.76535 15.136 1.82697L14.894 2.48297C12.8995 1.85676 10.7592 1.87003 8.77265 2.5209C6.78611 3.17177 5.05289 4.42766 3.8157 6.11269C2.57851 7.79772 1.89931 9.8275 1.87322 11.9178C1.84713 14.0081 2.47545 16.0542 3.6702 17.7695C4.86495 19.4849 6.56629 20.7837 8.53596 21.4839C10.5056 22.1842 12.645 22.2509 14.6545 21.6746C16.6639 21.0984 18.4428 19.9081 19.7421 18.2705C21.0413 16.6328 21.7959 14.6298 21.9 12.542H22.616C22.7486 12.542 22.8758 12.4893 22.9696 12.3955C23.0633 12.3018 23.116 12.1746 23.116 12.042C23.1085 9.75108 22.4018 7.51708 21.0903 5.63874C19.7788 3.76039 17.9251 2.32725 15.777 1.53097V1.53097ZM11.905 21.062C10.6057 21.0648 9.32107 20.787 8.13907 20.2474C6.95707 19.7079 5.90558 18.9193 5.05653 17.9358C4.20748 16.9523 3.58092 15.7969 3.21971 14.5488C2.8585 13.3007 2.77118 11.9893 2.96371 10.7043C3.15623 9.41932 3.62407 8.19109 4.33522 7.10365C5.04636 6.01621 5.98402 5.09523 7.08404 4.40372C8.18406 3.7122 9.42048 3.26647 10.7087 3.09703C11.9969 2.92759 13.3066 3.03843 14.548 3.42197L13.239 6.97297C12.8045 6.85137 12.3561 6.78683 11.905 6.78097C10.8846 6.7757 9.88478 7.06726 9.02718 7.62014C8.16958 8.17302 7.49127 8.96335 7.07486 9.89488C6.65844 10.8264 6.52191 11.8589 6.68187 12.8667C6.84184 13.8744 7.2914 14.8139 7.97581 15.5707C8.66022 16.3275 9.54993 16.8689 10.5366 17.1291C11.5232 17.3892 12.5642 17.3568 13.5328 17.0358C14.5014 16.7148 15.3557 16.1191 15.9917 15.3212C16.6277 14.5233 17.018 13.5577 17.115 12.542H18.215L18.761 14.581C18.7896 14.6872 18.8524 14.781 18.9397 14.8479C19.0271 14.9148 19.134 14.951 19.244 14.951C19.2876 14.9512 19.331 14.9454 19.373 14.934C19.4365 14.9171 19.4961 14.8879 19.5483 14.8481C19.6005 14.8082 19.6444 14.7584 19.6773 14.7016C19.7103 14.6447 19.7318 14.5819 19.7405 14.5168C19.7491 14.4517 19.7449 14.3855 19.728 14.322L19.251 12.542H20.9C20.7716 14.842 19.7684 17.0057 18.0959 18.5898C16.4235 20.1739 14.2086 21.0584 11.905 21.062V21.062ZM13.372 8.06197C13.5566 8.13145 13.7361 8.21399 13.909 8.30897C13.945 8.32797 13.981 8.34697 14.016 8.36697C14.1766 8.45916 14.3312 8.56136 14.479 8.67297C14.515 8.70097 14.549 8.73197 14.585 8.76097C14.9955 9.09737 15.3398 9.50738 15.6 9.96997C15.651 10.06 15.7 10.149 15.749 10.243C15.801 10.354 15.849 10.469 15.888 10.584C15.937 10.719 15.98 10.856 16.016 10.996C16.04 11.091 16.066 11.185 16.084 11.282C16.2633 12.2188 16.127 13.1886 15.6963 14.0396C15.2657 14.8906 14.565 15.5749 13.704 15.9852C12.8429 16.3955 11.8702 16.5088 10.9379 16.3073C10.0056 16.1058 9.16647 15.6009 8.55178 14.8716C7.9371 14.1423 7.58156 13.2297 7.54082 12.2768C7.50009 11.3239 7.77645 10.3843 8.32666 9.60523C8.87687 8.82613 9.66986 8.25143 10.5815 7.9711C11.4932 7.69077 12.4721 7.72061 13.365 8.05597L13.372 8.06197ZM17.141 11.546C17.127 11.405 17.097 11.269 17.073 11.132C17.06 11.063 17.053 10.992 17.038 10.924C16.9776 10.6556 16.896 10.3924 16.794 10.137C16.749 10.022 16.694 9.91197 16.643 9.80097C16.571 9.65097 16.492 9.50697 16.406 9.36497C16.2978 9.18418 16.1785 9.01018 16.049 8.84397C15.954 8.72197 15.86 8.60097 15.755 8.48697C15.65 8.37297 15.525 8.25497 15.403 8.14597C15.32 8.07197 15.234 8.00297 15.147 7.93497C14.9007 7.74031 14.6373 7.56828 14.36 7.42097C14.299 7.38897 14.242 7.34897 14.179 7.32097L15.9 2.65397C17.6604 3.40858 19.1742 4.64115 20.27 6.21203C21.3658 7.7829 21.9998 9.62929 22.1 11.542L17.141 11.546Z" fill="#171823"/>
<path d="M18.081 6C17.7843 6 17.4943 6.08797 17.2476 6.2528C17.001 6.41762 16.8087 6.65189 16.6952 6.92597C16.5816 7.20006 16.5519 7.50166 16.6098 7.79264C16.6677 8.08361 16.8106 8.35088 17.0203 8.56066C17.2301 8.77044 17.4974 8.9133 17.7884 8.97118C18.0793 9.02906 18.3809 8.99935 18.655 8.88582C18.9291 8.77229 19.1634 8.58003 19.3282 8.33335C19.493 8.08668 19.581 7.79667 19.581 7.5C19.581 7.10218 19.423 6.72064 19.1417 6.43934C18.8604 6.15804 18.4788 6 18.081 6V6ZM18.081 8C17.9821 8 17.8854 7.97068 17.8032 7.91573C17.721 7.86079 17.6569 7.7827 17.6191 7.69134C17.5812 7.59998 17.5713 7.49945 17.5906 7.40245C17.6099 7.30546 17.6575 7.21637 17.7274 7.14645C17.7974 7.07652 17.8865 7.0289 17.9835 7.00961C18.0804 6.99031 18.181 7.00022 18.2723 7.03806C18.3637 7.0759 18.4418 7.13999 18.4967 7.22221C18.5517 7.30444 18.581 7.40111 18.581 7.5C18.581 7.63261 18.5283 7.75979 18.4345 7.85355C18.3408 7.94732 18.2136 8 18.081 8Z" fill="#EF233C"/>
<path d="M8.49998 6.99966C8.56568 6.99977 8.63077 6.98694 8.69151 6.96189C8.75225 6.93683 8.80746 6.90006 8.85398 6.85366L10.854 4.85366C10.9479 4.75977 11.0006 4.63243 11.0006 4.49966C11.0006 4.36688 10.9479 4.23954 10.854 4.14565C10.7601 4.05177 10.6328 3.99902 10.5 3.99902C10.3672 3.99902 10.2399 4.05177 10.146 4.14565L8.14598 6.14565C8.07587 6.21558 8.02811 6.30476 8.00874 6.40186C7.98937 6.49897 7.99928 6.59965 8.03719 6.69112C8.07511 6.78259 8.13934 6.86075 8.22173 6.91568C8.30412 6.9706 8.40096 6.99983 8.49998 6.99966V6.99966Z" fill="#171823"/>
<path d="M5.97095 12.1519L5.23795 9.4189C5.2036 9.29066 5.11973 9.18133 5.00477 9.11494C4.88981 9.04855 4.75318 9.03055 4.62495 9.06489C4.49672 9.09924 4.38738 9.18312 4.32099 9.29808C4.25461 9.41304 4.2366 9.54966 4.27095 9.6779L4.99995 12.4109C5.02855 12.5171 5.09137 12.6109 5.17869 12.6778C5.26601 12.7447 5.37295 12.7809 5.48295 12.7809C5.52685 12.7811 5.57058 12.7754 5.61295 12.7639C5.67673 12.7474 5.73663 12.7184 5.78918 12.6787C5.84173 12.6389 5.88592 12.5892 5.91919 12.5323C5.95245 12.4755 5.97415 12.4126 5.98304 12.3473C5.99192 12.282 5.98781 12.2156 5.97095 12.1519Z" fill="#171823"/>
<path d="M9.11701 17.3L6.38501 16.568C6.32158 16.5509 6.25541 16.5465 6.19028 16.555C6.12515 16.5635 6.06232 16.5847 6.0054 16.6175C5.94848 16.6503 5.89857 16.694 5.85853 16.746C5.81848 16.7981 5.78908 16.8575 5.77201 16.921C5.75494 16.9844 5.75053 17.0506 5.75903 17.1157C5.76753 17.1808 5.78878 17.2437 5.82155 17.3006C5.85433 17.3575 5.898 17.4074 5.95007 17.4475C6.00214 17.4875 6.06158 17.5169 6.12501 17.534L8.85701 18.266C8.89938 18.2774 8.94311 18.2832 8.98701 18.283C9.10839 18.2831 9.22569 18.2392 9.31703 18.1592C9.40837 18.0793 9.46751 17.9689 9.48343 17.8485C9.49934 17.7282 9.47094 17.6062 9.40352 17.5052C9.3361 17.4043 9.23426 17.3314 9.11701 17.3V17.3Z" fill="#171823"/>
<path d="M15.146 17.1457L13.146 19.1457C13.0521 19.2395 12.9994 19.3669 12.9994 19.4997C12.9994 19.6324 13.0521 19.7598 13.146 19.8537C13.2399 19.9475 13.3672 20.0003 13.5 20.0003C13.6328 20.0003 13.7601 19.9475 13.854 19.8537L15.854 17.8537C15.9479 17.7598 16.0007 17.6324 16.0007 17.4997C16.0007 17.3669 15.9479 17.2395 15.854 17.1457C15.7601 17.0518 15.6328 16.999 15.5 16.999C15.3672 16.999 15.2399 17.0518 15.146 17.1457V17.1457Z" fill="#171823"/>
</svg>
