<svg width="24" height="24" viewBox="0 0 24 24" fill="none" xmlns="http://www.w3.org/2000/svg">
<path fill-rule="evenodd" clip-rule="evenodd" d="M4.57692 4.03857C4.57692 3.76243 4.80078 3.53857 5.07692 3.53857H9.23077C9.50691 3.53857 9.73077 3.76243 9.73077 4.03857V6.3078H14.2692V4.03857C14.2692 3.76243 14.4931 3.53857 14.7692 3.53857H18.9231C19.1992 3.53857 19.4231 3.76243 19.4231 4.03857V6.3078H19.6154C20.1152 6.3078 20.5946 6.50636 20.948 6.8598C21.3014 7.21323 21.5 7.69259 21.5 8.19242V18.577C21.5 19.0769 21.3014 19.5562 20.948 19.9097C20.5946 20.2631 20.1152 20.4617 19.6154 20.4617H4.38462C3.88478 20.4617 3.40542 20.2631 3.05199 19.9097C2.69856 19.5562 2.5 19.0769 2.5 18.577V8.19242C2.5 7.69259 2.69856 7.21323 3.05199 6.8598C3.40542 6.50636 3.88478 6.3078 4.38462 6.3078H4.57692V4.03857ZM4.38462 7.3078C4.15 7.3078 3.925 7.40101 3.7591 7.5669C3.5932 7.7328 3.5 7.95781 3.5 8.19242V18.577C3.5 18.8116 3.5932 19.0367 3.7591 19.2026C3.925 19.3685 4.15 19.4616 4.38462 19.4616H19.6154C19.85 19.4616 20.075 19.3685 20.2409 19.2026C20.4068 19.0367 20.5 18.8116 20.5 18.577V8.19242C20.5 7.95781 20.4068 7.7328 20.2409 7.5669C20.075 7.40101 19.85 7.3078 19.6154 7.3078H4.38462ZM8.73077 6.3078H5.57692V4.53857H8.73077V6.3078ZM15.2692 6.3078H18.4231V4.53857H15.2692V6.3078Z" fill="#171823"/>
<path fill-rule="evenodd" clip-rule="evenodd" d="M13.0047 9.18673C13.2203 9.35924 13.2553 9.67388 13.0828 9.88951L10.9634 12.5387H14.0769C14.2613 12.5387 14.4308 12.6402 14.5178 12.8028C14.6048 12.9654 14.5953 13.1626 14.493 13.3161L11.7237 17.4699C11.5706 17.6997 11.2601 17.7618 11.0304 17.6086C10.8006 17.4554 10.7385 17.145 10.8917 16.9152L13.1427 13.5387H9.9231C9.7309 13.5387 9.55571 13.4285 9.47245 13.2553C9.38919 13.0821 9.4126 12.8764 9.53267 12.7264L12.3019 9.26482C12.4744 9.04919 12.789 9.01423 13.0047 9.18673Z" fill="#EF233C"/>
</svg>
