<svg width="28" height="28" viewBox="0 0 28 28" fill="none" xmlns="http://www.w3.org/2000/svg">
<path d="M24.8594 8.09375C24.706 8.09375 24.559 8.15466 24.4506 8.26308C24.3422 8.3715 24.2812 8.51855 24.2812 8.67188V12.7188H23.125V8.67188C23.125 8.51855 23.0641 8.3715 22.9557 8.26308C22.8473 8.15466 22.7002 8.09375 22.5469 8.09375H17.3438V6.9375H21.3906C21.544 6.9375 21.691 6.87659 21.7994 6.76817C21.9078 6.65975 21.9688 6.5127 21.9688 6.35938V4.04688C21.9688 3.89355 21.9078 3.7465 21.7994 3.63808C21.691 3.52966 21.544 3.46875 21.3906 3.46875H9.82812C9.6748 3.46875 9.52775 3.52966 9.41933 3.63808C9.31091 3.7465 9.25 3.89355 9.25 4.04688V6.35938C9.25 6.5127 9.31091 6.65975 9.41933 6.76817C9.52775 6.87659 9.6748 6.9375 9.82812 6.9375H13.875V8.09375H8.67188C8.5646 8.09375 8.45944 8.1236 8.36816 8.17996C8.27689 8.23632 8.20309 8.31697 8.15503 8.41288L7.15834 10.4062H5.20312C5.0498 10.4062 4.90275 10.4672 4.79433 10.5756C4.68591 10.684 4.625 10.831 4.625 10.9844V12.7188H3.46875V9.82812C3.46875 9.6748 3.40784 9.52775 3.29942 9.41933C3.191 9.31091 3.04395 9.25 2.89062 9.25C2.7373 9.25 2.59025 9.31091 2.48183 9.41933C2.37341 9.52775 2.3125 9.6748 2.3125 9.82812V19.0781C2.3125 19.2315 2.37341 19.3785 2.48183 19.4869C2.59025 19.5953 2.7373 19.6562 2.89062 19.6562C3.04395 19.6562 3.191 19.5953 3.29942 19.4869C3.40784 19.3785 3.46875 19.2315 3.46875 19.0781V16.1875H4.625V19.0781C4.625 19.2315 4.68591 19.3785 4.79433 19.4869C4.90275 19.5953 5.0498 19.6562 5.20312 19.6562H7.27397L10.5219 22.9527C10.5754 23.007 10.6391 23.0502 10.7093 23.0797C10.7796 23.1093 10.855 23.1247 10.9312 23.125H20.2344C20.3417 23.125 20.4468 23.0951 20.5381 23.0388C20.6294 22.9824 20.7032 22.9018 20.7512 22.8059L23.0637 18.1809C23.104 18.1005 23.125 18.0118 23.125 17.9219V16.1875H24.2812V21.3906C24.2812 21.544 24.3422 21.691 24.4506 21.7994C24.559 21.9078 24.706 21.9688 24.8594 21.9688C25.0127 21.9688 25.1598 21.9078 25.2682 21.7994C25.3766 21.691 25.4375 21.544 25.4375 21.3906V8.67188C25.4375 8.51855 25.3766 8.3715 25.2682 8.26308C25.1598 8.15466 25.0127 8.09375 24.8594 8.09375ZM10.4062 4.625H20.8125V5.78125H10.4062V4.625ZM15.0312 6.9375H16.1875V8.09375H15.0312V6.9375ZM3.46875 15.0312V13.875H4.625V15.0312H3.46875ZM21.9688 17.7854L19.8771 21.9688H11.174L7.92725 18.6723C7.87347 18.6177 7.80939 18.5744 7.73873 18.5448C7.66807 18.5153 7.59223 18.5 7.51562 18.5H5.78125V11.5625H7.51562C7.6229 11.5625 7.72806 11.5326 7.81934 11.4763C7.91061 11.4199 7.98441 11.3393 8.03247 11.2434L9.02916 9.25H21.9688V17.7854ZM23.125 15.0312V13.875H24.2812V15.0312H23.125Z" fill="white"/>
<path d="M17.9219 15.0313H13.9906L16.1135 11.2688C16.1509 11.2026 16.1748 11.1297 16.184 11.0542C16.1931 10.9788 16.1874 10.9023 16.167 10.829C16.1466 10.7558 16.1119 10.6873 16.0651 10.6275C16.0182 10.5676 15.96 10.5176 15.8938 10.4803C15.8276 10.4429 15.7547 10.419 15.6792 10.4098C15.6038 10.4006 15.5273 10.4064 15.454 10.4268C15.3808 10.4472 15.3123 10.4818 15.2525 10.5287C15.1926 10.5755 15.1426 10.6337 15.1052 10.6999L12.4967 15.3249C12.447 15.413 12.4212 15.5125 12.422 15.6136C12.4227 15.7147 12.4499 15.8138 12.5009 15.9011C12.5519 15.9884 12.625 16.0608 12.7127 16.111C12.8004 16.1613 12.8998 16.1876 13.0009 16.1875H16.9865L15.0925 19.9754C15.0578 20.0433 15.0369 20.1175 15.031 20.1935C15.0251 20.2696 15.0343 20.3461 15.058 20.4186C15.0818 20.4911 15.1197 20.5582 15.1695 20.6159C15.2194 20.6737 15.2801 20.7211 15.3484 20.7552C15.4166 20.7894 15.4909 20.8098 15.567 20.8151C15.6431 20.8204 15.7195 20.8106 15.7918 20.7863C15.8641 20.762 15.9309 20.7235 15.9883 20.6733C16.0457 20.623 16.0926 20.5619 16.1262 20.4934L18.4387 15.8684C18.4829 15.7802 18.5038 15.6823 18.4994 15.5838C18.495 15.4853 18.4656 15.3896 18.4138 15.3057C18.362 15.2218 18.2896 15.1525 18.2035 15.1045C18.1174 15.0565 18.0205 15.0313 17.9219 15.0313Z" fill="#EF233C"/>
</svg>
