<svg width="24" height="24" viewBox="0 0 24 24" fill="none" xmlns="http://www.w3.org/2000/svg">
<path d="M21.5 7C21.3674 7 21.2402 7.05268 21.1464 7.14645C21.0527 7.24021 21 7.36739 21 7.5V11H20V7.5C20 7.36739 19.9473 7.24021 19.8536 7.14645C19.7598 7.05268 19.6326 7 19.5 7H15V6H18.5C18.6326 6 18.7598 5.94732 18.8536 5.85355C18.9473 5.75979 19 5.63261 19 5.5V3.5C19 3.36739 18.9473 3.24021 18.8536 3.14645C18.7598 3.05268 18.6326 3 18.5 3H8.5C8.36739 3 8.24021 3.05268 8.14645 3.14645C8.05268 3.24021 8 3.36739 8 3.5V5.5C8 5.63261 8.05268 5.75979 8.14645 5.85355C8.24021 5.94732 8.36739 6 8.5 6H12V7H7.5C7.40722 7 7.31627 7.02582 7.23733 7.07456C7.15839 7.12331 7.09456 7.19305 7.053 7.276L6.191 9H4.5C4.36739 9 4.24021 9.05268 4.14645 9.14645C4.05268 9.24021 4 9.36739 4 9.5V11H3V8.5C3 8.36739 2.94732 8.24021 2.85355 8.14645C2.75979 8.05268 2.63261 8 2.5 8C2.36739 8 2.24021 8.05268 2.14645 8.14645C2.05268 8.24021 2 8.36739 2 8.5V16.5C2 16.6326 2.05268 16.7598 2.14645 16.8536C2.24021 16.9473 2.36739 17 2.5 17C2.63261 17 2.75979 16.9473 2.85355 16.8536C2.94732 16.7598 3 16.6326 3 16.5V14H4V16.5C4 16.6326 4.05268 16.7598 4.14645 16.8536C4.24021 16.9473 4.36739 17 4.5 17H6.291L9.1 19.851C9.14627 19.8979 9.20137 19.9353 9.26212 19.9608C9.32288 19.9864 9.38809 19.9997 9.454 20H17.5C17.5928 20 17.6837 19.9742 17.7627 19.9254C17.8416 19.8767 17.9054 19.8069 17.947 19.724L19.947 15.724C19.9818 15.6545 20 15.5778 20 15.5V14H21V18.5C21 18.6326 21.0527 18.7598 21.1464 18.8536C21.2402 18.9473 21.3674 19 21.5 19C21.6326 19 21.7598 18.9473 21.8536 18.8536C21.9473 18.7598 22 18.6326 22 18.5V7.5C22 7.36739 21.9473 7.24021 21.8536 7.14645C21.7598 7.05268 21.6326 7 21.5 7ZM9 4H18V5H9V4ZM13 6H14V7H13V6ZM3 13V12H4V13H3ZM19 15.382L17.191 19H9.664L6.856 16.149C6.80949 16.1018 6.75407 16.0643 6.69296 16.0388C6.63184 16.0132 6.56625 16 6.5 16H5V10H6.5C6.59278 10 6.68373 9.97418 6.76267 9.92544C6.84161 9.87669 6.90544 9.80695 6.947 9.724L7.809 8H19V15.382ZM20 13V12H21V13H20Z" fill="#171823"/>
<path d="M15.5001 12.9999H12.1001L13.9361 9.74588C13.9684 9.68862 13.9891 9.62556 13.9971 9.5603C14.005 9.49504 14 9.42886 13.9824 9.36553C13.9647 9.3022 13.9348 9.24297 13.8942 9.19121C13.8537 9.13945 13.8034 9.09618 13.7461 9.06388C13.6889 9.03157 13.6258 9.01086 13.5605 9.00293C13.4953 8.99499 13.4291 8.99999 13.3658 9.01763C13.3024 9.03528 13.2432 9.06522 13.1914 9.10576C13.1397 9.14629 13.0964 9.19662 13.0641 9.25388L10.8081 13.2539C10.7651 13.33 10.7428 13.4161 10.7434 13.5035C10.7441 13.5909 10.7676 13.6767 10.8117 13.7522C10.8558 13.8277 10.919 13.8903 10.9949 13.9337C11.0707 13.9772 11.1567 14 11.2441 13.9999H14.6911L13.0531 17.2759C13.0231 17.3346 13.005 17.3988 12.9999 17.4646C12.9948 17.5303 13.0027 17.5965 13.0233 17.6592C13.0439 17.7219 13.0766 17.7799 13.1197 17.8299C13.1628 17.8798 13.2154 17.9208 13.2744 17.9504C13.3334 17.9799 13.3976 17.9975 13.4635 18.0021C13.5293 18.0067 13.5954 17.9983 13.6579 17.9772C13.7204 17.9562 13.7782 17.9229 13.8278 17.8795C13.8775 17.836 13.918 17.7831 13.9471 17.7239L15.9471 13.7239C15.9853 13.6477 16.0034 13.5629 15.9996 13.4777C15.9958 13.3926 15.9703 13.3098 15.9255 13.2372C15.8807 13.1647 15.8181 13.1048 15.7437 13.0632C15.6692 13.0217 15.5854 12.9999 15.5001 12.9999Z" fill="#EF233C"/>
</svg>
