<svg width="24" height="24" viewBox="0 0 24 24" fill="none" xmlns="http://www.w3.org/2000/svg">
<path d="M11.5 16C11.2033 16 10.9133 16.088 10.6666 16.2528C10.42 16.4176 10.2277 16.6519 10.1142 16.926C10.0006 17.2001 9.97094 17.5017 10.0288 17.7926C10.0867 18.0836 10.2296 18.3509 10.4393 18.5607C10.6491 18.7704 10.9164 18.9133 11.2074 18.9712C11.4983 19.0291 11.7999 18.9993 12.074 18.8858C12.3481 18.7723 12.5824 18.58 12.7472 18.3334C12.912 18.0867 13 17.7967 13 17.5C13 17.1022 12.842 16.7206 12.5607 16.4393C12.2794 16.158 11.8978 16 11.5 16ZM11.5 18C11.4011 18 11.3044 17.9707 11.2222 17.9157C11.14 17.8608 11.0759 17.7827 11.0381 17.6913C11.0002 17.6 10.9903 17.4994 11.0096 17.4025C11.0289 17.3055 11.0765 17.2164 11.1464 17.1464C11.2164 17.0765 11.3055 17.0289 11.4025 17.0096C11.4994 16.9903 11.6 17.0002 11.6913 17.0381C11.7827 17.0759 11.8608 17.14 11.9157 17.2222C11.9707 17.3044 12 17.4011 12 17.5C12 17.6326 11.9473 17.7598 11.8536 17.8536C11.7598 17.9473 11.6326 18 11.5 18Z" fill="#EF233C"/>
<path d="M7.5 14C7.63261 14 7.75979 13.9473 7.85355 13.8536C7.94732 13.7598 8 13.6326 8 13.5C8 13.3674 7.94732 13.2402 7.85355 13.1464C7.75979 13.0527 7.63261 13 7.5 13H5.5C5.36739 13 5.24021 13.0527 5.14645 13.1464C5.05268 13.2402 5 13.3674 5 13.5C5 13.6326 5.05268 13.7598 5.14645 13.8536C5.24021 13.9473 5.36739 14 5.5 14H7.5Z" fill="#EF233C"/>
<path d="M20.99 14.493V14.206C20.9951 13.6113 20.7872 13.0344 20.4038 12.5797C20.0205 12.125 19.487 11.8225 18.9 11.727L17.6 11.511C17.579 11.5051 17.5576 11.5008 17.536 11.498H17.53L14.81 11.045L11.51 5.26C11.2908 4.8777 10.9747 4.55993 10.5936 4.33872C10.2124 4.11751 9.77969 4.00068 9.339 4H3.5C3.36739 4 3.24021 4.05268 3.14645 4.14645C3.05268 4.24021 3 4.36739 3 4.5C3 4.63261 3.05268 4.75979 3.14645 4.85355C3.24021 4.94732 3.36739 5 3.5 5H9.339C9.60293 5.00105 9.86196 5.07144 10.0901 5.20412C10.3183 5.3368 10.5076 5.52712 10.639 5.756L10.781 6H5.5C5.36739 6 5.24021 6.05268 5.14645 6.14645C5.05268 6.24021 5 6.36739 5 6.5V11.5C5 11.6326 5.05268 11.7598 5.14645 11.8536C5.24021 11.9473 5.36739 12 5.5 12H14.459L17.042 12.431V13.5C17.042 13.8978 17.2 14.2794 17.4813 14.5607C17.7626 14.842 18.1442 15 18.542 15H19.987L19.979 16.5C19.979 16.8978 19.821 17.2794 19.5397 17.5607C19.2584 17.842 18.8768 18 18.479 18H14.95C14.9784 17.8347 14.9951 17.6676 15 17.5C15 16.5717 14.6313 15.6815 13.9749 15.0251C13.3185 14.3687 12.4283 14 11.5 14C10.5717 14 9.6815 14.3687 9.02513 15.0251C8.36875 15.6815 8 16.5717 8 17.5C8.00487 17.6676 8.02158 17.8347 8.05 18H3.5C3.36739 18 3.24021 18.0527 3.14645 18.1464C3.05268 18.2402 3 18.3674 3 18.5C3 18.6326 3.05268 18.7598 3.14645 18.8536C3.24021 18.9473 3.36739 19 3.5 19H8.35C8.6306 19.5985 9.0759 20.1047 9.63377 20.4593C10.1916 20.8139 10.839 21.0022 11.5 21.0022C12.161 21.0022 12.8084 20.8139 13.3662 20.4593C13.9241 20.1047 14.3694 19.5985 14.65 19H18.479C19.14 19 19.774 18.7383 20.2425 18.272C20.711 17.8058 20.9758 17.173 20.979 16.512L20.99 14.512V14.497V14.493ZM11.5 20C11.0055 20 10.5222 19.8534 10.1111 19.5787C9.69995 19.304 9.37952 18.9135 9.1903 18.4567C9.00108 17.9999 8.95157 17.4972 9.04804 17.0123C9.1445 16.5273 9.3826 16.0819 9.73223 15.7322C10.0819 15.3826 10.5273 15.1445 11.0123 15.048C11.4972 14.9516 11.9999 15.0011 12.4567 15.1903C12.9135 15.3795 13.304 15.7 13.5787 16.1111C13.8534 16.5222 14 17.0055 14 17.5C14 18.163 13.7366 18.7989 13.2678 19.2678C12.7989 19.7366 12.163 20 11.5 20ZM6 7H11.352L13.638 11H6V7ZM18.042 13.5V12.6L18.742 12.716C19.0557 12.7707 19.3433 12.9252 19.562 13.1566C19.7808 13.388 19.9189 13.6838 19.956 14H18.542C18.4094 14 18.2822 13.9473 18.1884 13.8536C18.0947 13.7598 18.042 13.6326 18.042 13.5Z" fill="#171823"/>
</svg>
