<svg width="24" height="24" viewBox="0 0 24 24" fill="none" xmlns="http://www.w3.org/2000/svg">
<path d="M12.0001 5.00002C13.7226 4.99808 15.385 5.63354 16.6671 6.78402C16.7658 6.8726 16.8958 6.91831 17.0283 6.91109C17.1608 6.90387 17.285 6.84431 17.3736 6.74552C17.4621 6.64673 17.5078 6.51679 17.5006 6.38429C17.4934 6.2518 17.4338 6.1276 17.3351 6.03902C16.0798 4.91587 14.502 4.2176 12.8265 4.04372C11.1511 3.86985 9.46358 4.22924 8.00439 5.07068C6.5452 5.91212 5.38883 7.19267 4.70008 8.72983C4.01134 10.267 3.82535 11.9823 4.16864 13.6314C4.51193 15.2805 5.36697 16.7791 6.61191 17.9137C7.85685 19.0484 9.42817 19.7611 11.1019 19.9503C12.7757 20.1396 14.4664 19.7957 15.9333 18.9677C17.4002 18.1397 18.5682 16.8698 19.2711 15.339C19.3221 15.2193 19.3244 15.0844 19.2776 14.963C19.2307 14.8416 19.1384 14.7432 19.0202 14.6888C18.902 14.6344 18.7672 14.6282 18.6445 14.6715C18.5218 14.7149 18.4208 14.8044 18.3631 14.921C17.8388 16.0627 17.0169 17.0423 15.9837 17.757C14.9504 18.4717 13.7439 18.8952 12.4906 18.9829C11.2374 19.0707 9.98356 18.8195 8.86079 18.2558C7.73802 17.6921 6.78765 16.8366 6.10939 15.7791C5.43113 14.7216 5.04998 13.501 5.00593 12.2454C4.96188 10.9899 5.25656 9.7456 5.85904 8.64315C6.46152 7.5407 7.3496 6.62071 8.4301 5.9797C9.51061 5.3387 10.7437 5.0003 12.0001 5.00002Z" fill="#EF233C"/>
<path d="M21.1641 14.5491C21.1018 14.528 21.036 14.5194 20.9705 14.5238C20.9049 14.5282 20.8409 14.5455 20.782 14.5746C20.7231 14.6038 20.6705 14.6443 20.6273 14.6938C20.5841 14.7433 20.551 14.8008 20.5301 14.8631C20.2282 15.7529 19.7896 16.5902 19.2301 17.3451C19.1859 17.4046 19.1555 17.4732 19.1411 17.546C19.1267 17.6187 19.1287 17.6938 19.1469 17.7656C19.165 17.8375 19.199 17.9045 19.2462 17.9616C19.2935 18.0188 19.3529 18.0647 19.4201 18.0961C19.568 18.1622 19.6977 18.2632 19.7979 18.3905C19.8981 18.5178 19.9659 18.6676 19.9954 18.8269C20.0249 18.9862 20.0153 19.1503 19.9673 19.3051C19.9194 19.4599 19.8345 19.6007 19.7201 19.7154C19.6056 19.8301 19.465 19.9153 19.3104 19.9636C19.1557 20.0119 18.9916 20.0219 18.8322 19.9928C18.6728 19.9636 18.5229 19.8962 18.3954 19.7962C18.2678 19.6963 18.1665 19.5668 18.1001 19.4191C18.0687 19.352 18.0228 19.2926 17.9658 19.2454C17.9087 19.1982 17.8418 19.1643 17.7701 19.1461C17.6982 19.127 17.6231 19.1245 17.5501 19.1387C17.4772 19.1529 17.4085 19.1834 17.3491 19.2281C15.8046 20.3786 13.93 21.0001 12.0041 21.0001C10.0781 21.0001 8.20355 20.3786 6.65905 19.2281C6.59959 19.1836 6.53084 19.1531 6.45794 19.1389C6.38504 19.1247 6.30987 19.1271 6.23805 19.1461C6.16626 19.1643 6.09941 19.1982 6.04234 19.2454C5.98527 19.2926 5.9394 19.352 5.90805 19.4191C5.8419 19.5667 5.74091 19.6961 5.61376 19.7961C5.48661 19.8961 5.33709 19.9638 5.17803 19.9933C5.01897 20.0229 4.85512 20.0134 4.70054 19.9657C4.54595 19.9179 4.40526 19.8334 4.29052 19.7194C4.17578 19.6053 4.09042 19.4651 4.04177 19.3109C3.99312 19.1566 3.98263 18.9928 4.0112 18.8335C4.03977 18.6743 4.10655 18.5244 4.2058 18.3966C4.30505 18.2689 4.43382 18.1671 4.58105 18.1001C4.64824 18.0687 4.70761 18.0228 4.75486 17.9656C4.80212 17.9085 4.83606 17.8415 4.85425 17.7696C4.87244 17.6978 4.87441 17.6227 4.86002 17.55C4.84563 17.4772 4.81524 17.4086 4.77105 17.3491C3.62108 15.8043 2.99998 13.9299 2.99998 12.0041C2.99998 10.0783 3.62108 8.20381 4.77105 6.65906C4.81524 6.59951 4.84563 6.53088 4.86002 6.45814C4.87441 6.38539 4.87244 6.31036 4.85425 6.23847C4.83606 6.16659 4.80212 6.09965 4.75486 6.0425C4.70761 5.98535 4.64824 5.93943 4.58105 5.90806C4.43342 5.8419 4.30404 5.74092 4.20401 5.61377C4.10399 5.48662 4.03631 5.33709 4.00678 5.17803C3.97724 5.01897 3.98674 4.85512 4.03446 4.70054C4.08217 4.54596 4.16668 4.40526 4.28073 4.29052C4.39478 4.17578 4.53496 4.09042 4.68925 4.04177C4.84354 3.99312 5.00733 3.98263 5.16657 4.0112C5.32581 4.03977 5.47573 4.10655 5.60349 4.2058C5.73124 4.30506 5.83301 4.43383 5.90005 4.58106C5.93133 4.64833 5.97718 4.7078 6.03428 4.75515C6.09139 4.80251 6.15831 4.83656 6.23021 4.85485C6.30211 4.87313 6.37717 4.87519 6.44996 4.86087C6.52275 4.84655 6.59144 4.81621 6.65105 4.77206C8.07769 3.70918 9.78884 3.0958 11.5658 3.0103C13.3428 2.9248 15.105 3.37106 16.6271 4.29206C16.6832 4.32927 16.7464 4.35473 16.8126 4.36693C16.8789 4.37912 16.947 4.37779 17.0127 4.36302C17.0785 4.34825 17.1406 4.32034 17.1953 4.28096C17.2499 4.24159 17.2961 4.19157 17.331 4.1339C17.3659 4.07623 17.3887 4.01211 17.3982 3.94539C17.4076 3.87867 17.4035 3.81072 17.386 3.74564C17.3686 3.68055 17.3382 3.61966 17.2966 3.56663C17.255 3.5136 17.2031 3.46953 17.1441 3.43706C15.5286 2.45908 13.668 1.96142 11.78 2.00233C9.89196 2.04324 8.05466 2.62102 6.48305 3.66806C6.30491 3.45492 6.08432 3.28122 5.83534 3.15804C5.58636 3.03486 5.31445 2.9649 5.03694 2.95261C4.75943 2.94033 4.4824 2.98598 4.22351 3.08668C3.96462 3.18737 3.72954 3.34089 3.53326 3.53745C3.33697 3.73401 3.18379 3.96931 3.08346 4.22834C2.98314 4.48738 2.93788 4.76447 2.95056 5.04196C2.96324 5.31946 3.03359 5.59127 3.15712 5.84007C3.28065 6.08888 3.45466 6.30922 3.66805 6.48706C2.58044 8.11997 2.00012 10.0381 2.00012 12.0001C2.00012 13.962 2.58044 15.8801 3.66805 17.5131C3.45732 17.6919 3.28595 17.9125 3.16474 18.1609C3.04354 18.4093 2.97514 18.6801 2.96385 18.9563C2.95257 19.2324 2.99865 19.5079 3.09919 19.7654C3.19972 20.0229 3.35253 20.2567 3.54797 20.4521C3.74341 20.6476 3.97724 20.8004 4.2347 20.9009C4.49216 21.0015 4.76767 21.0475 5.04383 21.0363C5.32 21.025 5.59082 20.9566 5.83922 20.8354C6.08763 20.7142 6.30821 20.5428 6.48705 20.3321C8.11996 21.4197 10.0381 22 12.0001 22C13.962 22 15.8801 21.4197 17.5131 20.3321C17.6919 20.5428 17.9125 20.7142 18.1609 20.8354C18.4093 20.9566 18.6801 21.025 18.9563 21.0363C19.2324 21.0475 19.5079 21.0015 19.7654 20.9009C20.0229 20.8004 20.2567 20.6476 20.4521 20.4521C20.6476 20.2567 20.8004 20.0229 20.9009 19.7654C21.0015 19.5079 21.0475 19.2324 21.0363 18.9563C21.025 18.6801 20.9566 18.4093 20.8354 18.1609C20.7142 17.9125 20.5428 17.6919 20.3321 17.5131C20.8132 16.7892 21.1984 16.006 21.4781 15.1831C21.4991 15.1208 21.5077 15.055 21.5033 14.9895C21.4989 14.9239 21.4816 14.8599 21.4525 14.801C21.4233 14.7421 21.3828 14.6895 21.3333 14.6463C21.2838 14.6031 21.2263 14.57 21.1641 14.5491Z" fill="#171823"/>
<path d="M21.5 2.00001H19.5C19.4288 1.99946 19.3583 2.01414 19.2932 2.04305C19.2281 2.07196 19.1699 2.11444 19.1226 2.16765C19.0752 2.22086 19.0398 2.28358 19.0187 2.35159C18.9975 2.4196 18.9912 2.49134 19 2.56201L19.766 8.68801C18.9211 8.21805 17.9666 7.98064 17 8.00001C16.3418 7.9585 15.6824 8.05969 15.0669 8.29667C14.4514 8.53364 13.8944 8.9008 13.434 9.37301C12.881 9.0709 12.247 8.95057 11.6218 9.02908C10.9966 9.10759 10.412 9.38096 9.95094 9.81041C9.48985 10.2399 9.17569 10.8036 9.05301 11.4216C8.93034 12.0397 9.00538 12.6807 9.26749 13.2537C9.5296 13.8266 9.96548 14.3026 10.5133 14.6139C11.0611 14.9252 11.693 15.0562 12.3195 14.9882C12.9459 14.9202 13.535 14.6566 14.0032 14.235C14.4714 13.8133 14.795 13.2549 14.928 12.639C15.5917 12.8817 16.2934 13.0039 17 13C19.164 13 20.86 11.974 20.978 10.643C20.978 10.631 20.978 10.618 20.984 10.605C20.984 10.569 21 10.536 21 10.5C21 10.487 21 10.476 20.994 10.463C20.9945 10.4547 20.9945 10.4463 20.994 10.438L20.066 3.00001H21.5C21.6326 3.00001 21.7598 2.94734 21.8536 2.85357C21.9473 2.7598 22 2.63262 22 2.50001C22 2.36741 21.9473 2.24023 21.8536 2.14646C21.7598 2.05269 21.6326 2.00001 21.5 2.00001ZM12 14C11.4696 14 10.9609 13.7893 10.5858 13.4142C10.2107 13.0392 10 12.5304 10 12C10 11.4696 10.2107 10.9609 10.5858 10.5858C10.9609 10.2107 11.4696 10 12 10C12.3648 10.0026 12.7218 10.1064 13.031 10.3C13.0166 10.366 13.0063 10.4328 13 10.5C13.0198 10.8331 13.1196 11.1565 13.2911 11.4427C13.4626 11.7289 13.7006 11.9695 13.985 12.144C13.9487 12.6465 13.7241 13.1168 13.3561 13.4609C12.9881 13.805 12.5038 13.9975 12 14ZM17 12C15.232 12 14 11.209 14 10.5C14 9.79102 15.232 9.00001 17 9.00001C18.73 9.00001 19.94 9.75702 19.991 10.455L19.998 10.511C19.984 11.218 18.758 12 17 12Z" fill="#171823"/>
</svg>
