<svg width="24" height="24" viewBox="0 0 24 24" fill="none" xmlns="http://www.w3.org/2000/svg">
<path d="M12 4.99999C13.7226 4.99805 15.3849 5.63351 16.667 6.78399C16.7658 6.87257 16.8957 6.91828 17.0282 6.91106C17.1607 6.90384 17.2849 6.84428 17.3735 6.74549C17.4621 6.64669 17.5078 6.51676 17.5006 6.38426C17.4933 6.25177 17.4338 6.12757 17.335 6.03899C16.0797 4.91584 14.5019 4.21757 12.8265 4.04369C11.1511 3.86981 9.46352 4.22921 8.00433 5.07065C6.54514 5.91208 5.38877 7.19264 4.70002 8.7298C4.01127 10.267 3.82529 11.9823 4.16858 13.6314C4.51187 15.2804 5.36691 16.7791 6.61185 17.9137C7.85679 19.0483 9.4281 19.7611 11.1019 19.9503C12.7756 20.1395 14.4664 19.7957 15.9332 18.9677C17.4001 18.1396 18.5682 16.8698 19.271 15.339C19.322 15.2193 19.3244 15.0844 19.2775 14.963C19.2307 14.8415 19.1383 14.7432 19.0201 14.6887C18.9019 14.6343 18.7671 14.6281 18.6444 14.6715C18.5217 14.7149 18.4208 14.8044 18.363 14.921C17.8387 16.0627 17.0169 17.0423 15.9836 17.757C14.9504 18.4717 13.7438 18.8951 12.4906 18.9829C11.2373 19.0706 9.9835 18.8195 8.86073 18.2558C7.73796 17.6921 6.78759 16.8366 6.10933 15.7791C5.43107 14.7216 5.04992 13.501 5.00587 12.2454C4.96182 10.9899 5.2565 9.74557 5.85898 8.64312C6.46146 7.54067 7.34954 6.62068 8.43004 5.97967C9.51055 5.33867 10.7437 5.00027 12 4.99999Z" fill="#EF233C"/>
<path d="M21.164 14.549C21.1017 14.5279 21.036 14.5194 20.9704 14.5238C20.9048 14.5282 20.8408 14.5454 20.7819 14.5746C20.723 14.6038 20.6705 14.6442 20.6272 14.6937C20.584 14.7432 20.551 14.8007 20.53 14.863C20.2281 15.7528 19.7895 16.5902 19.23 17.345C19.1858 17.4045 19.1554 17.4732 19.141 17.5459C19.1266 17.6187 19.1286 17.6937 19.1468 17.7656C19.165 17.8375 19.1989 17.9044 19.2462 17.9616C19.2934 18.0187 19.3528 18.0646 19.42 18.096C19.5679 18.1621 19.6976 18.2631 19.7978 18.3905C19.8981 18.5178 19.9658 18.6675 19.9954 18.8269C20.0249 18.9862 20.0152 19.1503 19.9673 19.3051C19.9193 19.4598 19.8344 19.6006 19.72 19.7153C19.6056 19.83 19.465 19.9152 19.3103 19.9635C19.1556 20.0118 18.9915 20.0219 18.8322 19.9927C18.6728 19.9635 18.5229 19.8961 18.3953 19.7962C18.2678 19.6962 18.1664 19.5668 18.1 19.419C18.0686 19.3519 18.0228 19.2926 17.9657 19.2454C17.9086 19.1982 17.8418 19.1642 17.77 19.146C17.6982 19.1269 17.623 19.1244 17.5501 19.1386C17.4771 19.1528 17.4084 19.1834 17.349 19.228C15.8045 20.3786 13.9299 21.0001 12.004 21.0001C10.078 21.0001 8.20349 20.3786 6.65899 19.228C6.59953 19.1835 6.53078 19.153 6.45788 19.1388C6.38498 19.1246 6.30981 19.1271 6.23799 19.146C6.1662 19.1642 6.09935 19.1982 6.04228 19.2454C5.98521 19.2926 5.93934 19.3519 5.90799 19.419C5.84184 19.5666 5.74085 19.696 5.6137 19.796C5.48655 19.8961 5.33703 19.9637 5.17797 19.9933C5.01891 20.0228 4.85506 20.0133 4.70048 19.9656C4.54589 19.9179 4.4052 19.8334 4.29046 19.7193C4.17572 19.6053 4.09036 19.4651 4.04171 19.3108C3.99306 19.1565 3.98257 18.9927 4.01114 18.8335C4.03971 18.6742 4.10649 18.5243 4.20574 18.3966C4.30499 18.2688 4.43376 18.167 4.58099 18.1C4.64818 18.0686 4.70755 18.0227 4.7548 17.9656C4.80205 17.9084 4.836 17.8415 4.85419 17.7696C4.87238 17.6977 4.87435 17.6227 4.85996 17.5499C4.84557 17.4772 4.81518 17.4085 4.77099 17.349C3.62102 15.8042 2.99992 13.9298 2.99992 12.004C2.99992 10.0782 3.62102 8.20375 4.77099 6.659C4.81518 6.59945 4.84557 6.53082 4.85996 6.45808C4.87435 6.38533 4.87238 6.3103 4.85419 6.23841C4.836 6.16653 4.80205 6.09959 4.7548 6.04244C4.70755 5.98529 4.64818 5.93937 4.58099 5.908C4.43336 5.84184 4.30398 5.74086 4.20395 5.61371C4.10393 5.48655 4.03625 5.33703 4.00671 5.17797C3.97718 5.01891 3.98668 4.85506 4.0344 4.70048C4.08211 4.5459 4.16662 4.4052 4.28067 4.29046C4.39472 4.17572 4.5349 4.09036 4.68919 4.04171C4.84348 3.99306 5.00727 3.98257 5.16651 4.01114C5.32575 4.03971 5.47567 4.10649 5.60343 4.20574C5.73118 4.305 5.83295 4.43376 5.89999 4.581C5.93127 4.64827 5.97712 4.70774 6.03422 4.75509C6.09133 4.80244 6.15825 4.8365 6.23015 4.85478C6.30205 4.87307 6.37711 4.87513 6.4499 4.86081C6.52269 4.84649 6.59138 4.81615 6.65099 4.772C8.07763 3.70912 9.78878 3.09574 11.5658 3.01023C13.3428 2.92473 15.1049 3.371 16.627 4.292C16.6832 4.3292 16.7463 4.35467 16.8126 4.36687C16.8789 4.37906 16.9469 4.37773 17.0127 4.36296C17.0784 4.34819 17.1405 4.32027 17.1952 4.2809C17.2499 4.24153 17.2961 4.1915 17.3309 4.13384C17.3658 4.07617 17.3886 4.01205 17.3981 3.94533C17.4076 3.87861 17.4034 3.81066 17.386 3.74557C17.3685 3.68049 17.3381 3.6196 17.2965 3.56657C17.2549 3.51354 17.203 3.46947 17.144 3.437C15.5285 2.45902 13.6679 1.96136 11.7799 2.00227C9.8919 2.04318 8.0546 2.62096 6.48299 3.668C6.30485 3.45486 6.08426 3.28116 5.83528 3.15798C5.5863 3.0348 5.31439 2.96484 5.03688 2.95255C4.75937 2.94027 4.48234 2.98592 4.22345 3.08661C3.96456 3.18731 3.72948 3.34082 3.53319 3.53739C3.33691 3.73395 3.18373 3.96924 3.0834 4.22828C2.98308 4.48731 2.93782 4.76441 2.9505 5.0419C2.96318 5.3194 3.03353 5.59121 3.15706 5.84001C3.28059 6.08881 3.4546 6.30916 3.66799 6.487C2.58038 8.11991 2.00006 10.038 2.00006 12C2.00006 13.962 2.58038 15.8801 3.66799 17.513C3.45726 17.6918 3.28589 17.9124 3.16468 18.1608C3.04348 18.4092 2.97508 18.6801 2.96379 18.9562C2.95251 19.2324 2.99859 19.5079 3.09913 19.7653C3.19966 20.0228 3.35247 20.2566 3.54791 20.4521C3.74335 20.6475 3.97718 20.8003 4.23464 20.9009C4.4921 21.0014 4.76761 21.0475 5.04377 21.0362C5.31993 21.0249 5.59076 20.9565 5.83916 20.8353C6.08756 20.7141 6.30815 20.5427 6.48699 20.332C8.1199 21.4196 10.038 21.9999 12 21.9999C13.962 21.9999 15.8801 21.4196 17.513 20.332C17.6918 20.5427 17.9124 20.7141 18.1608 20.8353C18.4092 20.9565 18.6801 21.0249 18.9562 21.0362C19.2324 21.0475 19.5079 21.0014 19.7653 20.9009C20.0228 20.8003 20.2566 20.6475 20.4521 20.4521C20.6475 20.2566 20.8003 20.0228 20.9009 19.7653C21.0014 19.5079 21.0475 19.2324 21.0362 18.9562C21.0249 18.6801 20.9565 18.4092 20.8353 18.1608C20.7141 17.9124 20.5427 17.6918 20.332 17.513C20.8131 16.7891 21.1983 16.0059 21.478 15.183C21.499 15.1208 21.5076 15.055 21.5032 14.9894C21.4988 14.9238 21.4816 14.8598 21.4524 14.8009C21.4232 14.742 21.3828 14.6895 21.3333 14.6463C21.2838 14.603 21.2263 14.57 21.164 14.549Z" fill="white"/>
<path d="M21.5 1.99998H19.5C19.4288 1.99943 19.3583 2.01411 19.2932 2.04302C19.2281 2.07193 19.1699 2.11441 19.1226 2.16762C19.0752 2.22083 19.0398 2.28354 19.0187 2.35156C18.9975 2.41957 18.9912 2.49131 19 2.56198L19.766 8.68798C18.9211 8.21802 17.9666 7.98061 17 7.99998C16.3418 7.95847 15.6824 8.05966 15.0669 8.29664C14.4514 8.53361 13.8944 8.90077 13.434 9.37298C12.881 9.07087 12.247 8.95054 11.6218 9.02905C10.9966 9.10756 10.412 9.38093 9.95094 9.81038C9.48985 10.2398 9.17569 10.8036 9.05301 11.4216C8.93034 12.0396 9.00538 12.6806 9.26749 13.2536C9.5296 13.8266 9.96548 14.3025 10.5133 14.6139C11.0611 14.9252 11.693 15.0562 12.3195 14.9881C12.9459 14.9201 13.535 14.6566 14.0032 14.2349C14.4714 13.8133 14.795 13.2549 14.928 12.639C15.5917 12.8816 16.2934 13.0039 17 13C19.164 13 20.86 11.974 20.978 10.643C20.978 10.631 20.978 10.618 20.984 10.605C20.984 10.569 21 10.536 21 10.5C21 10.487 21 10.476 20.994 10.463C20.9945 10.4547 20.9945 10.4463 20.994 10.438L20.066 2.99998H21.5C21.6326 2.99998 21.7598 2.94731 21.8536 2.85354C21.9473 2.75977 22 2.63259 22 2.49998C22 2.36738 21.9473 2.2402 21.8536 2.14643C21.7598 2.05266 21.6326 1.99998 21.5 1.99998ZM12 14C11.4696 14 10.9609 13.7893 10.5858 13.4142C10.2107 13.0391 10 12.5304 10 12C10 11.4696 10.2107 10.9608 10.5858 10.5858C10.9609 10.2107 11.4696 9.99998 12 9.99998C12.3648 10.0025 12.7218 10.1064 13.031 10.3C13.0166 10.366 13.0063 10.4328 13 10.5C13.0198 10.8331 13.1196 11.1564 13.2911 11.4426C13.4626 11.7289 13.7006 11.9695 13.985 12.144C13.9487 12.6465 13.7241 13.1168 13.3561 13.4609C12.9881 13.805 12.5038 13.9975 12 14ZM17 12C15.232 12 14 11.209 14 10.5C14 9.79098 15.232 8.99998 17 8.99998C18.73 8.99998 19.94 9.75698 19.991 10.455L19.998 10.511C19.984 11.218 18.758 12 17 12Z" fill="white"/>
</svg>
