<svg width="24" height="24" viewBox="0 0 24 24" fill="none" xmlns="http://www.w3.org/2000/svg">
<path d="M18.5 2H16.5C16.3674 2 16.2402 2.05268 16.1464 2.14645C16.0527 2.24021 16 2.36739 16 2.5V4.5H13.408C13.3062 4.20773 13.1159 3.95439 12.8636 3.77511C12.6113 3.59584 12.3095 3.49953 12 3.49953C11.6905 3.49953 11.3887 3.59584 11.1364 3.77511C10.8841 3.95439 10.6938 4.20773 10.592 4.5H8V2.5C8 2.36739 7.94732 2.24021 7.85355 2.14645C7.75979 2.05268 7.63261 2 7.5 2H5.5C5.36739 2 5.24021 2.05268 5.14645 2.14645C5.05268 2.24021 5 2.36739 5 2.5V7.5C5 7.63261 5.05268 7.75979 5.14645 7.85355C5.24021 7.94732 5.36739 8 5.5 8H7.5C7.63261 8 7.75979 7.94732 7.85355 7.85355C7.94732 7.75979 8 7.63261 8 7.5V5.5H10.592C10.6667 5.70912 10.7869 5.89905 10.9439 6.05608C11.1009 6.2131 11.2909 6.3333 11.5 6.408V9.5H11C10.8674 9.5 10.7402 9.55268 10.6464 9.64645C10.5527 9.74021 10.5 9.86739 10.5 10V14C10.5 14.1326 10.5527 14.2598 10.6464 14.3536C10.7402 14.4473 10.8674 14.5 11 14.5H13C13.1326 14.5 13.2598 14.4473 13.3536 14.3536C13.4473 14.2598 13.5 14.1326 13.5 14V10C13.5 9.86739 13.4473 9.74021 13.3536 9.64645C13.2598 9.55268 13.1326 9.5 13 9.5H12.5V6.408C12.7091 6.3333 12.8991 6.2131 13.0561 6.05608C13.2131 5.89905 13.3333 5.70912 13.408 5.5H16V7.5C16 7.63261 16.0527 7.75979 16.1464 7.85355C16.2402 7.94732 16.3674 8 16.5 8H18.5C18.6326 8 18.7598 7.94732 18.8536 7.85355C18.9473 7.75979 19 7.63261 19 7.5V2.5C19 2.36739 18.9473 2.24021 18.8536 2.14645C18.7598 2.05268 18.6326 2 18.5 2ZM7 7H6V3H7V7ZM12.5 13.5H11.5V10.5H12.5V13.5ZM12 5.5C11.9011 5.5 11.8044 5.47068 11.7222 5.41573C11.64 5.36079 11.5759 5.2827 11.5381 5.19134C11.5002 5.09998 11.4903 4.99945 11.5096 4.90245C11.5289 4.80546 11.5765 4.71637 11.6464 4.64645C11.7164 4.57652 11.8055 4.5289 11.9025 4.50961C11.9994 4.49031 12.1 4.50022 12.1913 4.53806C12.2827 4.5759 12.3608 4.63999 12.4157 4.72221C12.4707 4.80444 12.5 4.90111 12.5 5C12.5 5.13261 12.4473 5.25979 12.3536 5.35355C12.2598 5.44732 12.1326 5.5 12 5.5ZM18 7H17V3H18V7Z" fill="#171823"/>
<path d="M18.5 16H16.5C16.3674 16 16.2402 16.0527 16.1464 16.1464C16.0527 16.2402 16 16.3674 16 16.5V18.5H8V16.5C8 16.3674 7.94732 16.2402 7.85355 16.1464C7.75979 16.0527 7.63261 16 7.5 16H5.5C5.36739 16 5.24021 16.0527 5.14645 16.1464C5.05268 16.2402 5 16.3674 5 16.5V21.5C5 21.6326 5.05268 21.7598 5.14645 21.8536C5.24021 21.9473 5.36739 22 5.5 22H7.5C7.63261 22 7.75979 21.9473 7.85355 21.8536C7.94732 21.7598 8 21.6326 8 21.5V19.5H16V21.5C16 21.6326 16.0527 21.7598 16.1464 21.8536C16.2402 21.9473 16.3674 22 16.5 22H18.5C18.6326 22 18.7598 21.9473 18.8536 21.8536C18.9473 21.7598 19 21.6326 19 21.5V16.5C19 16.3674 18.9473 16.2402 18.8536 16.1464C18.7598 16.0527 18.6326 16 18.5 16ZM7 21H6V17H7V21ZM18 21H17V17H18V21Z" fill="#EF233C"/>
</svg>
