<svg width="24" height="24" viewBox="0 0 24 24" fill="none" xmlns="http://www.w3.org/2000/svg">
<path d="M12 2C10.0222 2 8.08879 2.58649 6.4443 3.6853C4.79981 4.78412 3.51809 6.3459 2.76121 8.17317C2.00433 10.0004 1.8063 12.0111 2.19215 13.9509C2.578 15.8907 3.53041 17.6725 4.92894 19.0711C6.32746 20.4696 8.10929 21.422 10.0491 21.8079C11.9889 22.1937 13.9996 21.9957 15.8268 21.2388C17.6541 20.4819 19.2159 19.2002 20.3147 17.5557C21.4135 15.9112 22 13.9778 22 12C21.9971 9.34873 20.9426 6.80688 19.0679 4.93215C17.1931 3.05742 14.6513 2.00291 12 2ZM12 21C10.22 21 8.47991 20.4722 6.99987 19.4832C5.51983 18.4943 4.36628 17.0887 3.68509 15.4442C3.0039 13.7996 2.82567 11.99 3.17294 10.2442C3.5202 8.49836 4.37737 6.89471 5.63604 5.63604C6.89472 4.37737 8.49836 3.5202 10.2442 3.17293C11.99 2.82567 13.7996 3.0039 15.4442 3.68508C17.0887 4.36627 18.4943 5.51983 19.4832 6.99987C20.4722 8.47991 21 10.22 21 12C20.9971 14.3861 20.0479 16.6735 18.3608 18.3607C16.6736 20.0479 14.3861 20.9971 12 21Z" fill="#171823"/>
<path d="M9.27504 18.4499C7.62097 17.753 6.2988 16.4459 5.58304 14.7999C5.55815 14.7378 5.52102 14.6812 5.47387 14.6337C5.42672 14.5862 5.3705 14.5486 5.30855 14.5232C5.2466 14.4978 5.18018 14.4851 5.11323 14.4859C5.04628 14.4866 4.98016 14.5008 4.9188 14.5276C4.85744 14.5544 4.80209 14.5933 4.75603 14.6419C4.70997 14.6904 4.67413 14.7478 4.65065 14.8105C4.62717 14.8732 4.61652 14.94 4.61934 15.0069C4.62215 15.0738 4.63838 15.1394 4.66704 15.1999C5.4847 17.0808 6.99572 18.5743 8.88604 19.3699C8.94919 19.397 9.01732 19.4107 9.08604 19.4099C9.20155 19.41 9.31352 19.3701 9.40294 19.297C9.49236 19.2239 9.55371 19.1221 9.57656 19.0089C9.59942 18.8956 9.58237 18.778 9.52832 18.6759C9.47426 18.5739 9.38654 18.4936 9.28004 18.4489L9.27504 18.4499Z" fill="#EF233C"/>
<path d="M19.3331 8.8C18.5154 6.9191 17.0044 5.42562 15.1141 4.63C15.0533 4.60283 14.9878 4.58806 14.9212 4.58655C14.8547 4.58505 14.7885 4.59684 14.7266 4.62123C14.6647 4.64562 14.6083 4.68212 14.5607 4.7286C14.5131 4.77507 14.4752 4.83058 14.4493 4.89188C14.4234 4.95318 14.41 5.01903 14.4099 5.08557C14.4098 5.15211 14.423 5.21801 14.4487 5.27939C14.4743 5.34078 14.512 5.39642 14.5595 5.44306C14.6069 5.4897 14.6632 5.5264 14.7251 5.551C16.3789 6.24764 17.7011 7.55438 18.4171 9.2C18.456 9.28928 18.5202 9.36523 18.6018 9.41853C18.6833 9.47183 18.7786 9.50014 18.8761 9.5C18.9449 9.50015 19.0131 9.48584 19.0761 9.458C19.1973 9.40472 19.2925 9.30551 19.3406 9.18215C19.3888 9.05879 19.3861 8.92135 19.3331 8.8Z" fill="#EF233C"/>
<path d="M15.549 8.48499C15.549 8.47899 15.542 8.46999 15.536 8.46399C15.53 8.45799 15.521 8.45599 15.515 8.45099C14.5812 7.5217 13.3174 7 12 7C10.6826 7 9.41879 7.5217 8.48499 8.45099C8.47899 8.45099 8.46999 8.45799 8.46399 8.46399C8.45799 8.46999 8.45599 8.47899 8.45099 8.48499C7.5217 9.41879 7 10.6826 7 12C7 13.3174 7.5217 14.5812 8.45099 15.515C8.45099 15.521 8.45799 15.53 8.46399 15.536C8.46999 15.542 8.47899 15.544 8.48499 15.549C9.41879 16.4783 10.6826 17 12 17C13.3174 17 14.5812 16.4783 15.515 15.549C15.521 15.549 15.53 15.542 15.536 15.536C15.542 15.53 15.544 15.521 15.549 15.515C16.4783 14.5812 17 13.3174 17 12C17 10.6826 16.4783 9.41879 15.549 8.48499ZM15.149 14.44L13.719 13.01C13.8132 12.8508 13.8845 12.6791 13.931 12.5H15.951C15.8628 13.2073 15.585 13.8776 15.147 14.44H15.149ZM8.04899 12.5H10.069C10.1154 12.6791 10.1868 12.8508 10.281 13.01L8.85099 14.44C8.41442 13.8772 8.13801 13.2069 8.05099 12.5H8.04899ZM8.84899 9.55999L10.279 10.99C10.1848 11.1492 10.1135 11.3209 10.067 11.5H8.05099C8.1386 10.7929 8.4157 10.1226 8.85299 9.55999H8.84899ZM12 13C11.8022 13 11.6089 12.9413 11.4444 12.8315C11.28 12.7216 11.1518 12.5654 11.0761 12.3827C11.0004 12.2 10.9806 11.9989 11.0192 11.8049C11.0578 11.6109 11.153 11.4327 11.2929 11.2929C11.4327 11.153 11.6109 11.0578 11.8049 11.0192C11.9989 10.9806 12.2 11.0004 12.3827 11.0761C12.5654 11.1518 12.7216 11.28 12.8315 11.4444C12.9413 11.6089 13 11.8022 13 12C13 12.2652 12.8946 12.5196 12.7071 12.7071C12.5196 12.8946 12.2652 13 12 13ZM13.01 10.283C12.8508 10.1888 12.6791 10.1174 12.5 10.071V8.05099C13.2069 8.13801 13.8772 8.41442 14.44 8.85099L13.01 10.283ZM11.5 10.071C11.3209 10.1174 11.1492 10.1888 10.99 10.283L9.55999 8.85299C10.1228 8.41642 10.7931 8.14001 11.5 8.05299V10.071ZM10.99 13.717C11.1492 13.8112 11.3209 13.8825 11.5 13.929V15.949C10.7931 15.862 10.1228 15.5856 9.55999 15.149L10.99 13.717ZM12.5 13.929C12.6791 13.8825 12.8508 13.8112 13.01 13.717L14.44 15.147C13.8772 15.5836 13.2069 15.86 12.5 15.947V13.929ZM13.929 11.5C13.8825 11.3209 13.8112 11.1492 13.717 10.99L15.147 9.55999C15.5836 10.1228 15.86 10.7931 15.947 11.5H13.929Z" fill="#171823"/>
</svg>
