<svg width="24" height="24" viewBox="0 0 24 24" fill="none" xmlns="http://www.w3.org/2000/svg">
<path d="M12 2C10.0222 2 8.08879 2.58649 6.4443 3.6853C4.79981 4.78412 3.51808 6.3459 2.76121 8.17317C2.00433 10.0004 1.8063 12.0111 2.19215 13.9509C2.578 15.8907 3.53041 17.6725 4.92893 19.0711C6.32746 20.4696 8.10929 21.422 10.0491 21.8079C11.9889 22.1937 13.9996 21.9957 15.8268 21.2388C17.6541 20.4819 19.2159 19.2002 20.3147 17.5557C21.4135 15.9112 22 13.9778 22 12C21.9971 9.34873 20.9426 6.80688 19.0679 4.93215C17.1931 3.05742 14.6513 2.00291 12 2ZM12 21C10.22 21 8.47991 20.4722 6.99987 19.4832C5.51983 18.4943 4.36627 17.0887 3.68508 15.4442C3.0039 13.7996 2.82567 11.99 3.17293 10.2442C3.5202 8.49836 4.37737 6.89471 5.63604 5.63604C6.89471 4.37737 8.49836 3.5202 10.2442 3.17293C11.99 2.82567 13.7996 3.0039 15.4442 3.68508C17.0887 4.36627 18.4943 5.51983 19.4832 6.99987C20.4722 8.47991 21 10.22 21 12C20.9971 14.3861 20.0479 16.6735 18.3607 18.3607C16.6735 20.0479 14.3861 20.9971 12 21Z" fill="white"/>
<path d="M9.275 18.45C7.62092 17.7531 6.29876 16.446 5.583 14.8C5.5581 14.7379 5.52098 14.6813 5.47382 14.6338C5.42667 14.5863 5.37045 14.5487 5.3085 14.5233C5.24655 14.4979 5.18013 14.4852 5.11318 14.486C5.04623 14.4867 4.98012 14.5009 4.91876 14.5277C4.8574 14.5545 4.80204 14.5934 4.75598 14.6419C4.70992 14.6905 4.67409 14.7479 4.65061 14.8106C4.62712 14.8733 4.61648 14.9401 4.61929 15.007C4.62211 15.0739 4.63833 15.1395 4.667 15.2C5.48465 17.0809 6.99567 18.5744 8.886 19.37C8.94915 19.3971 9.01727 19.4108 9.086 19.41C9.2015 19.4101 9.31347 19.3702 9.40289 19.2971C9.49231 19.224 9.55366 19.1222 9.57652 19.009C9.59937 18.8957 9.58233 18.7781 9.52827 18.676C9.47422 18.5739 9.38649 18.4937 9.28 18.449L9.275 18.45Z" fill="#EF233C"/>
<path d="M19.333 8.8C18.5153 6.9191 17.0043 5.42562 15.114 4.63C15.0533 4.60283 14.9877 4.58806 14.9212 4.58655C14.8547 4.58505 14.7885 4.59684 14.7266 4.62123C14.6647 4.64562 14.6083 4.68212 14.5606 4.7286C14.513 4.77507 14.4751 4.83058 14.4493 4.89188C14.4234 4.95318 14.41 5.01903 14.4099 5.08557C14.4097 5.15211 14.4229 5.21801 14.4486 5.27939C14.4743 5.34078 14.512 5.39642 14.5594 5.44306C14.6069 5.4897 14.6632 5.5264 14.725 5.551C16.3789 6.24764 17.701 7.55438 18.417 9.2C18.456 9.28928 18.5202 9.36523 18.6017 9.41853C18.6832 9.47183 18.7786 9.50014 18.876 9.5C18.9449 9.50015 19.013 9.48584 19.076 9.458C19.1972 9.40472 19.2924 9.30551 19.3406 9.18215C19.3888 9.05879 19.386 8.92135 19.333 8.8Z" fill="#EF233C"/>
<path d="M15.549 8.48499C15.549 8.47899 15.542 8.46999 15.536 8.46399C15.53 8.45799 15.521 8.45599 15.515 8.45099C14.5812 7.5217 13.3174 7 12 7C10.6826 7 9.41879 7.5217 8.485 8.45099C8.479 8.45099 8.47 8.45799 8.464 8.46399C8.458 8.46999 8.456 8.47899 8.451 8.48499C7.52171 9.41879 7.00001 10.6826 7.00001 12C7.00001 13.3174 7.52171 14.5812 8.451 15.515C8.451 15.521 8.458 15.53 8.464 15.536C8.47 15.542 8.479 15.544 8.485 15.549C9.41879 16.4783 10.6826 17 12 17C13.3174 17 14.5812 16.4783 15.515 15.549C15.521 15.549 15.53 15.542 15.536 15.536C15.542 15.53 15.544 15.521 15.549 15.515C16.4783 14.5812 17 13.3174 17 12C17 10.6826 16.4783 9.41879 15.549 8.48499ZM15.149 14.44L13.719 13.01C13.8132 12.8508 13.8845 12.6791 13.931 12.5H15.951C15.8628 13.2073 15.585 13.8776 15.147 14.44H15.149ZM8.049 12.5H10.069C10.1155 12.6791 10.1868 12.8508 10.281 13.01L8.851 14.44C8.41443 13.8772 8.13802 13.2069 8.051 12.5H8.049ZM8.849 9.55999L10.279 10.99C10.1848 11.1492 10.1135 11.3209 10.067 11.5H8.051C8.1386 10.7929 8.41571 10.1226 8.853 9.55999H8.849ZM12 13C11.8022 13 11.6089 12.9413 11.4444 12.8315C11.28 12.7216 11.1518 12.5654 11.0761 12.3827C11.0004 12.2 10.9806 11.9989 11.0192 11.8049C11.0578 11.6109 11.153 11.4327 11.2929 11.2929C11.4327 11.153 11.6109 11.0578 11.8049 11.0192C11.9989 10.9806 12.2 11.0004 12.3827 11.0761C12.5654 11.1518 12.7216 11.28 12.8315 11.4444C12.9414 11.6089 13 11.8022 13 12C13 12.2652 12.8946 12.5196 12.7071 12.7071C12.5196 12.8946 12.2652 13 12 13ZM13.01 10.283C12.8508 10.1888 12.6791 10.1174 12.5 10.071V8.05099C13.2069 8.13801 13.8772 8.41442 14.44 8.85099L13.01 10.283ZM11.5 10.071C11.3209 10.1174 11.1492 10.1888 10.99 10.283L9.56 8.85299C10.1228 8.41642 10.7931 8.14001 11.5 8.05299V10.071ZM10.99 13.717C11.1492 13.8112 11.3209 13.8825 11.5 13.929V15.949C10.7931 15.862 10.1228 15.5856 9.56 15.149L10.99 13.717ZM12.5 13.929C12.6791 13.8825 12.8508 13.8112 13.01 13.717L14.44 15.147C13.8772 15.5836 13.2069 15.86 12.5 15.947V13.929ZM13.929 11.5C13.8825 11.3209 13.8112 11.1492 13.717 10.99L15.147 9.55999C15.5836 10.1228 15.86 10.7931 15.947 11.5H13.929Z" fill="white"/>
</svg>
